<svg xmlns="http://www.w3.org/2000/svg" width="15" height="24" viewBox="0 0 15 24">
    <path fill="#F36" stroke="#FFF" stroke-width=".9" d="M13.084 17.98H2.832V2.936c0-.071.059-.129.131-.129h9.074c.072 0 .13.058.13.13v12.299c0 .499.41.903.917.903.506 0 .916-.404.916-.903v-12.3C14 1.87 13.12 1 12.037 1H2.963C1.881 1 1 1.869 1 2.936v18.128C1 22.13 1.88 23 2.963 23h9.074C13.119 23 14 22.131 14 21.064v-2.18c0-.5-.41-.904-.916-.904zm-1.047 3.213H2.963c-.072 0-.13-.058-.13-.13v-1.276h9.335v1.277c0 .071-.059.129-.131.129z"/>
</svg>
