<svg xmlns="http://www.w3.org/2000/svg" width="34" height="34" viewBox="0 0 34 34">
    <g fill="none" fill-rule="evenodd">
        <ellipse cx="17" cy="17.478" fill="#FFF" rx="16" ry="16.5"/>
        <path fill="#1F2235" fill-rule="nonzero" d="M16.998 0C7.612 0 0 7.641 0 17.068c0 7.54 4.87 13.936 11.628 16.195.85.157 1.16-.37 1.16-.823 0-.406-.015-1.479-.023-2.902-4.728 1.03-5.727-2.29-5.727-2.29-.771-1.971-1.887-2.496-1.887-2.496-1.545-1.058.115-1.037.115-1.037 1.706.121 2.603 1.76 2.603 1.76 1.517 2.607 3.98 1.855 4.949 1.417.153-1.103.593-1.855 1.08-2.282-3.774-.432-7.744-1.896-7.744-8.434 0-1.864.663-3.388 1.751-4.582-.176-.431-.759-2.167.166-4.516 0 0 1.428-.459 4.675 1.75 1.355-.379 2.809-.568 4.256-.574 1.443.008 2.899.195 4.257.575 3.244-2.208 4.67-1.749 4.67-1.749.927 2.35.345 4.085.17 4.516 1.09 1.194 1.747 2.718 1.747 4.582 0 6.555-3.974 7.998-7.76 8.421.61.527 1.153 1.568 1.153 3.16 0 2.282-.02 4.122-.02 4.681 0 .457.305.988 1.168.82C29.134 31 34 24.605 34 17.069 34 7.641 26.388 0 16.998 0z"/>
    </g>
</svg>
