<svg xmlns="http://www.w3.org/2000/svg" width="16" height="21" viewBox="0 0 16 21">
    <path fill="#F36" stroke="#FFF" stroke-width=".2" d="M14.656 1c.328 0 .594.266.594.594 0 .328-.266.593-.594.593h-.99v3.34c0 1.064-.453 2.083-1.244 2.796L11.147 9.47c-.296.266-.459.632-.459 1.03s.163.764.459 1.03l1.275 1.148c.791.71 1.245 1.73 1.245 2.794l-.001 3.339h.99c.328 0 .594.266.594.594 0 .328-.266.594-.594.594H1.594C1.266 20 1 19.734 1 19.406c0-.328.266-.594.594-.594h.989v-3.34c0-1.063.454-2.082 1.245-2.795l1.275-1.148c.297-.265.46-.632.46-1.029 0-.397-.163-.764-.459-1.03L3.828 8.323C3.037 7.61 2.583 6.59 2.583 5.527v-3.34h-.99c-.327 0-.593-.265-.593-.593C1 1.266 1.266 1 1.594 1h13.062zM12.48 2.187H3.77v3.34c0 .728.312 1.426.853 1.913l1.275 1.148c.542.487.852 1.184.852 1.912s-.31 1.425-.851 1.913L4.624 13.56c-.542.486-.853 1.184-.853 1.912l-.001 3.339h8.709v-3.34c0-.727-.311-1.425-.852-1.912l-1.275-1.148C9.81 11.925 9.5 11.228 9.5 10.5s.31-1.425.851-1.913l1.275-1.148c.542-.486.853-1.184.853-1.912v-3.34z"/>
</svg>
