<svg xmlns="http://www.w3.org/2000/svg" width="16" height="16" viewBox="0 0 16 16">
    <path fill="#FFF" d="M7.984 13.244c.266 0 .498.205.542.462l.007.087v1.626c0 .296-.253.55-.549.55-.266 0-.498-.206-.542-.463l-.007-.087v-1.626c0-.296.253-.55.55-.55zm-3.738-1.542c.187.187.208.475.062.685l-.062.075-1.162 1.162c-.211.211-.55.211-.76 0-.188-.188-.21-.476-.063-.686l.062-.075 1.162-1.161c.211-.212.57-.212.76 0zm7.456 0c.21-.212.57-.212.76 0l1.162 1.161c.211.212.211.55 0 .76-.211.212-.55.212-.76 0l-1.162-1.161c-.212-.211-.212-.55 0-.76zM7.984 3.97c1.099 0 2.112.465 2.83 1.183.74.718 1.183 1.732 1.183 2.83 0 1.099-.464 2.112-1.182 2.83-.719.74-1.732 1.183-2.83 1.183-1.1 0-2.113-.464-2.831-1.182-.718-.719-1.183-1.732-1.183-2.83 0-1.1.465-2.113 1.183-2.831.718-.74 1.732-1.183 2.83-1.183zm7.435 3.464c.296 0 .55.253.55.55 0 .265-.206.497-.463.54l-.087.008h-1.626c-.296 0-.55-.253-.55-.549 0-.266.206-.498.463-.542l.087-.007h1.626zm-13.243 0c.295 0 .549.253.549.55 0 .265-.206.497-.462.54l-.087.008H.549C.232 8.533 0 8.28 0 7.984c0-.266.205-.498.462-.542l.087-.007h1.627zm11.469-5.09c.188.187.208.475.062.685l-.062.075-1.162 1.162c-.211.21-.57.21-.76 0-.188-.188-.209-.476-.063-.686l.063-.075 1.161-1.161c.212-.212.55-.212.76 0zM3.009 2.282l.075.063 1.162 1.161c.21.211.21.55 0 .76-.188.188-.476.21-.686.063l-.075-.062-1.162-1.162c-.21-.211-.21-.55 0-.76.188-.188.476-.21.686-.063zM7.984 0c.266 0 .498.205.542.462l.007.087v1.627c0 .295-.253.549-.549.549-.266 0-.498-.206-.542-.462l-.007-.087V.549c0-.296.253-.549.55-.549z"/>
</svg>
