<svg xmlns="http://www.w3.org/2000/svg" width="18" height="18" viewBox="0 0 18 18">
    <path fill="white" d="M8.908 4.319c-2.528 0-4.583 2.078-4.583 4.63 0 2.554 2.056 4.633 4.583 4.633s4.583-2.078 4.583-4.632-2.056-4.631-4.583-4.631zm0 7.605c-1.623 0-2.943-1.334-2.943-2.974 0-1.64 1.32-2.974 2.943-2.974S11.85 7.31 11.85 8.95c0 1.64-1.32 2.974-2.943 2.974zm4.756-8.77h-.011c-.58 0-1.051.471-1.051 1.052 0 .58.47 1.051 1.051 1.051.58 0 1.051-.47 1.051-1.051V4.2c0-.576-.465-1.043-1.04-1.046zm2.715-1.68C15.432.51 14.128 0 12.607 0H5.208C2.093 0 0 2.115 0 5.263v7.434c0 1.573.519 2.914 1.5 3.875.952.935 2.248 1.429 3.75 1.429h7.315c1.53 0 2.837-.493 3.782-1.425.96-.947 1.468-2.275 1.468-3.838V5.262c0-1.522-.497-2.833-1.437-3.789zm-.204 11.265c0 1.106-.337 2.024-.974 2.652-.632.624-1.543.954-2.635.954H5.25c-1.066 0-1.967-.332-2.608-.96-.655-.643-1.002-1.573-1.002-2.687V5.263c0-1.099.332-2.013.96-2.645.626-.628 1.528-.96 2.609-.96h7.398c1.074 0 1.976.34 2.608.984.628.64.96 1.546.96 2.621v7.476z"/>
</svg>
