<svg xmlns="http://www.w3.org/2000/svg" width="21" height="16" viewBox="0 0 21 16">
    <path fill="#F36" d="M18.822 0H1.712C.766 0 0 .767 0 1.711V13.69c0 .944.767 1.711 1.711 1.711h17.111c.944 0 1.711-.767 1.711-1.711V1.71c0-.944-.767-1.711-1.71-1.711zM1.712.856h17.11c.047 0 .088.019.132.026l-8.233 6.685c-.278.176-.676.147-.878.022L1.579.882c.045-.007.085-.026.132-.026zm17.966 12.833c0 .472-.384.855-.856.855H1.712c-.473 0-.856-.383-.856-.855V1.71c0-.096.025-.184.054-.27l8.43 6.84c.279.18.6.275.927.275.315 0 .624-.089.895-.256.025-.013.048-.029.07-.046l8.391-6.813c.03.086.055.174.055.27V13.69z"/>
</svg>
