<svg xmlns="http://www.w3.org/2000/svg" width="14" height="14" viewBox="0 0 14 14">
    <path fill="#3B3F5E" d="M.33 7.967c.144-.035.287 0 .412.09.466.395 1.002.718 1.593.934.554.215 1.163.323 1.807.323 1.449 0 2.773-.593 3.721-1.544.948-.952 1.539-2.28 1.539-3.735 0-.61-.107-1.202-.286-1.741-.197-.575-.483-1.095-.86-1.544-.16-.198-.124-.485.072-.646.126-.09.269-.126.412-.09 1.52.413 2.845 1.328 3.793 2.55C13.445 3.765 14 5.255 14 6.89c0 1.957-.787 3.735-2.075 5.027C10.636 13.21 8.865 14 6.915 14c-1.646 0-3.167-.575-4.383-1.526-1.235-.97-2.13-2.352-2.505-3.932-.09-.27.053-.52.304-.575zm2.738 3.753c1.038.826 2.362 1.328 3.811 1.328 1.7 0 3.239-.7 4.348-1.813 1.11-1.113 1.807-2.657 1.807-4.363 0-1.418-.465-2.71-1.27-3.752-.555-.718-1.253-1.31-2.058-1.724.09.198.179.395.25.61.233.647.34 1.33.34 2.047 0 1.706-.697 3.268-1.807 4.381-1.109 1.113-2.665 1.814-4.365 1.814-.752 0-1.467-.126-2.13-.377-.232-.09-.464-.18-.679-.288.43.826 1.02 1.562 1.753 2.137z"/>
</svg>
