<svg xmlns="http://www.w3.org/2000/svg" width="14" height="14" viewBox="0 0 14 14">
    <defs>
        <radialGradient id="prefix__a" cx="0%" cy="0%" r="113.438%" fx="0%" fy="0%" gradientTransform="scale(.94444 1) rotate(41.273)">
            <stop offset="0%" stop-color="#FFF6AD"/>
            <stop offset="100%" stop-color="#FFBF00"/>
        </radialGradient>
    </defs>
    <path fill="url(#prefix__a)" fill-rule="evenodd" d="M13.963 4.996c-.092-.28-.343-.477-.64-.504l-4.04-.361L7.684.445C7.567.175 7.299 0 7 0c-.299 0-.567.175-.684.445L4.719 4.131l-4.042.361c-.297.027-.548.225-.64.504-.093.28-.007.586.217.78l3.055 2.64-.901 3.91c-.066.287.047.584.29.757.13.093.282.14.436.14.131 0 .263-.035.381-.105L7 11.065l3.484 2.053c.256.15.577.137.819-.035.242-.173.355-.47.29-.758l-.902-3.91 3.055-2.64c.224-.193.31-.5.217-.78z"/>
</svg>
