<svg xmlns="http://www.w3.org/2000/svg" width="23" height="19" viewBox="0 0 23 19">
    <path fill="white" d="M22.284 2.143c-.763.347-1.649.599-2.577.712.9-.564 1.609-1.438 1.954-2.478-.825.47-1.796.853-2.83 1.06C17.938.557 16.754 0 15.441 0c-2.52 0-4.561 2.042-4.561 4.56 0 .366.043.722.124 1.063C7.2 5.399 3.858 3.6 1.611.866 1.205 1.498.975 2.287.975 3.13c0 1.572.8 2.957 2.014 3.772-.746-.014-1.454-.222-2.073-.57.022.03.022.05.022.07.004 2.194 1.562 4.024 3.631 4.45-.33.106-.743.164-1.17.164-.305 0-.603-.03-.89-.086.633 1.827 2.305 3.124 4.286 3.161-1.537 1.213-3.506 1.946-5.646 1.946h-.017c-.383 0-.76-.023-1.132-.068 2.019 1.284 4.433 2.046 7.024 2.046h.016c8.392 0 12.98-6.925 12.98-12.93 0-.197-.003-.393-.012-.588.896-.65 1.651-1.43 2.255-2.32l.021-.033z"/>
</svg>
