<svg xmlns="http://www.w3.org/2000/svg" xmlns:xlink="http://www.w3.org/1999/xlink" width="540" height="492" viewBox="0 0 540 492">
    <defs>
        <path id="prefix__b" d="M0.513 0.057L119.324 0.057 119.324 155.75 0.513 155.75z"/>
        <path id="prefix__d" d="M0.174 0.24L416.344 0.24 416.344 1 0.174 1z"/>
        <path id="prefix__f" d="M0 0.35L31.949 0.35 31.949 39.383 0 39.383z"/>
        <path id="prefix__h" d="M0.284 0.318L36.52 0.318 36.52 46.123 0.284 46.123z"/>
        <linearGradient id="prefix__a" x1="63.12%" x2="23.927%" y1="28.952%" y2="67.365%">
            <stop offset="0%" stop-color="#EEE" stop-opacity="0"/>
            <stop offset="100%" stop-color="#F1F1F1"/>
        </linearGradient>
    </defs>
    <g fill="none" fill-rule="evenodd">
        <path fill="url(#prefix__a)" d="M126.267 116.184c-98.112 3.642-222.053 329.85-9.617 341.47 212.436 11.618 157.606 47.736 255.485 27.491 97.879-20.244 241.528-227.95 122.114-274.757-119.415-46.807-269.871-97.846-367.982-94.204z" transform="matrix(-1 0 0 1 539.521 0)"/>
        <g>
            <g>
                <g transform="translate(79) translate(46 22.682) translate(262 244)">
                    <mask id="prefix__c" fill="#fff">
                        <use xlink:href="#prefix__b"/>
                    </mask>
                    <path fill="#F5F5F5" d="M26.858 152.59C4.748 137.145-.269 108.47.606 82.697c.146-4.301-.327-8.836 1.72-12.612C4.372 66.31 9.146 63.73 13 65.543c3.195 1.504 4.587 5.22 6.375 8.294 2.378 4.09 5.921 7.474 10.09 9.637 2.74 1.422 6.128 2.29 8.833.8 3.711-2.048 4.15-7.175 4.123-11.454l-.15-23.925c-.027-4.28-.04-8.648 1.291-12.71 1.33-4.06 4.272-7.833 8.342-8.973 4.071-1.141 9.104 1.206 9.964 5.395.358 1.743.003 3.552.122 5.328.118 1.777.946 3.742 2.633 4.236 1.708.502 3.42-.711 4.7-1.963 4.416-4.32 7.413-9.887 10.214-15.422 2.8-5.534 5.52-11.201 9.526-15.913C93.071 4.16 98.614.427 104.743.079c6.128-.346 12.656 3.436 14.205 9.45 1.553 6.035-1.967 12.155-5.796 17.038-5.682 7.245-12.403 13.652-19.887 18.957-1.349.957-2.81 1.99-3.327 3.576-.93 2.853 1.774 5.686 4.591 6.624 3.19 1.062 6.65.73 9.986 1.124 3.336.392 6.951 1.864 8.213 5.017 1.753 4.373-1.905 8.958-5.504 11.96-7.207 6.014-15.436 10.763-24.216 13.979-3.147 1.152-6.46 2.163-8.998 4.374-2.539 2.213-4.07 6.058-2.537 9.07 1.534 3.019 5.471 3.983 8.768 3.37 3.296-.61 6.248-2.4 9.39-3.586 5.88-2.22 13.474-1.814 17.241 3.268 2.475 3.34 2.693 7.992 1.441 11.975-1.25 3.98-3.79 7.412-6.487 10.575-9.425 11.057-21.49 19.959-35.132 24.689-13.64 4.73-26.279 6.01-39.836 1.052" mask="url(#prefix__c)"/>
                </g>
                <path fill="#E1E1E1" d="M295.512 380.433c3.793-13.007 9.134-26.92 15.22-41.28l4.545-10.615c1.5-3.48 2.987-6.934 4.65-10.219 3.299-6.589 6.972-12.672 10.64-18.337 3.666-5.669 7.35-10.915 10.833-15.795 3.495-4.874 6.837-9.356 10.056-13.31 6.419-7.938 12.343-13.714 16.57-17.514 2.11-1.909 3.797-3.333 4.953-4.284.556-.453.992-.806 1.32-1.075.3-.236.459-.352.468-.343.01.01-.132.149-.415.407-.317.281-.737.656-1.271 1.133-1.121.99-2.773 2.453-4.85 4.392-4.158 3.864-10 9.683-16.344 17.64-3.184 3.966-6.492 8.457-9.957 13.341-3.457 4.892-7.117 10.144-10.76 15.81-3.64 5.661-7.285 11.73-10.555 18.286-1.65 3.272-3.121 6.695-4.622 10.185-1.492 3.488-3.005 7.029-4.54 10.611-6.08 14.35-11.426 28.22-15.25 41.178" transform="translate(79) translate(46 22.682)"/>
                <path fill="#E1E1E1" d="M320.151 318.288c-.053.009-.198-.642-.418-1.825-.225-1.183-.493-2.904-.794-5.034-.604-4.261-1.239-10.173-1.914-16.694-.676-6.524-1.393-12.41-2.06-16.649-.329-2.121-.61-3.835-.823-5.017-.204-1.184-.292-1.845-.238-1.857.053-.013.241.626.538 1.793.303 1.165.671 2.869 1.07 4.984.811 4.231 1.618 10.131 2.294 16.661l1.686 16.708c.215 2.009.398 3.701.545 5.06.124 1.195.17 1.862.114 1.87" transform="translate(79) translate(46 22.682)"/>
                <path fill="#E1E1E1" d="M375.166 308.007c.001.055-.781.146-2.194.263-1.412.126-3.455.296-5.973.588-5.039.544-11.973 1.539-19.575 2.97-7.602 1.449-14.426 3.05-19.327 4.35-2.457.635-4.431 1.2-5.798 1.584-1.365.388-2.129.578-2.148.526-.016-.052.716-.342 2.057-.823 1.342-.474 3.297-1.124 5.741-1.83 4.879-1.443 11.706-3.138 19.331-4.59 7.624-1.435 14.598-2.347 19.666-2.748 2.533-.221 4.589-.308 6.01-.337 1.422-.021 2.207-.01 2.21.047M296.188 379.422c-.024.01-.154-.22-.377-.671l-.94-1.99c-.81-1.733-1.916-4.27-3.241-7.421-2.654-6.302-6.046-15.123-9.659-24.907-3.613-9.788-6.92-18.63-9.438-24.978l-3.006-7.511-.805-2.05c-.177-.47-.258-.723-.232-.736.024-.01.152.22.377.673l.94 1.988c.81 1.733 1.916 4.269 3.24 7.42 2.654 6.303 6.046 15.124 9.66 24.912 3.613 9.787 6.918 18.625 9.438 24.975l3.005 7.51.807 2.05c.175.47.255.724.23.736" transform="translate(79) translate(46 22.682)"/>
                <path fill="#E1E1E1" d="M369.293 355.86c.007.026-.243.13-.726.3-.571.19-1.273.426-2.123.711l-7.829 2.537c-6.609 2.143-15.704 5.21-25.75 8.61-10.048 3.403-19.18 6.387-25.837 8.394-3.328 1.005-6.028 1.791-7.905 2.295-.868.228-1.583.415-2.165.57-.497.12-.764.171-.77.145-.007-.027.244-.129.725-.3.57-.192 1.273-.426 2.123-.71 1.961-.637 4.608-1.494 7.827-2.538 6.611-2.143 15.707-5.209 25.755-8.612 10.045-3.4 19.177-6.385 25.833-8.392 3.327-1.006 6.029-1.79 7.906-2.296l2.165-.568c.499-.123.762-.172.771-.146M4.444 55.548l.111 2.152s11.425-4.801 18.276-1.29c.237.437.675.725 1.17.77l2.837.256c.613.04 1.19-.302 1.448-.86 0 0 6.762-3.202 13.747.484l2.648 1.203-5.185-27.272-32.66-6.265-2.392 30.822z" transform="translate(79) translate(46 22.682)"/>
                <path fill="#ECECEC" d="M2.61 52.526l.106 3.875s11.316-6.76 22.654.217l-2.884-18.587S3.473 48.591 2.61 52.526" transform="translate(79) translate(46 22.682)"/>
                <path fill="#F5F5F5" d="M.474 24.524S14.05 14.088 24.31 28.663l1.06 27.955S12.963 44.017 1.348 53.36L.474 24.524z" transform="translate(79) translate(46 22.682)"/>
                <path fill="#ECECEC" d="M25.37 56.618s11.705-7.46 20.158.446l-2.44-25.527-18.74-1.91 1.022 26.991z" transform="translate(79) translate(46 22.682)"/>
                <path fill="#F5F5F5" d="M24.295 28.685s4.044-9.037 12.618-8.162l5.49.746 2.936 25.653s-13.446-1.548-19.984 9.718l-1.06-27.955z" transform="translate(79) translate(46 22.682)"/>
                <path fill="#E1E1E1" d="M25.37 56.618c-.03 0-.072-.388-.12-1.093l-.164-2.983-.429-9.846-.425-9.845-.13-2.984c-.027-.705-.026-1.096.005-1.099.032-.003.091.384.172 1.086.084.701.173 1.72.275 2.977.198 2.516.4 5.998.56 9.846.16 3.847.255 7.331.295 9.855.02 1.261.025 2.282.02 2.988-.008.706-.027 1.097-.059 1.098M39.482 25.502c-.014.082-.875-.079-2.267-.056-1.388.018-3.313.303-5.27 1.123-1.95.83-3.496 2.013-4.476 2.996-.987.982-1.472 1.711-1.54 1.665-.026-.017.075-.21.283-.55.2-.344.549-.806 1.024-1.338.943-1.066 2.515-2.336 4.533-3.194 2.02-.849 4.026-1.09 5.448-1.024.712.03 1.286.102 1.673.198.388.087.598.15.592.18M40.198 28.41c-.014.08-.875-.08-2.267-.056-1.39.017-3.313.302-5.27 1.123-1.951.83-3.496 2.013-4.476 2.996-.987.982-1.472 1.71-1.54 1.665-.027-.018.075-.211.283-.551.2-.344.549-.805 1.024-1.337.943-1.066 2.515-2.336 4.533-3.194 2.02-.85 4.026-1.091 5.448-1.024.712.029 1.286.102 1.673.197.388.087.598.15.592.18M40.37 31.583c-.013.081-.874-.079-2.266-.056-1.39.017-3.313.302-5.27 1.123-1.95.83-3.496 2.013-4.476 2.996-.987.982-1.472 1.711-1.54 1.665-.026-.018.075-.211.283-.551.2-.344.549-.806 1.024-1.337.943-1.066 2.515-2.336 4.533-3.194 2.02-.849 4.026-1.091 5.448-1.025.712.03 1.286.103 1.673.198.388.087.598.15.592.181M40.975 34.529c-.015.08-.875-.08-2.268-.056-1.388.018-3.313.302-5.268 1.123-1.952.83-3.497 2.013-4.477 2.996-.987.982-1.472 1.71-1.54 1.665-.027-.017.075-.211.283-.55.2-.344.549-.806 1.023-1.338.944-1.066 2.516-2.336 4.534-3.194 2.02-.85 4.026-1.091 5.448-1.024.712.029 1.286.102 1.673.197.388.088.598.15.592.18M41.667 37.634c-.015.08-.875-.08-2.267-.056-1.389.018-3.314.302-5.269 1.123-1.952.83-3.497 2.013-4.477 2.996-.987.982-1.472 1.71-1.54 1.665-.027-.017.075-.211.283-.55.201-.344.549-.806 1.023-1.338.944-1.066 2.515-2.336 4.534-3.194 2.021-.85 4.026-1.09 5.448-1.024.712.029 1.286.102 1.673.197.388.088.598.15.592.18M42.57 41.11c-.015.082-.95-.096-2.464-.042-.758.006-1.654.131-2.638.3-.98.205-2.043.49-3.123.897-1.075.422-2.058.916-2.917 1.428-.838.54-1.578 1.06-2.127 1.58-1.127 1.008-1.647 1.81-1.717 1.761-.027-.018.088-.225.32-.59.11-.189.27-.399.472-.633.192-.242.419-.51.704-.774.536-.564 1.275-1.126 2.125-1.7.869-.547 1.874-1.066 2.977-1.498 1.107-.419 2.203-.698 3.21-.885 1.013-.15 1.935-.243 2.71-.209.388-.006.738.028 1.043.063.306.027.568.063.779.116.423.09.652.155.646.186M42.705 43.895c-.015.083-.955-.1-2.473-.018-.76.021-1.656.17-2.638.368-.977.235-2.033.562-3.105 1.004-1.065.46-2.034.99-2.884 1.526-.826.568-1.558 1.107-2.102 1.636-1.117 1.033-1.641 1.834-1.711 1.786-.026-.017.088-.226.32-.594.11-.189.27-.4.469-.638.19-.244.416-.515.697-.785.53-.574 1.258-1.154 2.094-1.755.858-.57 1.848-1.125 2.939-1.596 1.099-.456 2.188-.778 3.194-.995 1.013-.18 1.937-.299 2.718-.28.389-.013.74.015 1.048.048.309.023.572.056.784.109.426.09.656.153.65.184M21.425 49.429c-.063.05-.648-.746-1.851-1.751-1.188-1.003-3.071-2.166-5.392-2.701-2.322-.534-4.524-.311-6.031.072-1.52.378-2.395.839-2.43.766-.013-.026.19-.168.586-.376.395-.208.99-.468 1.759-.701 1.523-.474 3.805-.761 6.218-.205 2.413.555 4.34 1.81 5.503 2.902.588.546 1.012 1.04 1.275 1.4.265.36.386.577.363.594M21.204 45.839c-.063.05-.648-.747-1.85-1.751-1.189-1.003-3.072-2.166-5.393-2.701-2.32-.534-4.524-.311-6.03.072-1.52.378-2.396.838-2.43.766-.014-.026.19-.168.585-.376.395-.21.991-.468 1.76-.701 1.522-.474 3.804-.761 6.218-.205 2.412.555 4.34 1.81 5.502 2.902.59.546 1.012 1.039 1.276 1.4.264.36.385.577.362.594M20.983 42.248c-.063.05-.648-.745-1.85-1.75-1.189-1.003-3.07-2.166-5.393-2.701-2.32-.534-4.523-.311-6.03.072-1.52.377-2.396.839-2.43.766-.013-.026.19-.168.585-.375.395-.21.992-.47 1.76-.703 1.522-.474 3.804-.76 6.218-.205 2.412.556 4.34 1.812 5.502 2.903.59.545 1.012 1.04 1.276 1.4.264.36.385.576.362.593M20.763 38.659c-.063.05-.648-.747-1.85-1.751-1.189-1.003-3.072-2.166-5.393-2.701-2.322-.534-4.524-.311-6.03.072-1.522.378-2.396.838-2.43.766-.014-.026.19-.168.585-.376.395-.21.991-.468 1.76-.701 1.522-.474 3.804-.761 6.217-.205 2.413.555 4.34 1.81 5.503 2.902.588.546 1.012 1.039 1.275 1.4.265.36.386.577.363.594M20.543 35.068c-.063.051-.648-.746-1.851-1.75-1.189-1.004-3.072-2.167-5.393-2.702-2.32-.534-4.524-.31-6.03.072-1.52.378-2.396.84-2.43.766-.014-.026.19-.167.585-.375.395-.209.991-.469 1.76-.702 1.522-.474 3.804-.76 6.218-.205 2.413.555 4.34 1.811 5.502 2.902.59.546 1.012 1.04 1.276 1.4.265.361.386.577.363.594M20.322 31.479c-.063.05-.648-.746-1.85-1.752-1.19-1.003-3.071-2.166-5.393-2.7-2.321-.535-4.524-.312-6.031.072-1.52.378-2.395.837-2.43.765-.013-.026.19-.168.586-.376.395-.207.99-.468 1.759-.7 1.523-.474 3.805-.762 6.219-.206 2.412.555 4.34 1.811 5.502 2.902.589.546 1.012 1.04 1.276 1.4.264.36.385.578.362.595M340.557 40.85l.062 2.524s-13.777-4.593-21.47.121c-.238.53-.725.907-1.298 1.002l-3.293.552c-.714.102-1.417-.246-1.77-.876 0 0-8.184-3.139-16.02 1.79l-2.986 1.641 3.63-32.328L335.02 5.047l5.537 35.803z" transform="translate(79) translate(46 22.682)"/>
                <path fill="#ECECEC" d="M342.43 37.156l.223 4.536s-13.825-6.89-26.452 2.271l1.714-21.975s23.159 10.647 24.515 15.168" transform="translate(79) translate(46 22.682)"/>
                <path fill="#F5F5F5" d="M342.435 4.245S325.643-6.74 314.95 11.203l1.25 32.76s13.376-15.829 27.78-5.945l-1.546-33.773z" transform="translate(79) translate(46 22.682)"/>
                <path fill="#ECECEC" d="M316.2 43.963s-14.342-7.676-23.516 2.315l.58-30.045 21.73-3.9 1.206 31.63z" transform="translate(79) translate(46 22.682)"/>
                <path fill="#F5F5F5" d="M314.97 11.227s-6.161-8.34-17.478-7.248l-7.498 1.069-1.5 30.225s19.084-3.868 27.727 8.714l-1.251-32.76z" transform="translate(79) translate(46 22.682)"/>
                <path fill="#E1E1E1" d="M316.2 43.963c.037-.002.05-.46.043-1.288l-.073-3.5-.376-11.543-.38-11.543-.113-3.498c-.032-.826-.068-1.283-.104-1.283-.037 0-.072.456-.104 1.283-.037.828-.05 2.025-.057 3.504-.007 2.958.068 7.044.224 11.555.153 4.51.353 8.59.532 11.541.09 1.476.173 2.67.243 3.494.07.825.128 1.28.165 1.278M296.94 8.86c.024.095 1.017-.17 2.646-.266 1.623-.103 3.897.058 6.255.843 2.354.797 4.265 2.04 5.498 3.103 1.24 1.059 1.873 1.868 1.949 1.808.029-.023-.108-.24-.38-.618-.266-.384-.714-.893-1.317-1.472-1.197-1.161-3.146-2.505-5.58-3.328-2.437-.812-4.802-.917-6.459-.713-.829.099-1.493.234-1.936.38-.446.137-.685.229-.675.264M296.363 12.321c.023.094 1.016-.17 2.644-.267 1.624-.103 3.898.058 6.256.843 2.355.797 4.266 2.041 5.498 3.103 1.241 1.06 1.873 1.868 1.95 1.808.028-.023-.108-.24-.38-.618-.267-.384-.715-.893-1.317-1.472-1.197-1.162-3.146-2.505-5.58-3.328-2.438-.813-4.802-.917-6.459-.713-.829.1-1.494.234-1.936.38-.447.137-.686.228-.676.264M296.443 16.045c.024.094 1.016-.17 2.645-.267 1.624-.103 3.898.058 6.255.843 2.355.797 4.266 2.04 5.5 3.103 1.24 1.059 1.871 1.868 1.947 1.807.03-.022-.107-.24-.38-.617-.265-.384-.713-.893-1.316-1.472-1.197-1.162-3.146-2.505-5.58-3.328-2.438-.813-4.802-.917-6.459-.713-.829.098-1.493.234-1.936.38-.447.137-.686.228-.676.264M296 19.541c.024.094 1.016-.17 2.645-.267 1.624-.103 3.897.058 6.255.843 2.355.797 4.266 2.041 5.499 3.103 1.24 1.059 1.872 1.868 1.948 1.808.029-.023-.107-.24-.38-.618-.265-.384-.713-.893-1.316-1.472-1.197-1.162-3.146-2.505-5.581-3.328-2.437-.813-4.801-.917-6.458-.713-.829.099-1.493.234-1.936.38-.447.137-.686.228-.676.264M295.468 23.23c.023.095 1.016-.17 2.644-.266 1.624-.103 3.898.058 6.256.843 2.355.797 4.266 2.04 5.498 3.103 1.24 1.059 1.873 1.868 1.949 1.808.029-.023-.107-.24-.38-.618-.266-.384-.714-.893-1.316-1.472-1.197-1.162-3.146-2.505-5.581-3.328-2.437-.813-4.801-.917-6.458-.713-.83.099-1.494.234-1.936.38-.447.137-.686.228-.676.264M294.722 27.373c.024.095 1.102-.196 2.876-.268.886-.06 1.944.005 3.109.116 1.162.152 2.43.39 3.729.77 1.293.398 2.486.887 3.535 1.407 1.027.558 1.939 1.1 2.626 1.657 1.407 1.08 2.086 1.97 2.164 1.907.029-.024-.123-.256-.428-.663-.145-.21-.351-.441-.606-.697-.246-.265-.536-.558-.892-.84-.676-.613-1.591-1.203-2.634-1.8-1.065-.56-2.286-1.076-3.613-1.483-1.331-.392-2.636-.62-3.83-.748-1.197-.087-2.282-.113-3.185-.004-.454.029-.86.099-1.212.168-.356.058-.66.123-.901.204-.486.143-.748.238-.738.274M294.813 30.64c.024.095 1.106-.202 2.887-.24.89-.045 1.95.05 3.117.194 1.161.187 2.424.474 3.716.896 1.285.442 2.466.976 3.506 1.527 1.016.59 1.92 1.154 2.601 1.725 1.399 1.107 2.082 1.997 2.16 1.934.03-.022-.125-.257-.428-.665-.147-.21-.351-.445-.605-.704-.245-.268-.531-.564-.883-.855-.67-.624-1.574-1.236-2.603-1.864-1.053-.59-2.26-1.152-3.577-1.605-1.326-.433-2.625-.713-3.822-.878-1.2-.12-2.29-.177-3.2-.084-.456.02-.864.082-1.22.148-.358.054-.663.117-.906.198-.49.142-.753.236-.743.272M320.17 35.211c.079.053.69-.93 2.007-2.21 1.3-1.279 3.396-2.806 6.06-3.637 2.666-.83 5.259-.766 7.054-.453 1.81.307 2.873.767 2.907.68.014-.032-.236-.18-.717-.388-.48-.209-1.2-.458-2.118-.663-1.822-.418-4.514-.55-7.285.314-2.77.863-4.91 2.502-6.171 3.881-.64.69-1.09 1.305-1.366 1.75-.277.444-.4.708-.37.726M320.108 30.997c.078.053.691-.93 2.007-2.21 1.3-1.28 3.395-2.805 6.06-3.637 2.665-.83 5.258-.766 7.054-.452 1.811.306 2.873.766 2.907.678.013-.031-.237-.18-.717-.386-.48-.21-1.2-.46-2.119-.664-1.82-.418-4.513-.55-7.284.314-2.77.863-4.91 2.503-6.172 3.88-.638.692-1.089 1.306-1.365 1.75-.277.445-.399.709-.37.727M320.047 26.782c.078.054.69-.93 2.006-2.21 1.3-1.28 3.396-2.805 6.06-3.636 2.666-.831 5.259-.767 7.055-.453 1.81.306 2.873.766 2.906.678.014-.031-.236-.178-.716-.386-.481-.21-1.201-.46-2.12-.664-1.82-.417-4.513-.55-7.284.314-2.77.864-4.91 2.503-6.171 3.882-.638.69-1.09 1.305-1.366 1.749-.277.445-.398.708-.37.726M319.985 22.567c.078.053.69-.93 2.006-2.21 1.3-1.279 3.395-2.805 6.06-3.637 2.666-.83 5.258-.766 7.054-.453 1.811.307 2.873.767 2.907.68.013-.032-.236-.18-.717-.388-.48-.208-1.2-.458-2.118-.663-1.822-.418-4.514-.55-7.285.314-2.769.863-4.91 2.503-6.172 3.881-.638.691-1.089 1.305-1.365 1.75-.277.444-.399.708-.37.726M319.923 18.352c.078.055.69-.928 2.007-2.21 1.299-1.278 3.395-2.804 6.06-3.635 2.665-.832 5.258-.768 7.054-.454 1.81.306 2.873.766 2.907.678.013-.03-.237-.178-.717-.386-.481-.209-1.201-.459-2.12-.664-1.82-.417-4.512-.55-7.284.315-2.77.864-4.91 2.502-6.171 3.881-.638.69-1.09 1.306-1.365 1.75-.277.444-.4.707-.371.726M319.861 14.138c.078.053.69-.93 2.006-2.21 1.3-1.279 3.396-2.806 6.06-3.637 2.666-.83 5.26-.766 7.055-.453 1.81.307 2.873.767 2.906.68.014-.032-.236-.18-.716-.388-.48-.209-1.2-.458-2.119-.663-1.82-.418-4.514-.55-7.285.314-2.769.863-4.91 2.502-6.17 3.881-.639.69-1.09 1.305-1.366 1.75-.278.444-.399.708-.37.726" transform="translate(79) translate(46 22.682)"/>
            </g>
            <g transform="translate(79) translate(1 422.682)">
                <mask id="prefix__e" fill="#fff">
                    <use xlink:href="#prefix__d"/>
                </mask>
                <path fill="#1A2E35" d="M416.344.74c0 .144-93.17.26-208.075.26C93.324 1 .174.884.174.74c0-.145 93.15-.26 208.095-.26 114.905 0 208.075.115 208.075.26" mask="url(#prefix__e)"/>
            </g>
            <path fill="#F5F5F5" d="M295.172 292.678L339.014 292.678 339.014 240.557 295.172 240.557z" transform="translate(79)"/>
            <path fill="#F36" d="M98.552 295.955L296.683 295.955 296.683 237.159 98.552 237.159z" transform="translate(79)"/>
            <g>
                <path fill="#FF4F5B" d="M254.342 5.422H205.37V.478h48.97c1.366 0 2.474 1.107 2.474 2.472 0 1.366-1.108 2.472-2.473 2.472M254.342 59.273H205.37V54.33h48.97c1.366 0 2.474 1.107 2.474 2.472 0 1.366-1.108 2.472-2.473 2.472" transform="translate(79) translate(86 236.682)"/>
                <path fill="#000" d="M171.696 59.273L195.104 59.273 195.104.477 171.696.477zM30.131 59.273L53.54 59.273 53.54.477 30.131.477z" transform="translate(79) translate(86 236.682)"/>
                <path fill="#E1E1E1" d="M253.014 12.496c0 .145-9.49.261-21.191.261-11.706 0-21.193-.116-21.193-.26 0-.145 9.487-.26 21.193-.26 11.702 0 21.19.115 21.19.26M253.014 20.313c0 .143-9.49.26-21.191.26-11.706 0-21.193-.117-21.193-.26 0-.145 9.487-.261 21.193-.261 11.702 0 21.19.116 21.19.26M253.014 29.936c0 .143-9.49.26-21.191.26-11.706 0-21.193-.117-21.193-.26 0-.145 9.487-.26 21.193-.26 11.702 0 21.19.116 21.19.26M253.014 39.56c0 .143-9.49.26-21.191.26-11.706 0-21.193-.117-21.193-.26 0-.145 9.487-.262 21.193-.262 11.702 0 21.19.117 21.19.261M253.014 49.183c0 .144-9.49.26-21.191.26-11.706 0-21.193-.116-21.193-.26 0-.144 9.487-.26 21.193-.26 11.702 0 21.19.116 21.19.26" transform="translate(79) translate(86 236.682)"/>
                <path fill="#000" d="M69.975 35.229L159.111 35.229 159.111 24.642 69.975 24.642z" transform="translate(79) translate(86 236.682)"/>
                <path fill="#FAFAFA" d="M208.053 92.184L252.568 92.184 252.568 60.426 208.053 60.426z" transform="translate(79) translate(86 236.682)"/>
                <path fill="#375A64" d="M19.113 93.336L208.552 93.336 208.552 59.273 19.113 59.273z" transform="translate(79) translate(86 236.682)"/>
                <path fill="#375A64" d="M207.175 61.578h47.845c.636 0 1.152-.516 1.152-1.152 0-.636-.516-1.153-1.152-1.153h-47.845v2.305zM207.175 93.336h47.845c.636 0 1.152-.516 1.152-1.152 0-.637-.516-1.153-1.152-1.153h-47.845v2.305z" transform="translate(79) translate(86 236.682)"/>
                <path fill="#E1E1E1" d="M252.568 66.459c0 .144-9.854.26-22.008.26-12.156 0-22.009-.116-22.009-.26 0-.144 9.853-.26 22.01-.26 12.153 0 22.007.116 22.007.26M252.568 72.467c0 .145-9.854.26-22.008.26-12.156 0-22.009-.115-22.009-.26 0-.144 9.853-.26 22.01-.26 12.153 0 22.007.116 22.007.26M252.568 78.475c0 .145-9.854.262-22.008.262-12.156 0-22.009-.117-22.009-.261 0-.144 9.853-.261 22.01-.261 12.153 0 22.007.117 22.007.26M252.568 84.483c0 .145-9.854.261-22.008.261-12.156 0-22.009-.116-22.009-.26 0-.145 9.853-.26 22.01-.26 12.153 0 22.007.115 22.007.26" transform="translate(79) translate(86 236.682)"/>
                <path fill="#1A2E35" d="M48.637 80.361L179.274 80.361 179.274 71.467 48.637 71.467z" transform="translate(79) translate(86 236.682)"/>
                <path fill="#ECECEC" d="M213.884 182.453L259.32 182.453 259.32 96.363 213.884 96.363z" transform="translate(79) translate(86 236.682)"/>
                <path fill="#F36" d="M0.612 186.681L213.885 186.681 213.885 93.336 0.612 93.336z" transform="translate(79) translate(86 236.682)"/>
                <path fill="#FF4F5B" d="M262.876 186.68h-54.822v-6.053h54.822c1.672 0 3.027 1.356 3.027 3.027 0 1.672-1.355 3.027-3.027 3.027M262.876 99.39h-54.822v-6.054h54.822c1.672 0 3.027 1.356 3.027 3.028 0 1.67-1.355 3.026-3.027 3.026" transform="translate(79) translate(86 236.682)"/>
                <path fill="#FFF" d="M168.008 93.336L123.152 186.681 161.048 186.681 203.584 93.336zM97.246 93.336L52.39 186.681 90.286 186.681 132.821 93.336z" transform="translate(79) translate(86 236.682)"/>
                <path fill="#E1E1E1" d="M259.32 107.903c0 .144-10.172.261-22.717.261-12.549 0-22.719-.117-22.719-.26 0-.145 10.17-.26 22.72-.26 12.544 0 22.716.115 22.716.26M259.32 118.945c0 .144-10.172.26-22.717.26-12.549 0-22.719-.116-22.719-.26 0-.145 10.17-.26 22.72-.26 12.544 0 22.716.115 22.716.26M259.32 129.986c0 .145-10.172.261-22.717.261-12.549 0-22.719-.116-22.719-.26 0-.145 10.17-.26 22.72-.26 12.544 0 22.716.115 22.716.26M259.32 141.028c0 .144-10.172.261-22.717.261-12.549 0-22.719-.117-22.719-.26 0-.145 10.17-.262 22.72-.262 12.544 0 22.716.117 22.716.261M259.32 152.07c0 .144-10.172.26-22.717.26-12.549 0-22.719-.116-22.719-.26 0-.145 10.17-.26 22.72-.26 12.544 0 22.716.115 22.716.26M259.32 163.111c0 .144-10.172.261-22.717.261-12.549 0-22.719-.117-22.719-.26 0-.145 10.17-.262 22.72-.262 12.544 0 22.716.117 22.716.261M259.32 174.153c0 .144-10.172.26-22.717.26-12.549 0-22.719-.116-22.719-.26 0-.145 10.17-.26 22.72-.26 12.544 0 22.716.115 22.716.26" transform="translate(79) translate(86 236.682)"/>
            </g>
            <g>
                <path fill="#FF4F5B" d="M171.283 52.55l-13.927-22.337c-.31-.499-1.042-.487-1.337.022l-13.657 23.613 28.921-1.299z" transform="translate(79) translate(147 26.682)"/>
                <path fill="#000" d="M171.283 52.55l-13.927-22.337c-.31-.499-1.042-.487-1.337.022l-13.657 23.613 28.921-1.299z" transform="translate(79) translate(147 26.682)"/>
                <path fill="#ECECEC" d="M157.357 31.273L170.374 52.462 167.061 51.941 145.815 48.596 153.726 31.929z" transform="translate(79) translate(147 26.682)"/>
                <path fill="#F36" d="M158.75 72.934l12.533-20.384-32.455-5.97c-1.056-.194-2.12.291-2.666 1.215l-18.299 31.007c-.563.954-.001 2.177 1.091 2.371l30.495 5.412 9.301-13.65z" transform="translate(79) translate(147 26.682)"/>
                <path fill="#ECECEC" d="M150.095 32.553L168.097 52.048 141.949 47.151z" transform="translate(79) translate(147 26.682)"/>
                <path fill="#1A2E35" d="M141.95 47.15c-.012-.005.028-.102.117-.284l.406-.797 1.6-2.994 5.825-10.631.15-.271.211.228 11.743 12.663 6.278 6.814-.388.315c-4.103-5.81-7.658-10.84-10.227-14.477l-2.933-4.231c-.31-.465-.565-.843-.765-1.144-.17-.262-.254-.403-.242-.412.012-.008.12.116.312.362.22.287.494.649.834 1.096l3.052 4.146 10.378 14.369-.388.316-6.294-6.8c-4.282-4.658-8.29-9.017-11.69-12.713l.361-.043-5.988 10.54c-.713 1.225-1.286 2.207-1.708 2.934l-.465.764c-.109.17-.17.257-.18.25" transform="translate(79) translate(147 26.682)"/>
                <path fill="#FFF" d="M142.308 55.626c-.28.424-10.921 18.158-10.921 18.158l17.344 3.237 11.507-18.388-17.93-3.007z" transform="translate(79) translate(147 26.682)"/>
                <path fill="#375A64" d="M11.826 358.083l9.535-12.448.494-.647 16.242 12.079-15.04 16.522.55 16.722c8.377 2.167 9.635 6.352 9.635 6.352l-17.413-.019L.016 366.181l11.81-8.098z" transform="translate(79) translate(147 26.682)"/>
                <path fill="#ECECEC" d="M.017 366.18l15.813 30.464 17.412.019c-.397-.963-1.062-1.833-1.96-2.62l-14.158-.793-14.595-28.792-2.512 1.723z" transform="translate(79) translate(147 26.682)"/>
                <path fill="#1A2E35" d="M23.5 382.65c-.128.177-1.131-.395-2.479-.357-1.348 0-2.335.596-2.469.422-.163-.13.819-1.174 2.46-1.188 1.639-.03 2.648.986 2.488 1.122M23.223 378.502c-.175.123-.95-.905-2.337-1.177-1.387-.286-2.498.364-2.612.183-.06-.08.142-.37.63-.637.48-.265 1.274-.47 2.132-.297.858.173 1.51.667 1.85 1.097.35.435.422.78.337.83M23.34 373.176c-.192.096-.785-.911-1.998-1.331-1.208-.437-2.3-.026-2.389-.221-.047-.087.174-.33.657-.511.473-.18 1.225-.26 1.988.01.762.27 1.297.805 1.551 1.242.262.444.281.772.19.81M28.003 369.049c-.207.072-.697-.918-1.777-1.618-1.06-.733-2.162-.806-2.174-1.025-.06-.202 1.29-.497 2.6.388 1.317.872 1.56 2.232 1.35 2.255M30.276 365.475c-.088.059-.663-.643-1.52-1.823-.482-.69-.97-1.383-1.47-2.094-.251-.408-.602-.764-.806-1.407-.091-.325-.084-.71.107-1.06.178-.368.668-.601 1.05-.548.76.112 1.184.503 1.626.845.426.368.776.783 1.056 1.21.56.859.824 1.758.913 2.514.169 1.54-.336 2.417-.396 2.377-.135-.03.15-.92-.14-2.291-.145-.677-.434-1.465-.96-2.203-.264-.367-.581-.721-.955-1.032-.366-.297-.844-.623-1.201-.656-.172-.006-.255.038-.33.158-.072.128-.094.317-.045.493.093.37.428.802.672 1.213l1.333 2.184c.74 1.257 1.154 2.062 1.066 2.12" transform="translate(79) translate(147 26.682)"/>
                <path fill="#1A2E35" d="M30.898 365.993c-.081-.006-.015-.92.93-1.968.917-.989 2.929-2.047 5.16-.928.16.136.285.384.27.623-.009.241-.111.42-.21.551-.206.271-.434.405-.625.547-.404.283-.82.516-1.23.703-.822.376-1.62.565-2.29.64-1.354.144-2.17-.119-2.152-.204.01-.122.825-.062 2.064-.33.616-.137 1.337-.363 2.072-.74.367-.189.74-.414 1.1-.678.182-.139.366-.268.45-.392.086-.153.064-.109.035-.154-.056-.066-.29-.138-.505-.188-.215-.05-.43-.086-.645-.1-.43-.033-.85.003-1.238.088-.782.167-1.416.55-1.88.951-.93.824-1.19 1.628-1.306 1.58" transform="translate(79) translate(147 26.682)"/>
                <path fill="#ECECEC" d="M13.907 365.661c0 1.141-.925 2.065-2.066 2.065-1.141 0-2.065-.924-2.065-2.065 0-1.14.924-2.065 2.065-2.065 1.14 0 2.066.924 2.066 2.065" transform="translate(79) translate(147 26.682)"/>
                <path fill="#000" d="M36.584 358.729L33.242 362.401 19.183 348.477 21.137 345.926z" transform="translate(79) translate(147 26.682)"/>
                <path fill="#375A64" d="M79.976 364.41l-1.78 21.171s20.92 7.138 20.973 11.082l-41.172-.195 1.42-33.1 20.559 1.042z" transform="translate(79) translate(147 26.682)"/>
                <path fill="#ECECEC" d="M65.55 383.185c-.807.18-1.4 1.05-1.254 1.863.146.815 1.025 1.425 1.835 1.26.81-.166 1.555-1.186 1.318-1.978-.236-.793-1.307-1.455-2.054-1.1M57.997 396.468l.142-3.301 38.977.937s2.074 1.654 2.052 2.559l-41.17-.195z" transform="translate(79) translate(147 26.682)"/>
                <path fill="#1A2E35" d="M78.873 385.403c-.017.201-1.026.243-2.046.843-1.036.572-1.588 1.418-1.768 1.33-.184-.048.173-1.236 1.421-1.94 1.242-.713 2.446-.416 2.393-.233M83.106 387.397c.037.197-.852.497-1.575 1.315-.747.796-.964 1.707-1.163 1.689-.19.022-.273-1.163.645-2.161.91-1.007 2.097-1.035 2.093-.844M85.31 392.683c-.185.034-.416-.983.153-2.06.562-1.081 1.53-1.47 1.608-1.297.105.17-.533.732-.988 1.623-.473.88-.572 1.724-.772 1.734M78.743 380.534c-.093.18-1.002-.143-2.142-.12-1.14 0-2.043.338-2.139.161-.11-.15.79-.854 2.133-.862 1.342-.018 2.254.668 2.148.821M79.023 376.256c-.001.083-.801.17-2.061-.11-.627-.14-1.362-.381-2.126-.766-.38-.192-.77-.42-1.153-.685-.184-.131-.403-.264-.6-.514-.212-.221-.314-.76-.04-1.074.225-.307.605-.425.902-.418.305.004.548.078.769.144.454.133.876.306 1.26.5.77.397 1.388.88 1.843 1.34.912.93 1.202 1.698 1.132 1.733-.096.062-.53-.59-1.466-1.367-.469-.386-1.069-.791-1.79-1.124-.36-.164-.751-.31-1.166-.422-.431-.135-.802-.156-.922.033-.046.072-.052.1.033.233.09.122.26.246.441.376.353.255.71.478 1.06.675.7.39 1.376.667 1.956.859 1.163.386 1.938.479 1.928.587" transform="translate(79) translate(147 26.682)"/>
                <path fill="#1A2E35" d="M78.748 376.531c-.073.028-.437-.712-.448-2.018-.003-.647.101-1.426.39-2.244.146-.406.338-.822.584-1.226.261-.395.582-.926 1.366-.978.408.004.731.34.834.616.123.286.138.526.175.767.053.484.021.955-.065 1.39-.172.87-.565 1.581-.983 2.087-.856 1.028-1.707 1.227-1.72 1.16-.063-.106.657-.46 1.322-1.456.327-.49.63-1.144.745-1.906.06-.379.072-.784.02-1.193-.044-.44-.19-.802-.357-.765-.205-.013-.568.3-.754.641-.229.358-.415.73-.564 1.093-.294.731-.44 1.438-.498 2.038-.115 1.206.064 1.97-.047 1.994" transform="translate(79) translate(147 26.682)"/>
                <path fill="#FFD0B6" d="M163.476 79.595c.396-1.19.349-2.48-.141-3.637-1.708-4.039-5.707-13.009-7.15-12.747-1.281.234-2.228 2.673-.768 5.358l-4.707-4.01c-.958-.818-2.435-.004-2.226 1.238.085.505.263 1.088.577 1.757 1.46 3.102 5.522 6.036 5.522 6.036l-8.2.05s-1.528 2.138 1.278 3.577c.632.324 1.333.495 2.04.566l4.24.43s-7.662 8.466-7.92 9.257c-.582 1.784-.681 3.896-.681 3.896l-14.703 16.36 3.934 24.855 26.56-45.957 2.345-7.029z" transform="translate(79) translate(147 26.682)"/>
                <path fill="#BF654E" d="M161.342 75.853c-.07.046-.34-.343-.922-.78-.575-.44-1.497-.888-2.593-1.084-1.1-.196-2.137-.165-2.89-.159-.752.011-1.226 0-1.233-.073-.007-.07.45-.188 1.207-.294.753-.1 1.827-.194 3.009.014 1.185.209 2.178.76 2.738 1.316.574.555.737 1.034.684 1.06M161.475 73.295c-.09.113-1.583-.915-3.338-2.295-1.754-1.382-3.103-2.593-3.015-2.705.089-.114 1.583.914 3.337 2.295 1.754 1.38 3.105 2.592 3.016 2.705" transform="translate(79) translate(147 26.682)"/>
                <path fill="#1A2E35" d="M88.97 195.882c.222.028.984 48.957 1.317 71.069.105 6.95-1.686 13.797-5.18 19.806L37.26 370.825 9.776 347.947l44.448-75.114-16.364-79.178 32.402-27.862 18.709 30.089z" transform="translate(79) translate(147 26.682)"/>
                <path fill="#1A2E35" d="M112.224 185.87c-.145 2.821-25.992 184.543-25.992 184.543l-32.008-2.286L65.962 184.74l46.262 1.13z" transform="translate(79) translate(147 26.682)"/>
                <path fill="#375A64" d="M85.423 198.625s.03.161.062.477c.033.337.077.803.132 1.402l.455 5.393c.372 4.711.905 11.486 1.563 19.848l2.175 29.448.564 8.519c.074 1.45.204 2.925.155 4.424-.038 1.495-.183 3.003-.436 4.505-.5 3.005-1.445 5.989-2.778 8.837-.66 1.431-1.458 2.797-2.224 4.178l-2.33 4.174C70.237 312.212 58.9 332.471 50.68 347.157l-9.774 17.344-2.68 4.702-.71 1.217c-.161.272-.256.405-.256.405s.064-.15.21-.431l.664-1.242 2.595-4.75 9.63-17.423c8.185-14.707 19.474-34.992 31.948-57.402.78-1.4 1.557-2.791 2.33-4.174.769-1.387 1.56-2.739 2.208-4.145 1.316-2.807 2.249-5.743 2.745-8.702.25-1.479.395-2.962.435-4.433.05-1.47-.076-2.931-.147-4.383-.186-2.901-.37-5.742-.547-8.513l-2.063-29.455-1.398-19.859-.357-5.401-.08-1.407c-.016-.316-.01-.48-.01-.48" transform="translate(79) translate(147 26.682)"/>
                <path fill="#375A64" d="M63.546 284.558c-.01.034-.238-.004-.648-.105-.413-.092-.991-.302-1.675-.625-1.37-.64-3.121-1.897-4.521-3.76-1.392-1.87-2.104-3.905-2.33-5.4-.116-.747-.154-1.36-.125-1.782.018-.422.046-.652.082-.652.094 0 .087.928.405 2.364.31 1.434 1.047 3.359 2.385 5.158 1.347 1.79 2.987 3.04 4.274 3.744 1.287.71 2.18.967 2.153 1.058" transform="translate(79) translate(147 26.682)"/>
                <path fill="#375A64" d="M67.167 279.094c.002.054-.89.168-2.326-.012-1.431-.174-3.393-.722-5.31-1.841-1.911-1.126-3.35-2.57-4.2-3.733-.859-1.165-1.196-2-1.148-2.023.078-.044.526.718 1.435 1.794.904 1.077 2.328 2.424 4.176 3.513 1.853 1.08 3.726 1.664 5.106 1.927 1.382.267 2.267.285 2.267.375M44.61 201.247c.037-.033.222.288.773.532.541.247 1.467.325 2.434-.17.961-.479 1.995-1.348 3.153-2.246 1.147-.919 2.375-1.972 3.61-3.136 2.474-2.324 4.478-4.664 5.867-6.403 1.38-1.748 2.17-2.883 2.237-2.838.03.02-.135.325-.459.862-.327.534-.83 1.29-1.485 2.199-1.323 1.808-3.304 4.212-5.804 6.559-1.246 1.175-2.495 2.228-3.67 3.134-1.188.886-2.23 1.723-3.295 2.204-1.068.494-2.123.35-2.678.018-.578-.333-.706-.713-.684-.715M62.429 199.768c.056.028-.368 1.131-1.265 2.822-.901 1.672-2.317 3.99-4.605 5.892-2.3 1.898-5.022 2.686-6.96 2.659-.971-.005-1.75-.154-2.262-.325-.513-.165-.777-.308-.766-.334.026-.105 1.144.38 3.02.29 1.855-.065 4.43-.873 6.637-2.692 2.204-1.83 3.642-4.06 4.616-5.672.969-1.626 1.512-2.674 1.585-2.64" transform="translate(79) translate(147 26.682)"/>
                <path fill="#F36" d="M112.224 185.87s-24.706 11.533-33.563 7.563c-8.857-3.97-14.66-13.132-21.073-10.995-6.414 2.138-16.187 3.971-19.547 13.133 0 0-2.13-1.916-2.13-5.748 0-3.56 2.998-8.39 2.998-8.39l-4.016-41.265.167-69.374s6.879-10.25 25.509-9.639l25.727 3.7s13.133 3.97 16.798 10.688c3.665 6.72 2.135 54.483 2.135 54.483s8.146 46.356 8.146 49.976c0 3.621-1.151 5.867-1.151 5.867" transform="translate(79) translate(147 26.682)"/>
                <path fill="#F36" d="M126.84 107.01l-10.613 9.459-13.133-40.925-11.027 24.647 4.44 39.97c.713 6.409 5.359 11.688 11.627 13.208 4.879 1.183 10.027-.098 13.784-3.427l11.206-9.577c1.602-1.368 2.377-3.471 2.047-5.552l-4.174-26.32c-.311-1.964-2.673-2.807-4.157-1.483" transform="translate(79) translate(147 26.682)"/>
                <path fill="#FFD0B6" d="M46.512 95.928c0 .916-4.931 45.59-4.931 45.59l20.893 45.196c-2.055 4.256-5.922 8.131-10.232 11.911 0 0-5.344-4.887-5.65-15.27 0 0-23.742-27.892-26.185-35.222-2.443-7.33 4.28-57.388 4.28-57.388l21.825 5.183z" transform="translate(79) translate(147 26.682)"/>
                <path fill="#1A2E35" d="M99.584 103.715c.03.019-.125.34-.433.907s-.768 1.378-1.346 2.375c-.599.987-1.219 2.202-2.14 3.463-.468.618-1.045 1.24-1.798 1.689-.747.454-1.639.715-2.555.75-1.846.076-3.532-.608-4.796-1.52-1.264-.926-2.153-2.025-2.827-2.967-.671-.948-1.134-1.763-1.45-2.326-.31-.566-.465-.89-.434-.908.078-.05.808 1.186 2.18 3.016.699.897 1.593 1.936 2.81 2.795 1.203.839 2.801 1.462 4.492 1.39.841-.032 1.644-.266 2.318-.667.68-.397 1.223-.962 1.68-1.545.9-1.185 1.57-2.404 2.205-3.361.618-.972 1.126-1.755 1.488-2.29.361-.533.576-.82.606-.801M114.973 140.776c-.033.012-.176-.311-.403-.908-.238-.594-.514-1.48-.793-2.59-.567-2.213-1.02-5.38-.847-8.881.183-3.502.954-6.607 1.74-8.753.392-1.075.756-1.928 1.052-2.494.287-.571.46-.878.493-.863.084.039-.51 1.318-1.195 3.474-.69 2.153-1.39 5.217-1.57 8.662-.17 3.445.217 6.564.685 8.775.464 2.215.926 3.548.838 3.578" transform="translate(79) translate(147 26.682)"/>
                <path fill="#1A2E35" d="M120.564 132.581c-.055.031-.598-.762-1.297-2.146-.7-1.382-1.523-3.374-2.138-5.665-.609-2.292-.886-4.429-.969-5.976-.084-1.549-.007-2.507.055-2.507.08-.001.135.951.313 2.475.173 1.523.505 3.616 1.104 5.874.605 2.256 1.361 4.236 1.968 5.644.608 1.408 1.034 2.262.964 2.301M98.89 112.093c.018-.007.097.145.233.44.133.298.31.746.5 1.336.362 1.178.792 2.963.657 5.2-.114 2.214-.92 4.93-2.934 7.156-.996 1.1-2.278 2.073-3.801 2.666-1.518.602-3.271.759-4.967.416-1.696-.34-3.265-1.17-4.387-2.375-1.135-1.205-1.751-2.711-2.111-4.138-.36-1.44-.491-2.833-.601-4.125l-.283-3.594-.373-5.205-.076-1.418c-.01-.324-.008-.496.01-.497.018-.002.05.166.095.488l.173 1.409.537 5.19.347 3.588c.128 1.284.276 2.657.636 4.045.36 1.377.958 2.794 2.017 3.908 1.048 1.116 2.519 1.893 4.118 2.214 1.6.323 3.25.179 4.682-.381 1.439-.554 2.667-1.47 3.63-2.514 1.946-2.115 2.763-4.707 2.92-6.86.179-2.172-.185-3.937-.482-5.117-.318-1.184-.581-1.815-.54-1.832" transform="translate(79) translate(147 26.682)"/>
                <path fill="#000" d="M48.278 156.005c.603-3.956.948-5.71 2.386-9.5 1.438-3.79 3.312-7.558 3.374-11.61.039-2.555-.65-5.057-1.334-7.517l-7.298-26.263-.822 20.371c-.068 1.658-.107 3.428.759 4.843 1.079 1.762 3.29 2.528 4.522 4.186.943 1.27 1.199 3.02.66 4.505-.537 1.486-1.87 1.87-3.406 2.24-1.036.25-1.065.261-2.117.428-1.053.167-2.557-.064-3.044.884-1.21 2.355.084 3.788.59 4.913 2.324 5.151 5.73 12.52 5.73 12.52" transform="translate(79) translate(147 26.682)"/>
                <path fill="#F36" d="M39.36 67.253s-21.53 10.89-24.534 68.965c-.207 4 3.378 7.145 7.313 6.399 8.833-1.676 22.207-4.274 22.125-4.633-.122-.535 5.016-51.116 5.016-51.116l-9.92-19.615z" transform="translate(79) translate(147 26.682)"/>
                <path fill="#1A2E35" d="M48.897 85.97c.017 0 .026.268.029.777 0 .51 0 1.26-.026 2.225-.044 1.933-.154 4.728-.389 8.176-.232 3.448-.579 7.55-1.056 12.093-.253 2.271-.52 4.654-.797 7.123-.15 1.233-.303 2.49-.456 3.763-.112 1.301-.54 2.572-.74 3.837-.093.631-.144 1.271-.006 1.853.127.57.463 1.125.866 1.561.82.9 2.041 1.378 2.99 2.285.979.911 1.419 2.185 1.635 3.378.102.608.137 1.227.053 1.841-.084.606-.298 1.231-.755 1.696-.459.477-1.158.595-1.666.678-.546.105-1.084.21-1.615.31-1.06.213-2.088.42-3.084.618l-5.532 1.14-8.008 1.662-1.259.254-.505.1-.056.01-.014.003-.005.001c.008.026-.055-.232-.027-.123h.006l.029-.007.107-.02.198-.038c.5-.093.764-.134.768-.117.003.018-.253.093-.745.22l-.195.05-.107.026-.027.007-.008.002c.023.111-.035-.149-.026-.123h.003l.014-.005.056-.014.5-.123c.37-.09.787-.19 1.248-.3 1.938-.444 4.648-1.064 7.977-1.824 1.692-.37 3.54-.772 5.52-1.203l3.082-.645 1.616-.322c.572-.1 1.056-.19 1.416-.557.7-.747.742-2.002.552-3.113-.213-1.132-.627-2.295-1.497-3.092-.846-.824-2.081-1.3-3.02-2.304-.46-.506-.828-1.093-.99-1.795-.163-.692-.1-1.385-.004-2.05.214-1.339.633-2.558.74-3.822l.465-3.759.826-7.113c.502-4.537.887-8.629 1.166-12.069.28-3.44.448-6.229.553-8.157l.123-2.22c.033-.508.059-.774.077-.774" transform="translate(79) translate(147 26.682)"/>
                <path fill="#1A2E35" d="M40.037 121.578c.035.01-.012.253-.127.691-.053.221-.13.487-.262.781-.126.296-.246.646-.455.994-.365.727-.925 1.526-1.638 2.333-.735.786-1.637 1.567-2.693 2.226-1.066.644-2.17 1.095-3.204 1.394-1.042.272-2.008.41-2.822.407-.405.028-.772-.023-1.092-.044-.322-.016-.595-.067-.815-.12-.443-.096-.68-.164-.674-.2.017-.099.995.102 2.565-.004.785-.043 1.71-.214 2.704-.5.988-.313 2.041-.759 3.066-1.376 1.014-.635 1.888-1.373 2.614-2.11.705-.759 1.275-1.506 1.668-2.186.806-1.353 1.07-2.316 1.165-2.286" transform="translate(79) translate(147 26.682)"/>
                <path fill="#000" d="M63.237 173.4c10.013 5.932 22.264 7.348 33.77 5.603 1.894-.288 3.812-.669 5.49-1.593 1.678-.925 3.104-2.479 3.446-4.364.343-1.884-.647-4.047-2.46-4.665-1.834-.623-3.776.38-5.506 1.251-10.797 5.447-23.626 6.741-35.293 3.56" transform="translate(79) translate(147 26.682)"/>
                <path fill="#1A2E35" d="M109.87 174.308c.01.015-.14.13-.435.337-.298.197-.718.528-1.314.864-1.16.722-2.933 1.629-5.237 2.458-4.59 1.699-11.47 2.656-18.89 1.675-7.422-.983-13.834-3.257-18.393-4.942-2.282-.856-4.112-1.59-5.372-2.11-.583-.245-1.06-.447-1.445-.61-.329-.145-.498-.23-.491-.245.006-.017.188.034.53.148l1.48.519 5.424 1.952c4.583 1.595 10.983 3.798 18.332 4.77 7.346.972 14.135.085 18.705-1.505 2.293-.775 4.073-1.623 5.256-2.286 1.187-.657 1.823-1.065 1.85-1.025" transform="translate(79) translate(147 26.682)"/>
                <path fill="#000" d="M109.3 153.573c3.024-3.008 3.033-8.408 2.4-12.625-.631-4.218-2.228-8.249-2.8-12.475-.543-4.014-.147-8.092-.33-12.139-.184-4.047-1.046-8.269-3.683-11.344-1.554 16.281-.048 32.85 4.414 48.583M80.903 109.627c-.46 2.668-.033 5.451-.234 8.174-.203 2.723-.399 5.476.027 8.173.426 2.697 1.534 5.374 3.57 7.195 2.034 1.822 5.095 2.623 7.601 1.54 2.533-1.096 4.06-3.988 3.84-6.739-1.806.855-3.827 1.303-5.815 1.105-1.987-.198-3.93-1.069-5.274-2.546-1.969-2.165-2.744-5.185-2.93-8.105-.186-2.92-.545-5.915-.785-8.797" transform="translate(79) translate(147 26.682)"/>
                <path fill="#FAFAFA" d="M47.493 102.135c.004.036-.38.118-1.08.233-.698.115-1.713.265-2.973.413-2.51.281-6.051.608-9.921.021-3.875-.59-7.153-2.233-9.09-3.909-.978-.829-1.663-1.616-2.074-2.199-.415-.58-.596-.933-.571-.949.086-.068.899 1.313 2.877 2.862 1.947 1.561 5.152 3.102 8.938 3.681 3.789.576 7.294.314 9.805.126l2.985-.247c.707-.054 1.1-.068 1.104-.032M46.08 109.811c.01.034-.366.167-1.06.376-.345.11-.772.231-1.278.329-.504.104-1.075.249-1.72.322-1.282.209-2.83.317-4.548.302-1.718-.046-3.605-.233-5.55-.641-1.938-.43-3.735-1.038-5.32-1.705-1.571-.695-2.937-1.431-4.018-2.15-.558-.333-1.018-.701-1.434-1.003-.421-.298-.76-.584-1.03-.827-.544-.477-.833-.753-.81-.78.064-.078 1.273.973 3.469 2.298 1.092.669 2.454 1.36 4.01 2.02 1.569.632 3.338 1.215 5.244 1.638 1.91.401 3.762.598 5.45.67 1.69.041 3.218-.027 4.489-.186 2.545-.302 4.08-.761 4.107-.663M80.06 108.558c-.004.144-7.26.074-16.202-.156-8.946-.23-16.194-.533-16.19-.677.004-.144 7.257-.074 16.204.156 8.943.23 16.192.533 16.188.677M81.102 116.633c.009.035-.464.182-1.328.417-.863.243-2.127.536-3.7.843-3.143.62-7.554 1.194-12.453 1.25-4.9.047-9.323-.433-12.478-.986-1.58-.274-2.85-.54-3.717-.764-.87-.218-1.345-.354-1.337-.389.008-.035.499.035 1.379.191.878.162 2.153.372 3.73.598 3.157.457 7.552.876 12.418.83 4.864-.057 9.248-.569 12.393-1.093 1.573-.259 2.845-.496 3.719-.677.876-.175 1.365-.255 1.374-.22M99.877 115.152c.026.012-.065.29-.329.742-.259.455-.738 1.063-1.469 1.663-1.442 1.208-4.056 2.195-6.945 1.898-2.876-.312-5.232-1.52-6.824-2.43-1.601-.935-2.518-1.618-2.485-1.672.042-.069 1.031.506 2.66 1.348 1.624.822 3.949 1.94 6.702 2.236 2.747.281 5.24-.596 6.668-1.672 1.462-1.074 1.93-2.176 2.022-2.113M104.388 109.01c.03.14-1.122.503-2.573.81-1.452.306-2.653.44-2.683.3-.03-.141 1.123-.504 2.575-.81 1.45-.306 2.652-.441 2.68-.3M114.06 109.335c.063.117-1.946 1.313-4.65 2.3-2.705.986-5.012 1.364-5.038 1.234-.036-.15 2.195-.75 4.86-1.724 2.663-.97 4.758-1.948 4.828-1.81M110.861 99.748c.022.152-1.389.432-3.072.9-1.682.478-3.03.976-3.09.834-.056-.121 1.215-.84 2.95-1.335 1.735-.483 3.195-.532 3.212-.4" transform="translate(79) translate(147 26.682)"/>
                <path fill="#1A2E35" d="M105.423 96.089c.019.002.013.206-.015.59l-.144 1.683c-.075.728-.153 1.62-.223 2.659-.078 1.037-.178 2.217-.235 3.525-.17 2.612-.242 5.729-.27 9.189.012 3.459.11 7.263.359 11.249.266 3.985.657 7.77 1.09 11.204.47 3.428.944 6.51 1.447 9.079.225 1.289.476 2.447.686 3.465.203 1.02.394 1.896.563 2.608l.359 1.649c.076.379.108.58.09.584-.017.005-.083-.187-.192-.558-.12-.426-.27-.965-.454-1.627-.2-.706-.42-1.576-.65-2.593-.238-1.015-.515-2.17-.764-3.457-.55-2.567-1.062-5.651-1.56-9.086-.462-3.44-.868-7.237-1.135-11.235-.248-3.998-.333-7.814-.317-11.284.052-3.471.163-6.595.38-9.211.082-1.31.208-2.491.313-3.527.098-1.038.204-1.93.312-2.656l.24-1.672c.062-.381.102-.58.12-.578" transform="translate(79) translate(147 26.682)"/>
                <path fill="#000" d="M83.603 107.835c2.988 1.943 6.98 2.235 10.218.75.386-.179.773-.383 1.195-.439.423-.057.902.07 1.134.428.317.491.04 1.148-.318 1.612-1.465 1.9-4.182 2.574-6.505 1.972-2.326-.6-4.252-2.304-5.55-4.323" transform="translate(79) translate(147 26.682)"/>
                <path fill="#1A2E35" d="M64.817 22.415c-.533-2.293-1.067-4.601-1.14-6.952-.072-2.351.348-4.776 1.6-6.768 1.254-1.99 3.427-3.482 5.78-3.532 1.452-.032 2.909.467 4.339.207 1.654-.3 2.943-1.545 4.35-2.465 2.198-1.435 4.87-2.13 7.49-1.946 1.375.096 2.77.446 3.876 1.27 1.105.824 1.872 2.183 1.733 3.553 1.677-.253 3.377-.508 5.062-.32 1.686.19 3.384.88 4.44 2.208 1.055 1.328 1.302 3.36.289 4.722 1.503-.55 3.31.398 3.914 1.88.602 1.482.094 3.28-1.044 4.406-1.137 1.127-3.456 1.9-5.056 1.84-1.598-.062-3.441-.227-4.847-.992" transform="translate(79) translate(147 26.682)"/>
                <path fill="#FFD0B6" d="M70.417 75.4c6.947 1.598 13.72-3.269 14.424-10.363.377-3.802.709-7.049.784-7.508 0 0 9.568.183 11.313-9.109 1.747-9.293 3.878-30.96 3.878-30.96-9.969-6.522-22.687-7.137-33.239-1.609l-1.566.821-4.709 45.995c-.607 5.936 3.301 11.394 9.115 12.732" transform="translate(79) translate(147 26.682)"/>
                <path fill="#BF654E" d="M85.663 57.398s-5.969-.552-11.536-5.577c0 0 1.695 7.205 11.136 7.994l.4-2.417z" transform="translate(79) translate(147 26.682)"/>
                <path fill="#FFD0B6" d="M65.469 26.52c-.146-.097-6.067-3.014-6.98 3.389-.911 6.403 5.705 5.997 5.743 5.815.037-.182 1.237-9.204 1.237-9.204" transform="translate(79) translate(147 26.682)"/>
                <path fill="#BF654E" d="M62.621 33.02c-.025-.024-.123.062-.324.122-.196.058-.52.071-.836-.101-.64-.345-1.058-1.5-.924-2.659.066-.585.268-1.122.54-1.552.261-.44.611-.725.961-.737.35-.03.561.208.614.4.06.191.001.313.033.329.017.018.153-.088.14-.36-.009-.13-.062-.292-.195-.437-.136-.147-.353-.242-.594-.251-.498-.036-1.008.355-1.306.827-.327.471-.566 1.073-.64 1.73-.144 1.296.345 2.597 1.232 2.997.434.181.83.099 1.045-.025.22-.13.275-.268.254-.283" transform="translate(79) translate(147 26.682)"/>
                <path fill="#1A2E35" d="M96.138 31.729c-.1.706-.778 1.206-1.518 1.117-.738-.09-1.26-.732-1.161-1.44.099-.706.778-1.206 1.517-1.117.739.087 1.26.732 1.162 1.44M96.759 30.252c-.195.145-1.072-.778-2.504-1.024-1.427-.268-2.606.285-2.73.082-.063-.091.16-.374.675-.627.508-.253 1.332-.441 2.224-.281.89.16 1.583.62 1.955 1.032.38.415.475.755.38.818M82.257 29.26c-.098.707-.777 1.206-1.517 1.117-.74-.09-1.26-.733-1.161-1.44.098-.706.778-1.206 1.516-1.117.74.088 1.26.733 1.162 1.44" transform="translate(79) translate(147 26.682)"/>
                <path fill="#1A2E35" d="M82.644 28.055c-.195.145-1.074-.778-2.505-1.024-1.426-.268-2.605.285-2.73.082-.063-.09.16-.374.676-.627.509-.253 1.333-.44 2.224-.28.89.16 1.582.62 1.954 1.031.38.415.475.755.381.818M85.98 39.579c.007-.083.923-.081 2.397-.012.373.026.732.014.836-.225.133-.25.049-.67-.053-1.126-.19-.944-.386-1.934-.594-2.972-.808-4.225-1.323-7.673-1.153-7.704.17-.031.963 3.369 1.77 7.593l.545 2.98c.066.44.222.953-.061 1.468-.147.256-.45.408-.695.43-.246.03-.453-.002-.636-.023-1.463-.176-2.365-.327-2.356-.41M81.595 39.831c.234.027-.034 1.581 1.103 2.917 1.132 1.338 2.819 1.454 2.793 1.673.005.101-.421.237-1.124.134-.69-.097-1.652-.493-2.347-1.309-.694-.819-.884-1.782-.825-2.429.054-.659.295-1.014.4-.986M96.674 27.641c-.31.281-1.235-.229-2.418-.453-1.175-.265-2.228-.165-2.4-.545-.072-.183.143-.48.636-.71.486-.233 1.252-.356 2.063-.189.81.168 1.465.586 1.818.992.36.407.44.766.3.905M81.69 22.556c-.191.146-.546.012-1.007-.165-.46-.183-1.049-.4-1.725-.545-.678-.14-1.305-.175-1.8-.193-.492-.021-.87-.04-.987-.251-.11-.194.098-.58.67-.901.56-.322 1.488-.514 2.463-.31.975.204 1.748.752 2.132 1.27.394.525.431.962.253 1.095" transform="translate(79) translate(147 26.682)"/>
                <path fill="#1A2E35" d="M100.777 20.4s-6.6 1.005-13.464-3.07c-4.505-2.672-9.87-4.21-11.14-3.357-1.269.853-1.874 5.65-6.606 6.719 0 0-.352 9.212-3.99 8.618-3.64-.595-.315-14.66-.315-14.66l9.283-3.724L84.46 9.79l9.163.668 8.33 3.239-1.176 6.704z" transform="translate(79) translate(147 26.682)"/>
            </g>
            <g>
                <path fill="#F36" d="M44.25 47.213c-7.953-12.164-6.792-29.541 2.705-40.54C49.903 3.259 54.023.29 58.517.676c4.601.394 8.309 4.34 9.708 8.742 1.4 4.4.916 9.169.093 13.714-1.151 6.363-3.08 12.874-7.494 17.6-4.414 4.725-10.9 9.582-16.575 6.48M48.647 105.758c-2.995-6.987-.823-15.836 5.067-20.642 1.829-1.492 4.22-2.647 6.5-2.042 2.336.62 3.888 2.99 4.211 5.384.322 2.395-.36 4.807-1.195 7.073-1.17 3.175-2.754 6.355-5.457 8.389-2.702 2.035-6.483 3.949-9.126 1.838M29.47 101.582c2.187-10.783-3.497-22.682-13.258-27.758-3.03-1.576-6.76-2.51-9.813-.98-3.126 1.566-4.629 5.381-4.38 8.869.247 3.488 1.924 6.706 3.776 9.672 2.592 4.154 5.772 8.193 10.201 10.281 4.43 2.088 10.35 3.687 13.474-.084" transform="translate(79) translate(0 260.682)"/>
                <g transform="translate(79) translate(0 260.682) translate(0 35)">
                    <mask id="prefix__g" fill="#fff">
                        <use xlink:href="#prefix__f"/>
                    </mask>
                    <path fill="#F36" d="M30.848 37.424C34.655 25.137 28.2 10.24 17.44 3.192 14.101 1.002 9.872-.52 6.141.902 2.322 2.357.127 6.617.006 10.702c-.12 4.087 1.453 8.028 3.26 11.695 2.528 5.134 5.753 10.207 10.66 13.154 4.906 2.947 12.847 5.893 16.922 1.873" mask="url(#prefix__g)"/>
                </g>
                <path fill="#1A2E35" d="M38.495 132.478c-.018.001-.06-.204-.124-.596l-.256-1.714-.172-1.239-.281-1.46c-.2-1.048-.407-2.246-.751-3.545l-.495-2.05-.643-2.19c-.41-1.525-1.015-3.102-1.582-4.784-1.26-3.319-2.823-6.898-4.743-10.517-1.956-3.6-4.075-6.884-6.144-9.767-1.087-1.403-2.067-2.78-3.112-3.963l-1.471-1.748-1.434-1.544c-.893-1.005-1.776-1.84-2.54-2.586-.377-.37-.731-.719-1.061-1.041l-.937-.828c-.525-.475-.951-.859-1.287-1.16-.291-.27-.438-.42-.427-.433.01-.014.18.106.494.352l1.353 1.086c.296.245.62.51.97.797l1.096 1.016c.785.729 1.692 1.549 2.606 2.543l1.466 1.53 1.502 1.737c1.066 1.18 2.064 2.553 3.168 3.958 2.104 2.885 4.249 6.18 6.217 9.806 1.93 3.641 3.492 7.25 4.734 10.597.559 1.695 1.152 3.287 1.547 4.828l.617 2.212.465 2.066c.323 1.313.505 2.52.678 3.578l.24 1.474.128 1.25.159 1.73c.03.395.038.603.02.605" transform="translate(79) translate(0 260.682)"/>
                <path fill="#1A2E35" d="M38.214 134.686c-.01-.001-.01-.085 0-.246l.053-.712c.06-.667.145-1.578.252-2.73l.194-1.97c.054-.721.074-1.508.118-2.352.063-1.688.224-3.608.165-5.734l-.016-3.337c-.012-1.16-.121-2.364-.181-3.612-.083-2.5-.423-5.15-.724-7.942-.762-5.567-1.954-11.64-3.77-17.868-1.873-6.212-4.185-11.954-6.58-17.037-1.27-2.505-2.43-4.912-3.723-7.055-.631-1.077-1.195-2.146-1.818-3.125l-1.805-2.806c-1.11-1.816-2.291-3.336-3.264-4.717-.497-.684-.943-1.332-1.381-1.907l-1.237-1.547-1.7-2.151-.431-.569c-.095-.13-.141-.198-.134-.205.006-.005.065.053.174.172l.472.535 1.776 2.091 1.276 1.52c.45.569.909 1.21 1.418 1.887.998 1.367 2.204 2.879 3.338 4.688l1.84 2.797c.634.977 1.209 2.044 1.85 3.123 1.315 2.14 2.493 4.55 3.78 7.06 2.43 5.094 4.766 10.858 6.649 17.1 1.823 6.254 3.007 12.36 3.746 17.953.289 2.806.614 5.469.68 7.98.049 1.252.15 2.462.15 3.627l-.017 3.348c.036 2.135-.151 4.058-.242 5.75-.058.845-.093 1.632-.162 2.353l-.24 1.97-.35 2.724-.103.706c-.026.159-.044.238-.053.238" transform="translate(79) translate(0 260.682)"/>
                <path fill="#1A2E35" d="M58.916 15.364c.009.005-.026.082-.101.228l-.343.638-1.36 2.426c-.29.528-.642 1.102-.979 1.753l-1.064 2.14-1.227 2.456c-.413.88-.807 1.83-1.246 2.813-.426.991-.904 2.016-1.345 3.108l-1.32 3.425-.694 1.805c-.21.621-.425 1.252-.64 1.892-.431 1.281-.877 2.598-1.331 3.95-1.685 5.45-3.283 11.52-4.631 17.966-1.306 6.457-2.224 12.668-2.9 18.336-.58 5.676-1.008 10.802-1.126 15.118-.108 2.157-.13 4.11-.138 5.824-.027 1.716-.033 3.192.007 4.4.015 1.174.029 2.103.038 2.782l-.002.723c-.005.164-.01.248-.02.248-.008 0-.02-.083-.033-.245l-.05-.723c-.032-.677-.078-1.606-.136-2.78-.072-1.208-.096-2.687-.094-4.405-.021-1.718-.025-3.675.06-5.836.072-4.326.462-9.466 1.017-15.159.652-5.684 1.556-11.913 2.866-18.388 1.352-6.463 2.968-12.548 4.684-18.007l1.356-3.955c.221-.64.44-1.27.654-1.893l.71-1.807 1.352-3.425c.451-1.09.941-2.114 1.38-3.103.45-.985.857-1.93 1.284-2.807l1.267-2.445 1.105-2.126c.35-.647.715-1.213 1.02-1.736l1.447-2.379.386-.613c.09-.137.14-.204.148-.2M56.214 90c.03.02-.273.548-.846 1.484-.58.929-1.38 2.303-2.316 4.023-.943 1.717-1.97 3.812-3.012 6.181-1.016 2.38-2.032 5.041-2.923 7.891-.873 2.858-1.535 5.628-2.038 8.167-.477 2.544-.81 4.854-1 6.804-.198 1.948-.313 3.532-.357 4.628-.055 1.095-.103 1.702-.139 1.702-.036 0-.057-.608-.064-1.708-.017-1.1.042-2.693.194-4.655.142-1.965.44-4.294.894-6.86.481-2.56 1.133-5.353 2.012-8.231.898-2.871 1.935-5.545 2.982-7.931 1.072-2.374 2.14-4.465 3.13-6.167.982-1.706 1.831-3.056 2.467-3.954.626-.905.986-1.395 1.016-1.374" transform="translate(79) translate(0 260.682)"/>
                <path fill="#375A64" d="M22.876 127.003L57.808 127.003 53.582 162.681 27.227 162.681z" transform="translate(79) translate(0 260.682)"/>
                <path fill="#1A2E35" d="M24.151 158.829L27.118 162.681 53.582 162.681 56.633 158.953z" transform="translate(79) translate(0 260.682)"/>
                <path fill="#FAFAFA" d="M56.447 137.496c0 .144-7.249.26-16.189.26-8.944 0-16.19-.116-16.19-.26 0-.144 7.246-.261 16.19-.261 8.94 0 16.19.117 16.19.261M56.447 139.871c0 .144-7.249.261-16.189.261-8.944 0-16.19-.117-16.19-.261 0-.144 7.246-.26 16.19-.26 8.94 0 16.19.116 16.19.26M56.011 142.17c0 .145-6.995.262-15.623.262-8.629 0-15.624-.117-15.624-.261 0-.144 6.995-.261 15.624-.261 8.628 0 15.623.117 15.623.26" transform="translate(79) translate(0 260.682)"/>
                <path fill="#F36" d="M399.586 136.547c2.993-1.544 6.518-1.745 9.84-1.195 1.785.295 3.646.829 4.86 2.17 1.215 1.34 1.446 3.7.051 4.852-.83.686-1.988.79-3.065.777-2.601-.03-5.488-.488-7.565 1.078-1.185.892-1.975 2.377-3.392 2.816-1.387.43-2.953-.39-3.688-1.641-.735-1.251-.76-2.816-.417-4.226 0 0 .361-3.075 3.376-4.631M392.73 123.31c1.83 2.614 5.386 1.748 7.035.153 1.65-1.594 2.346-3.907 2.982-6.112 1.45-5.038 2.91-10.323 1.833-15.454-.322-1.535-.897-3.065-1.974-4.202-1.077-1.138-2.734-1.816-4.25-1.414-1.794.472-2.909 2.23-3.714 3.9-2.368 4.912-3.623 10.358-3.642 15.81-.007 2.546.293 5.216 1.73 7.32M387.703 127.06c1.987-2.356 2.364-5.797 1.48-8.752-.884-2.954-2.88-5.468-5.183-7.519-2.699-2.406-5.872-4.278-9.283-5.478-1.343-.472-2.758-.844-4.175-.709-1.416.136-2.843.86-3.503 2.12-.978 1.864-.04 4.124.973 5.968 1.784 3.248 3.825 6.355 6.096 9.284 1.827 2.356 3.921 4.68 6.706 5.745 2.785 1.065 5.678.94 7.155-.992" transform="translate(79) translate(0 260.682)"/>
                <path fill="#1A2E35" d="M392.606 162.74c.034.001.09-.422.165-1.188.083-.865.19-1.95.315-3.242.151-1.364.35-2.987.73-4.755.377-1.762.969-3.672 1.728-5.61.786-1.927 1.745-3.678 2.865-5.078 1.113-1.406 2.406-2.425 3.623-3.012 1.213-.598 2.3-.842 3.05-.95.757-.077 1.183-.138 1.183-.17 0-.035-.425-.04-1.203-.019-.772.051-1.904.247-3.183.828-1.28.568-2.654 1.601-3.82 3.037-1.177 1.43-2.17 3.22-2.97 5.18-.772 1.972-1.356 3.902-1.716 5.703-.36 1.798-.524 3.44-.632 4.815-.103 1.376-.142 2.49-.16 3.261-.018.77-.009 1.197.024 1.2" transform="translate(79) translate(0 260.682)"/>
                <path fill="#1A2E35" d="M392.828 160.246c.018 0 .027-.19.032-.552 0-.414-.002-.935-.004-1.576-.004-1.367-.003-3.347.071-5.79.121-4.889.542-10.149 1.354-17.566.77-6.974 1.803-15.09 2.894-20.368.233-1.2.468-2.28.69-3.225.212-.948.393-1.766.567-2.427l.368-1.53c.08-.354.113-.54.096-.545-.016-.005-.082.173-.19.516l-.459 1.51c-.203.656-.41 1.467-.648 2.411-.248.942-.507 2.02-.763 3.218-1.079 4.781-2.222 11.464-3.042 18.9-.815 7.431-1.182 14.2-1.214 19.1-.029 2.45.022 4.433.085 5.801l.097 1.575c.027.36.05.548.066.548" transform="translate(79) translate(0 260.682)"/>
                <path fill="#1A2E35" d="M392.861 147.193c.034 0 .028-.586-.012-1.646-.06-1.058-.206-2.587-.504-4.46-.316-1.87-.757-4.088-1.45-6.499-.3-1.102-1.007-3.743-2.718-7.689-2.253-5.348-5.316-9.719-7.98-12.427-.625-.718-1.32-1.237-1.878-1.745-.288-.243-.542-.486-.802-.679l-.728-.5c-.876-.6-1.367-.918-1.386-.889-.078.107 1.964 1.308 4.543 4.053 2.568 2.738 5.546 7.08 7.781 12.381 1.247 2.876 2.116 5.441 2.734 7.62.712 2.386 1.185 4.583 1.543 6.433.34 1.854.537 3.368.655 4.416.098 1.05.17 1.632.202 1.631" transform="translate(79) translate(0 260.682)"/>
            </g>
            <g>
                <path fill="#F36" d="M31.837 158.28l1.948 2.476s9.593-15.372 20.738-16.957c.65.32 1.418.295 2.045-.068l3.603-2.088c.768-.47 1.167-1.363 1.005-2.25 0 0 5.373-9.527 16.825-11.017l4.178-.8-28.754-26.312-44.734 18.192 23.146 38.824z" transform="translate(79) translate(68 .682)"/>
                <path fill="#ECECEC" d="M27.1 156.218l3.393 4.538s7.81-17.62 27.237-18.851L38.606 122.14S24.808 150.793 27.1 156.218" transform="translate(79) translate(68 .682)"/>
                <path fill="#F5F5F5" d="M.924 124.58s7.407-23.914 31.957-15.166l24.85 32.49s-25.449-4.581-31.437 16.376l-25.37-33.7z" transform="translate(79) translate(68 .682)"/>
                <path fill="#ECECEC" d="M57.73 141.904s7.684-18.784 24.449-16.473L57.73 97.006l-23.993 13.528 23.993 31.37z" transform="translate(79) translate(68 .682)"/>
                <path fill="#F5F5F5" d="M32.88 109.454s-2.792-14.204 8.185-20.392l7.185-3.74 25.147 28.157s-17.363 9.496-15.667 28.465l-24.85-32.49z" transform="translate(79) translate(68 .682)"/>
                <path fill="#1A2E35" d="M57.73 141.904c-.029.021-.398-.415-1.042-1.22l-2.695-3.439-8.801-11.409-8.831-11.387-2.692-3.439c-.632-.814-.969-1.275-.942-1.298.028-.023.418.394 1.099 1.17.686.772 1.644 1.916 2.822 3.336 2.349 2.847 5.519 6.84 8.957 11.3 3.437 4.457 6.496 8.533 8.682 11.505l2.563 3.54c.594.842.909 1.32.88 1.341M48.792 93.602c.026.099-1.198.326-2.882 1.336-1.677.993-3.79 2.769-5.551 5.187-1.81 2.391-2.817 4.958-3.267 6.855-.435 1.912-.37 3.149-.48 3.149-.035.001-.064-.304-.081-.864-.042-.56.035-1.372.2-2.36.367-1.965 1.353-4.638 3.207-7.089 1.806-2.479 4.02-4.261 5.791-5.198.889-.473 1.66-.747 2.203-.885.55-.119.853-.166.86-.131M61.176 105.486c.043.09-1.129.609-2.784 1.803-.833.59-1.753 1.386-2.695 2.344-.922.979-1.854 2.132-2.682 3.445-.81 1.325-1.432 2.672-1.9 3.932-.443 1.27-.749 2.448-.909 3.455-.337 2.013-.282 3.293-.383 3.294-.036.002-.069-.315-.098-.895-.02-.29-.029-.646.001-1.057.026-.411.03-.883.117-1.397.115-1.034.39-2.25.818-3.558.455-1.301 1.08-2.69 1.911-4.05.85-1.346 1.818-2.521 2.782-3.504.985-.964 1.952-1.75 2.828-2.311.421-.306.844-.518 1.201-.723.355-.21.678-.358.946-.47.533-.23.832-.341.847-.308M65.187 108.875c.044.092-1.232.653-3.009 1.986-.905.644-1.877 1.547-2.914 2.579-1.002 1.071-2.037 2.31-2.985 3.713-.931 1.414-1.69 2.839-2.281 4.18-.543 1.357-.985 2.607-1.197 3.696-.482 2.166-.407 3.563-.513 3.563-.037.002-.065-.343-.086-.975-.024-.317-.005-.702.04-1.149.029-.449.079-.959.198-1.512.171-1.122.583-2.411 1.115-3.809.579-1.379 1.341-2.842 2.291-4.284.967-1.43 2.034-2.686 3.074-3.758 1.078-1.035 2.094-1.925 3.043-2.543.455-.334.897-.591 1.289-.81.385-.23.726-.41 1.02-.528.577-.257.9-.382.915-.349M67.697 112.087c.046.094-1.241.652-3 2.024-.895.663-1.846 1.595-2.858 2.66-.974 1.106-1.964 2.388-2.873 3.825-.886 1.452-1.597 2.909-2.156 4.27-.508 1.38-.922 2.646-1.12 3.743-.45 2.185-.381 3.585-.485 3.585-.036.002-.066-.345-.09-.98-.022-.316-.007-.704.034-1.152.026-.451.07-.963.18-1.52.155-1.128.539-2.43 1.033-3.848.545-1.4 1.258-2.893 2.162-4.373.926-1.465 1.949-2.766 2.962-3.874 1.052-1.07 2.049-1.992 2.99-2.631.452-.345.89-.611 1.284-.834.384-.236.724-.421 1.02-.541.578-.26.902-.387.917-.354M46.953 136.647c-.026.094-1.393-.382-3.68-.582-2.272-.209-5.516-.018-8.752 1.308-3.238 1.326-5.684 3.466-7.155 5.21-1.49 1.747-2.13 3.044-2.215 2.996-.028-.015.103-.35.407-.928.302-.577.801-1.383 1.524-2.303 1.426-1.838 3.904-4.09 7.241-5.457 3.336-1.367 6.682-1.5 8.987-1.192 1.16.15 2.081.373 2.702.573.622.197.951.345.941.375M43.661 132.546c-.026.094-1.393-.382-3.68-.582-2.272-.21-5.516-.018-8.752 1.308-3.238 1.326-5.684 3.466-7.155 5.21-1.49 1.747-2.13 3.044-2.215 2.995-.028-.014.103-.35.407-.927.302-.577.801-1.384 1.524-2.304 1.426-1.837 3.904-4.089 7.241-5.456 3.336-1.367 6.682-1.5 8.987-1.192 1.161.15 2.081.373 2.702.573.622.197.951.345.941.375M40.37 128.445c-.027.095-1.394-.381-3.682-.581-2.27-.21-5.515-.018-8.752 1.307-3.237 1.327-5.683 3.466-7.154 5.209-1.49 1.748-2.13 3.046-2.215 2.997-.028-.015.103-.351.407-.928.302-.577.801-1.383 1.524-2.303 1.426-1.837 3.904-4.09 7.241-5.457 3.336-1.366 6.682-1.5 8.987-1.191 1.16.148 2.081.372 2.702.572.622.197.951.345.941.375M37.077 124.344c-.026.095-1.393-.382-3.68-.582-2.272-.21-5.516-.017-8.753 1.308-3.237 1.327-5.683 3.466-7.154 5.209-1.49 1.748-2.13 3.045-2.215 2.997-.028-.015.103-.351.407-.928.302-.577.801-1.383 1.524-2.303 1.426-1.837 3.904-4.09 7.241-5.457 3.336-1.366 6.682-1.5 8.987-1.192 1.16.149 2.081.373 2.702.573.621.197.951.345.941.375M33.785 120.243c-.026.094-1.393-.382-3.68-.582-2.272-.21-5.516-.018-8.753 1.308-3.237 1.327-5.683 3.466-7.154 5.209-1.49 1.748-2.13 3.045-2.215 2.997-.028-.015.103-.351.407-.928.302-.577.801-1.383 1.524-2.303 1.426-1.837 3.904-4.09 7.241-5.457 3.336-1.366 6.682-1.5 8.987-1.192 1.16.149 2.081.373 2.702.573.621.197.951.345.941.375M30.493 116.142c-.026.094-1.393-.382-3.68-.582-2.272-.21-5.516-.018-8.753 1.308s-5.683 3.466-7.154 5.209c-1.49 1.748-2.13 3.045-2.215 2.997-.028-.015.103-.351.407-.928.302-.577.801-1.383 1.524-2.304 1.426-1.837 3.904-4.09 7.241-5.456 3.336-1.367 6.682-1.501 8.987-1.192 1.16.149 2.081.373 2.702.573.621.197.951.345.941.375" transform="translate(79) translate(68 .682)"/>
                <path fill="#ECECEC" d="M39.627 111.115l6.865 7.618s2.139-10.544 11.467-14.543l-7.25-7.726s-9.514 3.212-11.083 14.651" transform="translate(79) translate(68 .682)"/>
                <path fill="#F36" d="M64.27 34.037l-1.02 2.237s14.092 1.146 19.182 8.305c.01.565.303 1.088.78 1.393l2.738 1.751c.6.363 1.362.32 1.918-.11 0 0 8.53.314 13.664 7.72l2.05 2.61 9.088-30.339L82.896 4.088 64.27 34.038z" transform="translate(79) translate(68 .682)"/>
                <path fill="#ECECEC" d="M64.002 30.014l-1.931 3.978s15.011-.895 22.823 12.131l6.853-20.335s-24.804.695-27.745 4.226" transform="translate(79) translate(68 .682)"/>
                <g transform="translate(79) translate(68 .682) translate(62)">
                    <mask id="prefix__i" fill="#fff">
                        <use xlink:href="#prefix__h"/>
                    </mask>
                    <path fill="#F5F5F5" d="M14.562.539s19.23-3.429 21.957 16.723L22.895 46.123S16.957 26.841.284 30.195L14.562.539z" mask="url(#prefix__i)"/>
                </g>
                <path fill="#ECECEC" d="M84.894 46.123s15.773-1.399 20.175 11.051l10.95-27.129-17.97-11.788-13.155 27.866z" transform="translate(79) translate(68 .682)"/>
                <path fill="#F5F5F5" d="M98.492 17.276s8.847-7.023 17.066-1.629l5.167 3.642-10.515 27.516s-12.801-8.637-25.344-.668l13.626-28.86z" transform="translate(79) translate(68 .682)"/>
                <path fill="#1A2E35" d="M84.894 46.123c-.032-.015.13-.43.453-1.168l1.402-3.108 4.743-10.195 4.746-10.19 1.437-3.09c.344-.727.55-1.123.583-1.11.033.014-.11.436-.397 1.19-.283.754-.728 1.831-1.286 3.158-1.123 2.652-2.751 6.284-4.611 10.264-1.86 3.979-3.596 7.557-4.882 10.131-.644 1.288-1.174 2.326-1.552 3.036-.378.713-.604 1.099-.636 1.083M115.541 22.04c-.056.075-.844-.54-2.266-1.25-1.415-.712-3.513-1.435-5.924-1.633-2.413-.184-4.6.2-6.108.68-1.515.476-2.39.959-2.435.875-.018-.03.186-.174.575-.407.385-.244.98-.527 1.74-.817 1.516-.582 3.774-1.043 6.27-.85 2.492.203 4.65 1.012 6.055 1.827.705.405 1.248.78 1.589 1.08.347.292.526.466.504.494M114.738 25.359c-.057.075-.845-.54-2.267-1.25-1.414-.71-3.512-1.435-5.924-1.632-2.413-.185-4.6.199-6.108.68-1.515.475-2.39.958-2.435.875-.017-.031.187-.174.576-.408.384-.243.98-.527 1.74-.816 1.516-.583 3.774-1.043 6.269-.85 2.492.203 4.65 1.012 6.055 1.827.705.405 1.248.78 1.59 1.08.347.292.526.466.504.494M113.244 28.663c-.057.075-.845-.54-2.266-1.248-1.415-.712-3.513-1.437-5.924-1.634-2.414-.185-4.6.199-6.109.68-1.515.475-2.39.958-2.434.875-.018-.03.186-.174.575-.408.384-.243.98-.527 1.74-.816 1.516-.583 3.774-1.042 6.27-.85 2.492.203 4.65 1.012 6.054 1.827.705.405 1.25.78 1.59 1.08.347.292.526.466.504.494M112.307 31.963c-.057.075-.845-.54-2.266-1.248-1.415-.712-3.513-1.437-5.924-1.634-2.414-.185-4.6.199-6.11.68-1.514.475-2.39.958-2.434.875-.017-.031.187-.174.576-.408.384-.243.98-.527 1.74-.816 1.516-.583 3.774-1.042 6.269-.85 2.493.203 4.65 1.012 6.055 1.827.705.405 1.249.78 1.59 1.08.347.292.526.466.504.494M111.375 35.47c-.057.076-.845-.54-2.266-1.247-1.415-.712-3.513-1.437-5.924-1.634-2.414-.185-4.6.199-6.109.68-1.515.475-2.39.958-2.434.875-.018-.03.186-.174.575-.408.384-.243.98-.527 1.74-.816 1.516-.583 3.774-1.042 6.269-.85 2.492.203 4.65 1.012 6.055 1.827.705.405 1.249.78 1.59 1.08.347.292.526.466.504.494M110.461 39.465c-.058.075-.912-.596-2.473-1.339-.77-.39-1.743-.736-2.828-1.082-1.099-.308-2.326-.579-3.634-.733-1.31-.139-2.565-.156-3.704-.09-1.132.107-2.154.244-2.984.481-1.672.43-2.619.968-2.665.881-.018-.03.207-.18.636-.429.21-.133.483-.26.81-.393.321-.143.692-.295 1.118-.413.84-.289 1.884-.469 3.047-.605 1.166-.095 2.457-.092 3.801.05 1.341.158 2.597.451 3.715.792 1.106.38 2.087.771 2.855 1.213.395.198.731.416 1.022.612.296.188.542.363.728.527.381.314.578.5.556.528M109.134 42.355c-.06.077-.914-.602-2.495-1.318-.78-.378-1.766-.699-2.864-1.015-1.113-.275-2.353-.5-3.671-.616-1.32-.094-2.581-.067-3.723.03-1.135.14-2.16.3-2.99.551-1.673.458-2.624.993-2.67.908-.018-.03.208-.183.638-.432.21-.134.483-.265.809-.4.32-.146.692-.302 1.118-.429.838-.302 1.88-.506 3.043-.675 1.168-.126 2.463-.169 3.816-.072 1.35.118 2.623.364 3.756.673 1.122.35 2.119.715 2.899 1.146.4.191.742.404 1.036.6.3.184.549.356.736.521.385.315.584.5.562.528M84.679 36.77c-.09.017-.264-1.097-.953-2.745-.675-1.642-1.97-3.81-4.04-5.57-2.07-1.762-4.416-2.694-6.144-3.1-1.738-.416-2.865-.41-2.862-.502 0-.032.28-.069.79-.072.51-.003 1.25.049 2.15.216 1.79.32 4.253 1.23 6.404 3.061 2.15 1.83 3.442 4.115 4.045 5.833.309.86.478 1.584.555 2.087.079.503.087.786.055.791M86.343 33.019c-.09.018-.264-1.096-.953-2.746-.676-1.641-1.97-3.808-4.04-5.569-2.069-1.762-4.416-2.694-6.144-3.099-1.738-.417-2.865-.41-2.862-.502 0-.033.28-.07.79-.072.51-.004 1.25.047 2.15.214 1.791.321 4.252 1.231 6.404 3.062 2.151 1.831 3.442 4.116 4.045 5.832.31.862.477 1.585.555 2.088.08.504.087.787.055.792M88.007 29.268c-.09.018-.264-1.096-.953-2.746-.675-1.64-1.97-3.808-4.039-5.569-2.07-1.762-4.417-2.694-6.145-3.099-1.738-.417-2.865-.41-2.862-.502 0-.032.28-.069.79-.072.51-.004 1.25.047 2.15.214 1.791.321 4.253 1.231 6.404 3.062 2.151 1.831 3.442 4.116 4.045 5.833.31.861.478 1.584.555 2.087.08.504.087.787.055.792M89.672 25.517c-.09.018-.264-1.096-.953-2.745-.676-1.641-1.971-3.808-4.04-5.57-2.07-1.762-4.416-2.694-6.144-3.099-1.738-.416-2.865-.41-2.862-.502 0-.033.28-.07.79-.072.51-.004 1.25.047 2.15.214 1.79.322 4.252 1.232 6.404 3.062 2.15 1.832 3.442 4.116 4.045 5.832.309.863.477 1.584.555 2.088.079.505.087.787.055.792M91.336 21.767c-.09.018-.264-1.096-.953-2.746-.675-1.641-1.97-3.808-4.039-5.57-2.07-1.761-4.417-2.693-6.145-3.098-1.738-.417-2.865-.41-2.862-.502 0-.033.28-.07.79-.072.51-.004 1.25.047 2.15.214 1.791.32 4.253 1.23 6.404 3.062 2.151 1.83 3.442 4.115 4.045 5.832.309.862.478 1.585.555 2.088.079.504.087.787.055.792M93 18.016c-.09.018-.263-1.096-.953-2.746-.675-1.64-1.97-3.808-4.04-5.57-2.069-1.761-4.416-2.693-6.144-3.098-1.737-.417-2.864-.41-2.862-.502 0-.033.28-.07.79-.072.51-.004 1.25.047 2.15.214 1.79.32 4.252 1.23 6.404 3.062 2.151 1.83 3.442 4.116 4.046 5.833.307.86.477 1.584.554 2.087.08.504.088.787.056.792" transform="translate(79) translate(68 .682)"/>
                <path fill="#FF4F5B" d="M249.172 128.984l-1.686 2.661s17.689 3.926 22.896 13.907c-.086.72.194 1.435.745 1.905l3.17 2.703c.698.567 1.674.646 2.454.198 0 0 10.774 1.894 15.993 12.195l2.145 3.673 16.858-36.92-33.675-35.077-28.9 34.755z" transform="translate(79) translate(68 .682)"/>
                <path fill="#ECECEC" d="M249.538 123.83l-3.148 4.71s19.213 1.498 26.846 19.405l12.267-24.614s-31.61-3.468-35.965.499" transform="translate(79) translate(68 .682)"/>
                <path fill="#F5F5F5" d="M270.653 88.612s25.016-.98 24.943 25.082l-22.36 34.251s-4.155-25.52-25.91-24.187l23.327-35.146z" transform="translate(79) translate(68 .682)"/>
                <path fill="#ECECEC" d="M273.236 147.945s20.271.99 23.675 17.567l18.66-32.52-20.746-18.117-21.589 33.07z" transform="translate(79) translate(68 .682)"/>
                <path fill="#F5F5F5" d="M295.559 113.707s12.463-7.365 21.952.925l5.92 5.53-18.174 33.089s-14.737-13.21-32.058-5.293l22.36-34.251z" transform="translate(79) translate(68 .682)"/>
                <path fill="#1A2E35" d="M273.236 147.945c-.03-.02.26-.513.804-1.39l2.344-3.685 7.828-12.1 7.795-12.117 2.346-3.684c.557-.868.88-1.34.91-1.321.032.018-.232.525-.736 1.426-.5.903-1.26 2.188-2.207 3.772-1.902 3.163-4.61 7.482-7.672 12.208-3.058 4.726-5.883 8.968-7.956 12.019l-2.483 3.595c-.598.842-.944 1.297-.973 1.277M316.368 122.745c-.07.07-.95-.862-2.627-2.024-.833-.59-1.89-1.191-3.108-1.761-1.23-.543-2.627-1.038-4.142-1.382-1.519-.323-2.995-.46-4.34-.482-1.345.006-2.556.109-3.559.295-2.01.352-3.2.829-3.235.735-.013-.033.275-.17.812-.39.266-.116.598-.243.997-.351.395-.113.843-.268 1.355-.356 1.014-.236 2.251-.381 3.628-.413 1.378-.004 2.896.122 4.454.454 1.553.35 2.984.874 4.233 1.455 1.236.608 2.3 1.258 3.12 1.897.43.295.768.623 1.081.89.316.266.564.52.758.738.395.425.6.67.573.695M314.766 126.818c-.07.07-.95-.862-2.628-2.024-.832-.59-1.89-1.191-3.107-1.761-1.23-.543-2.627-1.04-4.142-1.382-1.52-.323-2.995-.46-4.34-.482-1.345.006-2.556.109-3.56.295-2.01.352-3.2.829-3.234.735-.013-.033.275-.171.812-.391.266-.115.598-.242.997-.35.395-.113.843-.268 1.355-.356 1.014-.236 2.25-.381 3.628-.413 1.378-.004 2.896.12 4.454.454 1.553.35 2.984.874 4.233 1.455 1.236.608 2.299 1.258 3.12 1.897.429.295.768.623 1.08.89.317.266.565.52.759.738.395.425.599.67.573.695M312.291 130.75c-.071.071-.951-.861-2.628-2.024-.833-.589-1.891-1.191-3.108-1.761-1.23-.543-2.627-1.038-4.142-1.382-1.518-.323-2.995-.459-4.34-.482-1.345.006-2.556.109-3.559.295-2.011.352-3.201.83-3.235.735-.013-.033.276-.17.812-.39.267-.116.598-.243.997-.351.396-.113.843-.268 1.355-.356 1.014-.236 2.251-.38 3.629-.413 1.377-.004 2.895.122 4.453.454 1.554.352 2.984.874 4.233 1.455 1.236.608 2.299 1.258 3.12 1.897.429.295.768.623 1.081.892.316.264.564.519.758.736.395.425.599.67.574.695M274.603 136.032c-.098.007-.103-1.44-.678-3.665-.557-2.21-1.819-5.205-4.146-7.815-2.329-2.612-5.16-4.206-7.293-5.012-2.147-.823-3.582-.994-3.565-1.09.005-.032.365-.02 1.01.074.646.093 1.572.295 2.68.67 2.207.733 5.156 2.32 7.557 5.011 2.4 2.69 3.64 5.801 4.116 8.077.247 1.143.341 2.086.36 2.738.022.652-.009 1.012-.04 1.012M277.375 131.563c-.098.007-.104-1.44-.678-3.665-.558-2.212-1.82-5.206-4.147-7.816-2.329-2.611-5.161-4.206-7.294-5.011-2.145-.823-3.582-.995-3.564-1.091.004-.032.366-.02 1.01.075.646.092 1.571.294 2.68.67 2.207.732 5.156 2.319 7.556 5.01 2.4 2.69 3.641 5.8 4.117 8.076.247 1.144.341 2.088.36 2.74.021.651-.009 1.012-.04 1.012M280.146 127.093c-.099.006-.105-1.44-.679-3.665-.558-2.211-1.818-5.206-4.147-7.816-2.329-2.611-5.16-4.205-7.293-5.012-2.145-.823-3.582-.994-3.565-1.09.005-.031.367-.02 1.01.075.647.093 1.572.295 2.68.67 2.208.732 5.156 2.319 7.557 5.01 2.4 2.69 3.64 5.8 4.116 8.077.248 1.144.341 2.087.362 2.739.02.65-.01 1.01-.041 1.012M282.916 122.623c-.098.006-.104-1.44-.678-3.666-.558-2.21-1.819-5.204-4.147-7.816-2.329-2.61-5.161-4.205-7.294-5.01-2.145-.823-3.581-.995-3.564-1.091.005-.032.366-.02 1.011.075.645.093 1.571.294 2.679.67 2.207.733 5.156 2.319 7.556 5.01 2.4 2.69 3.641 5.8 4.118 8.078.246 1.142.34 2.085.36 2.737.021.653-.009 1.013-.041 1.013M285.687 118.153c-.098.007-.104-1.44-.678-3.665-.558-2.211-1.82-5.206-4.147-7.816-2.328-2.611-5.161-4.205-7.294-5.011-2.145-.824-3.581-.995-3.565-1.091.006-.031.367-.02 1.012.075.645.093 1.57.295 2.68.67 2.206.732 5.156 2.319 7.555 5.01 2.4 2.69 3.64 5.8 4.118 8.077.246 1.144.34 2.087.36 2.739.02.652-.01 1.012-.041 1.012M288.457 113.683c-.098.007-.104-1.44-.678-3.665-.557-2.21-1.819-5.205-4.146-7.815-2.329-2.612-5.16-4.206-7.295-5.012-2.145-.823-3.58-.994-3.563-1.091.004-.031.365-.02 1.01.075.645.093 1.571.295 2.68.67 2.207.733 5.156 2.319 7.556 5.01 2.4 2.69 3.64 5.802 4.117 8.078.246 1.143.341 2.086.36 2.738.021.652-.009 1.012-.04 1.012" transform="translate(79) translate(68 .682)"/>
                <path fill="#ECECEC" d="M290.501 130.75l-6.525 9.443s9.973-1.175 18.701 4.371l6.047-10.117s-9.24-7.252-18.223-3.697" transform="translate(79) translate(68 .682)"/>
            </g>
            <g fill="#F36">
                <path d="M175.046 12.11c.296-1.472.036-3.024-.572-4.397-.597-1.346-1.55-2.562-2.822-3.302-1.351-.785-3.031-.984-4.528-.537-.891.265-1.711.758-2.376 1.406-.181-.824-.54-1.61-1.056-2.278-.954-1.238-2.433-2.058-3.99-2.21-1.464-.143-2.947.288-4.218 1.03-1.295.76-2.413 1.869-3.034 3.236-.776 1.714-1.06 3.772-.633 5.604.452 1.935 1.604 3.752 2.91 5.25 2.194 2.519 5.117 5.729 5.117 5.729s3.762-1.29 7.014-2.051c1.935-.454 3.93-1.254 5.428-2.561 1.418-1.237 2.39-3.073 2.76-4.918M153.264 38.737c-.235-.676-.718-1.25-1.3-1.666-.57-.408-1.255-.676-1.955-.672-.745.005-1.482.33-1.99.875-.3.324-.517.725-.633 1.152-.273-.294-.611-.53-.984-.68-.692-.277-1.496-.255-2.172.06-.635.294-1.14.83-1.481 1.442-.348.625-.54 1.35-.463 2.062.096.891.477 1.804 1.096 2.452.653.685 1.566 1.151 2.464 1.451 1.51.502 3.485 1.112 3.485 1.112s1.233-1.439 2.382-2.539c.685-.653 1.31-1.465 1.609-2.363.282-.85.236-1.839-.058-2.686M11.44 186.408c.159-.698.054-1.44-.22-2.101-.268-.648-.707-1.238-1.304-1.605-.635-.39-1.432-.504-2.15-.31-.428.117-.824.34-1.148.642-.076-.394-.238-.772-.476-1.097-.44-.601-1.135-1.008-1.873-1.1-.696-.084-1.408.103-2.021.443-.626.346-1.172.86-1.483 1.504-.39.807-.55 1.784-.368 2.66.192.928.72 1.806 1.324 2.535 1.015 1.225 2.369 2.789 2.369 2.789s1.807-.57 3.365-.895c.926-.193 1.886-.551 2.614-1.155.69-.573 1.174-1.436 1.372-2.31M210.068 187.632c-.147-.425-.45-.785-.816-1.047-.359-.256-.788-.425-1.229-.422-.468.003-.932.207-1.249.55-.189.204-.326.455-.399.723-.172-.184-.384-.333-.619-.427-.433-.174-.939-.16-1.364.037-.399.186-.716.523-.93.907-.219.393-.338.848-.29 1.295.06.56.3 1.134.688 1.54.41.43.983.724 1.548.912.948.316 2.19.7 2.19.7s.774-.905 1.496-1.596c.43-.41.823-.921 1.01-1.485.177-.534.15-1.155-.036-1.687M22.446 154.047c-.147-.425-.45-.786-.816-1.047-.358-.256-.788-.425-1.229-.422-.468.003-.93.207-1.249.55-.189.203-.326.455-.398.723-.173-.185-.385-.333-.619-.427-.434-.174-.94-.16-1.364.037-.4.186-.717.522-.93.907-.22.392-.339.848-.29 1.295.06.56.298 1.134.687 1.54.411.43.984.724 1.548.912.948.316 2.19.699 2.19.699s.774-.904 1.496-1.595c.43-.411.823-.921 1.01-1.485.177-.535.15-1.156-.036-1.687M197.75 28.141c-.149-.425-.452-.785-.817-1.047-.359-.256-.789-.425-1.229-.422-.468.003-.932.207-1.25.55-.188.204-.325.455-.398.723-.172-.184-.384-.333-.619-.427-.434-.174-.94-.16-1.364.037-.399.186-.716.523-.93.907-.219.393-.338.848-.29 1.295.06.56.3 1.134.688 1.541.41.43.983.723 1.547.911.95.316 2.19.7 2.19.7s.774-.905 1.496-1.596c.43-.41.824-.92 1.01-1.485.178-.534.15-1.155-.035-1.687M195.763 163.92c.107-1.301-.273-2.614-.937-3.738-.65-1.101-1.594-2.055-2.766-2.565-1.246-.542-2.715-.545-3.963-.01-.742.32-1.4.828-1.908 1.455-.24-.693-.628-1.335-1.14-1.861-.95-.972-2.307-1.53-3.666-1.504-1.278.023-2.516.544-3.536 1.314-1.042.785-1.895 1.854-2.293 3.097-.498 1.557-.536 3.362.018 4.9.585 1.624 1.76 3.076 3.039 4.237 2.146 1.953 4.993 4.43 4.993 4.43s3.116-1.491 5.847-2.477c1.624-.586 3.265-1.478 4.426-2.756 1.099-1.21 1.752-2.893 1.886-4.522" transform="translate(79) translate(123 6.682)"/>
            </g>
        </g>
    </g>
</svg>
