<svg xmlns="http://www.w3.org/2000/svg" xmlns:xlink="http://www.w3.org/1999/xlink" width="540" height="500" viewBox="0 0 540 500">
    <defs>
        <linearGradient id="prefix__a" x1="63.12%" x2="23.927%" y1="28.952%" y2="67.365%">
            <stop offset="0%" stop-color="#EEE" stop-opacity="0"/>
            <stop offset="100%" stop-color="#F1F1F1"/>
        </linearGradient>
        <path id="prefix__b" d="M0.395 0.768L30.905 0.768 30.905 16 0.395 16z"/>
    </defs>
    <g fill="none" fill-rule="evenodd">
        <path fill="url(#prefix__a)" d="M126.267 124.808c-98.112 3.642-222.053 329.85-9.617 341.47 212.436 11.618 157.606 47.736 255.485 27.492 97.879-20.245 241.528-227.951 122.114-274.758-119.415-46.807-269.871-97.846-367.982-94.204z"/>
        <g>
            <path fill="#FFF" d="M49.674 168.344L174.89 168.344 174.89 84.504 49.674 84.504z" transform="translate(41.249)"/>
            <g>
                <path fill="#E1E1E1" d="M125.89 167.652s-.013-.524-.02-1.525c-.004-1.008-.01-2.49-.02-4.424l-.044-16.862-.094-61.03.178.18-125.206.045h-.01l.224-.224-.018 83.84-.206-.206c36.861.04 68.139.077 90.21.102l25.773.055 6.856.025 1.77.012c.398.004.608.012.608.012s-.194.008-.584.012l-1.748.012-6.813.025-25.727.055-90.345.102H.47v-.206l-.018-83.84v-.224h.233l125.207.044h.18v.18l-.096 61.14-.044 16.823c-.01 1.92-.016 3.39-.02 4.39-.008.988-.02 1.487-.02 1.487" transform="translate(41.249) translate(49 .692)"/>
                <path fill="#E1E1E1" d="M.675 91.294c0-.124 28.01-.225 62.553-.225 34.555 0 62.559.101 62.559.225s-28.004.224-62.56.224c-34.542 0-62.552-.1-62.552-.224M5.615 87.52c0 .554-.45 1.003-1.003 1.003-.555 0-1.004-.45-1.004-1.003 0-.554.449-1.003 1.004-1.003.554 0 1.003.449 1.003 1.003M9.054 87.52c0 .554-.45 1.003-1.003 1.003-.555 0-1.004-.45-1.004-1.003 0-.554.449-1.003 1.004-1.003.554 0 1.003.449 1.003 1.003M12.443 87.52c0 .554-.45 1.003-1.003 1.003-.555 0-1.004-.45-1.004-1.003 0-.554.449-1.003 1.004-1.003.554 0 1.003.449 1.003 1.003M11.44 133.438L44.841 133.438 44.841 100.037 11.44 100.037zM108.72 109.478c0 .124-13.028.225-29.094.225-16.07 0-29.095-.1-29.095-.225 0-.124 13.024-.225 29.095-.225 16.066 0 29.093.101 29.093.225M108.72 115.685c0 .124-13.028.225-29.094.225-16.07 0-29.095-.101-29.095-.225s13.024-.224 29.095-.224c16.066 0 29.093.1 29.093.224M108.72 121.892c0 .124-13.028.225-29.094.225-16.07 0-29.095-.101-29.095-.225s13.024-.224 29.095-.224c16.066 0 29.093.1 29.093.224M84.921 128.099c0 .03-.48.06-1.352.087l-3.685.072c-3.11.04-7.41.066-12.157.066-4.75 0-9.049-.025-12.16-.066l-3.686-.072c-.869-.026-1.35-.056-1.35-.087 0-.031.481-.061 1.35-.087l3.686-.072c3.111-.04 7.41-.065 12.16-.065 4.747 0 9.046.025 12.157.065l3.685.072c.871.026 1.352.056 1.352.087M13.529 160.397L29.226 160.397 29.226 144.7 13.529 144.7zM41.996 160.397L57.693 160.397 57.693 144.7 41.996 144.7zM70.464 160.397L86.161 160.397 86.161 144.7 70.464 144.7zM98.93 160.397L114.627 160.397 114.627 144.7 98.93 144.7zM355.055 105.029s-.123.56-.685 1.416c-.55.837-1.654 1.975-3.433 2.515-.879.26-1.912.375-2.983.174-1.06-.203-2.175-.66-3.095-1.475-.469-.393-.883-.876-1.226-1.417-.35-.536-.624-1.141-.794-1.786-.368-1.284-.3-2.732.198-4.057.52-1.318 1.442-2.438 2.577-3.142.558-.365 1.168-.63 1.788-.792.617-.172 1.247-.251 1.86-.228 1.23.013 2.361.422 3.285.983.927.57 1.616 1.349 2.093 2.132.956 1.594 1.01 3.177.857 4.168-.158 1.01-.442 1.509-.442 1.509-.043-.013.19-.533.302-1.526.106-.975.01-2.502-.937-4.016-.47-.743-1.14-1.477-2.032-2.01-.887-.524-1.968-.903-3.134-.905-.58-.018-1.177.062-1.76.228-.586.157-1.162.41-1.688.757-1.07.67-1.937 1.728-2.429 2.972-.469 1.253-.538 2.617-.193 3.833.157.61.413 1.184.743 1.694.321.514.71.973 1.152 1.349.866.78 1.921 1.226 2.93 1.433 1.02.203 2.007.109 2.856-.125 1.717-.487 2.814-1.555 3.39-2.35.583-.811.76-1.353.8-1.334" transform="translate(41.249) translate(49 .692)"/>
                <path fill="#E1E1E1" d="M361.03 111.062c-.002-.005.072.001.223.02l.672.083 2.65.355-.062.037c.538-1.417 1.244-3.28 2.097-5.534l.034.11-2.977-1.979-.054-.035.007-.065c.126-1.196.108-2.49-.11-3.827l-.01-.07.058-.045 2.863-2.145-.041.157-2.412-5.404.158.083-3.508.7-.09.017-.057-.07c-.744-.927-1.684-1.848-2.768-2.629l-.077-.056.013-.095.512-3.538.103.175-5.526-2.12.202-.065-1.988 2.971-.058.087-.104-.01c-1.188-.13-2.505-.113-3.811.098l-.105.017-.063-.086-2.14-2.867.216.056-5.41 2.403.106-.2.692 3.51.022.107-.086.068c-.944.758-1.858 1.697-2.625 2.757l-.001.001v.001l-.175.074h-.003l-.008-.002-.013-.002-.028-.004-.055-.008-.113-.016-.222-.033-.445-.065-.887-.129-1.764-.259.196-.114-2.13 5.522-.067-.215 2.969 1.992.09.061-.012.107c-.14 1.282-.105 2.567.094 3.81l.016.106-.086.064-2.87 2.135.056-.21 2.393 5.411-.185-.096 3.51-.688.097-.019.063.077c.814 1.017 1.749 1.902 2.759 2.635l.077.057-.014.094-.522 3.536-.096-.163 5.517 2.14-.166.053 1.999-2.965.044-.066.079.01c1.357.15 2.632.098 3.824-.087l.07-.01.044.057 2.128 2.875-.13-.034 5.42-2.376-.047.09-.67-3.513-.007-.035.028-.022c1.017-.81 1.67-1.529 2.087-2.012l.457-.554c.1-.129.15-.187.153-.182.002.004-.042.073-.13.2-.092.13-.231.324-.433.574-.405.498-1.046 1.235-2.06 2.065l.02-.057.715 3.505.013.064-.06.026-5.4 2.424-.077.035-.052-.069-2.146-2.86.114.046c-1.21.195-2.507.254-3.89.11l.122-.059-1.983 2.975-.062.093-.104-.04-5.526-2.118-.113-.043.018-.12.51-3.539.063.151c-1.033-.747-1.992-1.648-2.828-2.687l.158.058-3.508.697-.132.026-.054-.123-2.404-5.406-.057-.127.11-.083c.944-.703 1.899-1.416 2.867-2.139l-.068.17c-.205-1.274-.243-2.59-.1-3.905l.078.167-2.971-1.989-.12-.08.053-.135 2.125-5.523.053-.136.144.021 1.763.258.888.13.444.065.223.032.112.016.056.01.027.003.014.002.008.001.003.001c-.348.146-.096.04-.173.072v-.002c.787-1.087 1.725-2.05 2.693-2.826l-.064.177-.691-3.51-.03-.142.133-.059 5.41-2.397.132-.058.085.115 2.135 2.87-.17-.069c1.339-.214 2.687-.23 3.904-.095l-.162.075 1.994-2.967.075-.113.126.05 5.52 2.134.12.047-.018.128-.522 3.537-.063-.15c1.106.802 2.063 1.746 2.82 2.694l-.147-.053 3.51-.686.113-.022.046.105 2.388 5.414.042.095-.083.062c-1.01.747-1.98 1.466-2.875 2.13l.047-.116c.213 1.36.22 2.675.085 3.888l-.047-.1 2.962 2.002.06.042-.025.068-2.16 5.51-.018.044-.046-.007-2.62-.414-.676-.113c-.153-.026-.231-.043-.233-.047M390.54 88.222c1.046-2.714-.306-5.763-3.02-6.809-2.714-1.045-5.763.307-6.809 3.021-1.046 2.714.307 5.763 3.02 6.81 2.714 1.044 5.763-.307 6.81-3.022zm4.957 5.005c-.637.878-1.38 1.655-2.207 2.318l.574 2.911-4.488 1.991-1.773-2.379c-1.046.167-2.122.198-3.2.08l-1.652 2.465-4.58-1.767.428-2.935c-.878-.636-1.655-1.38-2.318-2.208l-2.912.575-1.99-4.487 2.38-1.774c-.168-1.046-.198-2.12-.08-3.2l-2.465-1.65 1.765-4.583 2.936.43c.636-.879 1.381-1.655 2.207-2.319l-.574-2.912 4.487-1.99 1.774 2.38c1.045-.168 2.121-.198 3.2-.08l1.651-2.465 4.581 1.766-.429 2.935c.878.636 1.656 1.381 2.32 2.207l2.911-.574 1.99 4.488-2.38 1.773c.167 1.046.2 2.121.08 3.2l2.464 1.652-1.765 4.581-2.935-.429zM368.386 58.027c1.64-4.256-.479-9.037-4.736-10.678-4.257-1.64-9.037.481-10.678 4.737-1.64 4.257.48 9.037 4.736 10.677 4.257 1.64 9.037-.48 10.678-4.736zm7.772 7.85c-.998 1.375-2.165 2.593-3.46 3.633l.901 4.566-7.038 3.122-2.78-3.732c-1.64.262-3.328.311-5.019.127l-2.59 3.864-7.184-2.77.671-4.602c-1.377-.998-2.594-2.166-3.634-3.462l-4.566.901-3.122-7.038 3.732-2.78c-.262-1.64-.31-3.327-.126-5.019l-3.865-2.59 2.77-7.185 4.602.673c1-1.377 2.166-2.594 3.462-3.635l-.9-4.567 7.037-3.12 2.78 3.731c1.641-.262 3.328-.309 5.02-.126l2.59-3.863 7.183 2.768-.673 4.603c1.378.998 2.596 2.166 3.636 3.462l4.566-.9 3.122 7.036-3.732 2.781c.262 1.641.31 3.327.126 5.018l3.864 2.59-2.769 7.184-4.604-.67zM301.566 28.756c-.017-.018.17-.229.523-.595l1.52-1.527c1.293-1.277 3.097-3.025 5.103-4.939l.046-.043.002.258c-2.022-1.879-3.838-3.592-5.138-4.843l-1.53-1.496c-.354-.359-.543-.565-.526-.584.017-.018.236.155.62.483l1.605 1.413c1.343 1.206 3.186 2.889 5.209 4.767l.137.128-.135.13-.046.044c-2.007 1.914-3.838 3.633-5.175 4.864l-1.597 1.445c-.382.335-.601.513-.618.495M285.958 14.987c.017.018-.17.23-.524.595l-1.519 1.527c-1.294 1.277-3.097 3.024-5.104 4.94l-.045.042-.002-.258c2.022 1.88 3.837 3.591 5.138 4.843l1.53 1.496c.354.36.543.565.526.584-.017.017-.236-.156-.62-.483l-1.605-1.413c-1.344-1.206-3.186-2.889-5.209-4.767l-.138-.128.136-.13.046-.044c2.007-1.914 3.837-3.633 5.175-4.864l1.597-1.445c.382-.336.601-.513.618-.495M289.964 32c-.09-.036 1.547-4.64 3.658-10.286 2.113-5.646 3.9-10.194 3.99-10.16.09.034-1.547 4.638-3.66 10.285-2.11 5.645-3.897 10.194-3.988 10.16" transform="translate(41.249) translate(49 .692)"/>
                <path fill="#E1E1E1" d="M319.302 41.852s-.01-.268-.017-.77l-.016-2.215-.038-8.39-.076-29.992.147.147c-14.522.01-31.986.02-50.765.03h-.005l.177-.177-.018 41.367-.159-.158 36.661.08 10.39.041c1.198.008 2.121.015 2.758.018l.713.01c.161.003.248.01.248.01s-.074.005-.229.008l-.697.01c-.629.003-1.542.01-2.726.018l-10.356.042c-8.939.02-21.646.046-36.762.08h-.157v-.159c-.006-12.29-.01-26.413-.018-41.367V.308h.18l50.765.03h.147v.147l-.077 30.084c-.015 3.597-.029 6.42-.038 8.357l-.016 2.187c-.005.493-.016.74-.016.74" transform="translate(41.249) translate(49 .692)"/>
                <path fill="#E1E1E1" d="M319.7 6.623c0 .098-11.46.177-25.593.177-14.138 0-25.595-.079-25.595-.177 0-.098 11.457-.177 25.595-.177 14.133 0 25.593.08 25.593.177M272.676 3.604c0 .38-.306.687-.684.687-.377 0-.683-.308-.683-.687 0-.379.306-.687.683-.687.378 0 .684.308.684.687M275.167 3.604c0 .38-.306.687-.683.687-.378 0-.683-.308-.683-.687 0-.379.305-.687.683-.687.377 0 .683.308.683.687M277.66 3.604c0 .38-.307.687-.685.687-.377 0-.683-.308-.683-.687 0-.379.306-.687.684-.687.377 0 .683.308.683.687" transform="translate(41.249) translate(49 .692)"/>
                <path fill="#FFF" d="M103.778 68.117L221.161 68.117 221.161 20.437 103.778 20.437z" transform="translate(41.249) translate(49 .692)"/>
                <path fill="#E1E1E1" d="M221.161 68.117s-.008-.293-.013-.852c-.004-.565-.007-1.39-.013-2.474l-.034-9.488-.07-34.865.13.13-117.376.055h-.007l.186-.185-.007 47.68-.178-.179 84.16.084 24.415.05 6.535.022 1.691.011c.382.004.581.011.581.011s-.185.007-.559.011l-1.67.011-6.498.022c-5.689.012-13.969.03-24.374.05l-84.282.084h-.178v-.178c-.001-14.866-.004-30.983-.007-47.679v-.186h.192l117.376.055h.131v.131l-.07 34.944c-.014 4.104-.026 7.291-.032 9.46l-.014 2.45c-.005.55-.014.825-.014.825" transform="translate(41.249) translate(49 .692)"/>
                <path fill="#E1E1E1" d="M103.896 26.868c0-.103 26.237-.186 58.596-.186 32.369 0 58.6.083 58.6.186s-26.231.186-58.6.186c-32.36 0-58.596-.083-58.596-.186" transform="translate(41.249) translate(49 .692)"/>
                <path fill="#ECECEC" d="M108.81 23.992c0 .47-.382.852-.852.852s-.852-.381-.852-.852c0-.47.382-.852.852-.852s.852.382.852.852M111.729 23.992c0 .47-.381.852-.852.852-.47 0-.852-.381-.852-.852 0-.47.382-.852.852-.852s.852.382.852.852M114.606 23.992c0 .47-.38.852-.852.852-.47 0-.852-.381-.852-.852 0-.47.382-.852.852-.852.471 0 .852.382.852.852" transform="translate(41.249) translate(49 .692)"/>
                <path fill="#E1E1E1" d="M113.754 62.97L142.107 62.97 142.107 34.617 113.754 34.617zM213.04 42.215c0 .103-14.59.186-32.584.186-18 0-32.586-.083-32.586-.186s14.586-.186 32.586-.186c17.993 0 32.584.083 32.584.186M213.04 47.991c0 .103-14.59.186-32.584.186-18 0-32.586-.083-32.586-.186s14.586-.186 32.586-.186c17.993 0 32.584.083 32.584.186M189.823 53.767c0 .013-.146.025-.426.038l-1.222.035c-1.112.014-2.635.034-4.496.06l-14.832.053c-5.771-.02-10.993-.04-14.833-.054l-4.496-.059-1.222-.035c-.28-.013-.426-.025-.426-.038 0-.013.147-.025.426-.037l1.222-.035 4.496-.059 14.833-.055 14.832.055c1.86.024 3.384.044 4.496.06l1.222.034c.28.012.426.024.426.037" transform="translate(41.249) translate(49 .692)"/>
            </g>
            <path fill="#1A2E35" d="M453.803 413.175c0 .144-99.786.26-222.85.26-123.109 0-222.874-.116-222.874-.26 0-.144 99.765-.261 222.873-.261 123.065 0 222.851.117 222.851.261" transform="translate(41.249)"/>
            <path fill="#E1E1E1" d="M275.976 217.654L416.105 217.654 416.105 103.494 275.976 103.494z" transform="translate(41.249)"/>
            <path fill="#ECECEC" d="M266.012 224.911L406.141 224.911 406.141 110.751 266.012 110.751z" transform="translate(41.249)"/>
            <path fill="#FFF" d="M252.284 235.904L396.152 235.904 396.152 118.699 252.284 118.699z" transform="translate(41.249)"/>
            <g>
                <path fill="#1A2E35" d="M370.152 213.213s-.016-.743-.023-2.161l-.026-6.258-.055-23.75-.113-85.038.217.218c-41.155.011-90.647.027-143.855.043h-.013l.26-.26-.028 117.204-.232-.23 103.96.115 29.418.061 7.794.028 2.008.013c.452.004.688.014.688.014s-.22.01-.662.014l-1.983.012-7.748.029-29.365.06c-25.294.03-61.283.07-104.11.118h-.233v-.233c-.007-34.802-.017-74.822-.027-117.205v-.26h.273l143.855.043h.218v.216l-.113 85.174-.056 23.701-.025 6.218c-.007 1.401-.024 2.114-.024 2.114" transform="translate(41.249) translate(26 22.692)"/>
                <path fill="#FF4F5B" d="M243.819 112.944L242.275 113.51 243.819 114.07 243.819 114.65 241.612 113.811 241.612 113.209 243.819 112.368zM247.462 111.886L247.462 115.133 246.71 115.133 246.71 113.802 245.235 113.802 245.235 115.133 244.483 115.133 244.483 111.886 245.235 111.886 245.235 113.166 246.71 113.166 246.71 111.886zM248.901 112.498L247.862 112.498 247.862 111.886 250.692 111.886 250.692 112.498 249.653 112.498 249.653 115.133 248.901 115.133zM254.047 115.133L254.042 113.185 253.087 114.79 252.748 114.79 251.797 113.227 251.797 115.133 251.092 115.133 251.092 111.886 251.714 111.886 252.929 113.904 254.126 111.886 254.742 111.886 254.752 115.133zM255.517 111.886L256.269 111.886 256.269 114.521 257.897 114.521 257.897 115.133 255.517 115.133zM260.426 113.208L260.426 113.811 258.219 114.65 258.219 114.07 259.763 113.509 258.219 112.943 258.219 112.368zM242.508 201.825L240.963 202.39 242.508 202.952 242.508 203.532 240.299 202.692 240.299 202.09 242.508 201.25zM244.165 200.108L244.81 200.108 243.279 204.478 242.634 204.478zM247.967 200.767L247.967 204.014 247.215 204.014 247.215 202.683 245.74 202.683 245.74 204.014 244.988 204.014 244.988 200.767 245.74 200.767 245.74 202.047 247.215 202.047 247.215 200.767zM249.406 201.38L248.367 201.38 248.367 200.768 251.196 200.768 251.196 201.38 250.157 201.38 250.157 204.014 249.406 204.014zM254.552 204.014L254.547 202.066 253.592 203.67 253.253 203.67 252.302 202.108 252.302 204.014 251.597 204.014 251.597 200.767 252.219 200.767 253.434 202.785 254.631 200.767 255.248 200.767 255.257 204.014zM256.023 200.767L256.775 200.767 256.775 203.402 258.403 203.402 258.403 204.014 256.023 204.014zM260.932 202.089L260.932 202.692 258.725 203.531 258.725 202.951 260.269 202.39 258.725 201.824 258.725 201.249z" transform="translate(41.249) translate(26 22.692)"/>
                <path fill="#000" d="M254.007 121.832L252.361 122.467 254.007 123.103 254.007 123.488 251.929 122.667 251.929 122.268 254.007 121.447zM257.595 120.844L257.595 124.091 257.131 124.091 257.131 122.644 255.267 122.644 255.267 124.091 254.803 124.091 254.803 120.844 255.267 120.844 255.267 122.24 257.131 122.24 257.131 120.844zM260.922 123.688L260.922 124.091 258.566 124.091 258.566 120.844 260.857 120.844 260.857 121.248 259.029 121.248 259.029 122.245 260.657 122.245 260.657 122.639 259.029 122.639 259.029 123.688zM263.577 122.908l-.7-1.59-.7 1.59h1.4zm.161.371h-1.724l-.358.812h-.478l1.47-3.247h.46l1.476 3.247h-.488l-.358-.812zM266.403 123.688c.802 0 1.316-.492 1.316-1.22s-.514-1.22-1.316-1.22h-.877v2.44h.877zm-1.341-2.844h1.368c1.044 0 1.754.659 1.754 1.624 0 .965-.71 1.623-1.754 1.623h-1.368v-3.247zM270.791 122.268L270.791 122.667 268.713 123.488 268.713 123.103 270.364 122.468 268.713 121.832 268.713 121.447zM254.007 132.953L252.361 133.589 254.007 134.224 254.007 134.609 251.929 133.788 251.929 133.39 254.007 132.568zM255.448 132.369L254.335 132.369 254.335 131.965 257.02 131.965 257.02 132.369 255.907 132.369 255.907 135.212 255.448 135.212zM257.523 135.212L257.987 135.212 257.987 131.965 257.523 131.965zM259.604 132.369L258.491 132.369 258.491 131.965 261.176 131.965 261.176 132.369 260.063 132.369 260.063 135.212 259.604 135.212zM261.679 131.965L262.143 131.965 262.143 134.808 263.901 134.808 263.901 135.212 261.679 135.212zM266.788 134.809L266.788 135.213 264.433 135.213 264.433 131.966 266.724 131.966 266.724 132.37 264.896 132.37 264.896 133.367 266.524 133.367 266.524 133.761 264.896 133.761 264.896 134.809zM269.438 133.39L269.438 133.788 267.36 134.61 267.36 134.225 269.011 133.589 267.36 132.953 267.36 132.569zM271.48 131.965L271.944 131.965 271.944 134.808 273.702 134.808 273.702 135.212 271.48 135.212zM276.014 133.983c0-.524-.353-.863-.826-.863s-.83.34-.83.863c0 .524.357.868.83.868s.826-.344.826-.868m-2.105 0c0-.733.542-1.252 1.279-1.252.738 0 1.276.52 1.276 1.252s-.538 1.257-1.276 1.257c-.737 0-1.279-.525-1.279-1.257M278.4 132.73v.433c-.037-.005-.07-.005-.103-.005-.477 0-.774.292-.774.83v1.225h-.445v-2.46h.426v.415c.159-.29.464-.437.896-.437M279.139 133.812h1.578c-.047-.413-.357-.705-.789-.705-.427 0-.742.288-.789.705m1.995.32h-1.995c.057.43.404.719.891.719.288 0 .529-.098.71-.297l.246.288c-.223.26-.562.399-.97.399-.793 0-1.322-.525-1.322-1.257 0-.73.524-1.253 1.234-1.253s1.215.51 1.215 1.267c0 .037-.004.092-.009.134M285.84 133.798v1.415h-.446v-1.364c0-.483-.232-.72-.636-.72-.445 0-.737.284-.737.817v1.267h-.446v-1.364c0-.483-.23-.72-.635-.72-.446 0-.738.284-.738.817v1.267h-.445v-2.46h.427v.367c.176-.25.478-.39.85-.39.374 0 .69.149.853.456.185-.28.528-.455.945-.455.6 0 1.007.343 1.007 1.067M287.902 135.212h.445v-2.458h-.445v2.458zm-.079-3.219c0-.162.13-.292.301-.292.172 0 .302.125.302.283 0 .167-.125.297-.302.297-.171 0-.301-.126-.301-.288zM291.291 133.983c0-.52-.357-.863-.83-.863-.469 0-.826.344-.826.863 0 .524.357.868.826.868.473 0 .83-.344.83-.868m.45 0c0 .756-.524 1.257-1.243 1.257-.348 0-.654-.135-.858-.399v1.272h-.446v-3.358h.427v.388c.2-.273.516-.412.877-.412.72 0 1.243.5 1.243 1.252M292.044 134.953l.186-.353c.21.149.543.256.862.256.413 0 .585-.126.585-.334 0-.552-1.554-.074-1.554-1.053 0-.441.395-.738 1.025-.738.32 0 .682.084.895.222l-.189.353c-.223-.144-.469-.194-.71-.194-.39 0-.58.143-.58.338 0 .58 1.558.107 1.558 1.062 0 .445-.408.729-1.062.729-.409 0-.812-.125-1.016-.288M296.97 132.754v2.458h-.423v-.371c-.182.256-.487.399-.836.399-.635 0-1.056-.347-1.056-1.071v-1.415h.445v1.364c0 .482.24.723.663.723.464 0 .761-.287.761-.816v-1.271h.445zM301.896 133.798v1.415h-.445v-1.364c0-.483-.232-.72-.636-.72-.445 0-.737.284-.737.817v1.267h-.446v-1.364c0-.483-.231-.72-.635-.72-.446 0-.738.284-.738.817v1.267h-.445v-2.46h.427v.367c.176-.25.478-.39.849-.39.375 0 .69.149.854.456.185-.28.528-.455.945-.455.599 0 1.007.343 1.007 1.067M305.925 132.953L304.279 133.589 305.925 134.224 305.925 134.609 303.847 133.788 303.847 133.39 305.925 132.568zM307.635 131.307L308.038 131.307 306.507 135.677 306.104 135.677zM309.135 132.369L308.022 132.369 308.022 131.965 310.707 131.965 310.707 132.369 309.594 132.369 309.594 135.212 309.135 135.212zM311.211 135.212L311.675 135.212 311.675 131.965 311.211 131.965zM313.292 132.369L312.179 132.369 312.179 131.965 314.864 131.965 314.864 132.369 313.751 132.369 313.751 135.212 313.292 135.212zM315.368 131.965L315.832 131.965 315.832 134.808 317.59 134.808 317.59 135.212 315.368 135.212zM320.477 134.809L320.477 135.213 318.121 135.213 318.121 131.966 320.412 131.966 320.412 132.37 318.584 132.37 318.584 133.367 320.212 133.367 320.212 133.761 318.584 133.761 318.584 134.809zM323.126 133.39L323.126 133.788 321.048 134.61 321.048 134.225 322.699 133.589 321.048 132.953 321.048 132.569zM254.007 144.074L252.361 144.71 254.007 145.345 254.007 145.73 251.929 144.909 251.929 144.511 254.007 143.689zM255.717 142.428L256.12 142.428 254.589 146.798 254.186 146.798zM259.226 143.087L259.226 146.333 258.762 146.333 258.762 144.887 256.898 144.887 256.898 146.333 256.434 146.333 256.434 143.087 256.898 143.087 256.898 144.482 258.762 144.482 258.762 143.087zM262.553 145.93L262.553 146.334 260.197 146.334 260.197 143.087 262.488 143.087 262.488 143.491 260.66 143.491 260.66 144.488 262.288 144.488 262.288 144.882 260.66 144.882 260.66 145.93zM265.207 145.15l-.7-1.59-.7 1.59h1.4zm.162.371h-1.725l-.357.813h-.478l1.47-3.248h.46l1.475 3.247h-.487l-.358-.811zM268.034 145.93c.803 0 1.318-.491 1.318-1.22 0-.728-.515-1.22-1.318-1.22h-.876v2.44h.876zm-1.34-2.843h1.368c1.044 0 1.753.658 1.753 1.623s-.71 1.624-1.753 1.624h-1.368v-3.247zM272.422 144.511L272.422 144.909 270.344 145.731 270.344 145.346 271.995 144.71 270.344 144.074 270.344 143.69zM245.393 153.727L243.747 154.362 245.393 154.998 245.393 155.383 243.315 154.562 243.315 154.163 245.393 153.342zM248.512 155.071c0-.375-.277-.542-.793-.542h-1.066v1.08h1.066c.516 0 .793-.162.793-.538zm-1.859-1.957v1.04h.951c.472 0 .742-.178.742-.52 0-.344-.27-.52-.742-.52h-.95zm2.328 1.994c0 .557-.422.877-1.243.877h-1.549v-3.247h1.456c.747 0 1.164.315 1.164.84 0 .352-.18.598-.436.723.367.102.608.376.608.807zM252.42 154.362c0-.72-.539-1.248-1.258-1.248-.728 0-1.266.529-1.266 1.248s.538 1.248 1.266 1.248c.72 0 1.257-.53 1.257-1.248m-2.987 0c0-.951.732-1.661 1.73-1.661.988 0 1.721.705 1.721 1.66 0 .957-.733 1.662-1.72 1.662-.999 0-1.73-.71-1.73-1.661M254.93 155.582c.802 0 1.316-.492 1.316-1.22s-.514-1.22-1.316-1.22h-.877v2.44h.877zm-1.34-2.844h1.367c1.044 0 1.754.66 1.754 1.624 0 .965-.71 1.623-1.754 1.623h-1.368v-3.247zM258.521 154.863L258.521 155.986 258.061 155.986 258.061 154.854 256.772 152.738 257.268 152.738 258.307 154.45 259.351 152.738 259.81 152.738zM262.177 154.162L262.177 154.561 260.099 155.382 260.099 154.997 261.75 154.362 260.099 153.726 260.099 153.341zM245.393 164.848L243.747 165.484 245.393 166.119 245.393 166.504 243.315 165.683 243.315 165.285 245.393 164.463zM248.981 163.86L248.981 167.107 248.517 167.107 248.517 165.66 246.653 165.66 246.653 167.107 246.189 167.107 246.189 163.86 246.653 163.86 246.653 165.256 248.517 165.256 248.517 163.86zM250.694 163.86L250.694 167.107 250.235 167.107 250.235 164.264 249.502 164.264 249.502 163.86zM253.567 165.284L253.567 165.682 251.489 166.504 251.489 166.119 253.14 165.483 251.489 164.847 251.489 164.463zM255.651 163.86L255.994 163.86 255.994 166.81 257.812 166.81 257.812 167.107 255.651 167.107zM260.175 165.887c0-.57-.386-.951-.905-.951-.52 0-.908.38-.908.95 0 .572.388.952.908.952s.905-.38.905-.951m-2.147 0c0-.724.528-1.238 1.242-1.238.715 0 1.24.514 1.24 1.238s-.525 1.243-1.24 1.243c-.714 0-1.242-.52-1.242-1.243M262.408 164.649v.32c-.028 0-.056-.005-.08-.005-.51 0-.82.325-.82.9v1.243h-.33v-2.44h.316v.477c.153-.323.464-.495.914-.495M263.06 165.743h1.73c-.041-.478-.39-.812-.867-.812-.472 0-.821.334-.862.812m2.04.246h-2.04c.037.51.427.85.96.85.297 0 .56-.108.747-.322l.186.214c-.22.26-.557.4-.942.4-.762 0-1.281-.52-1.281-1.244s.506-1.239 1.192-1.239c.687 0 1.183.506 1.183 1.24 0 .027-.004.064-.004.101M269.802 165.692v1.415h-.329v-1.382c0-.514-.26-.78-.7-.78-.5 0-.817.326-.817.882v1.28h-.329v-1.382c0-.514-.26-.78-.705-.78-.497 0-.816.326-.816.882v1.28h-.33v-2.44h.315v.446c.172-.292.487-.464.896-.464.403 0 .718.172.867.514.177-.316.524-.514.965-.514.593 0 .983.343.983 1.043M271.906 167.107h.329v-2.44h-.329v2.44zm-.075-3.21c0-.125.107-.232.242-.232.134 0 .241.102.241.228 0 .134-.102.241-.241.241-.135 0-.242-.107-.242-.237zM275.296 165.887c0-.565-.395-.951-.909-.951-.52 0-.909.386-.909.95 0 .572.39.952.91.952.513 0 .908-.38.908-.951m.33 0c0 .742-.52 1.243-1.216 1.243-.39 0-.724-.167-.927-.482v1.359h-.33v-3.34h.315v.483c.2-.325.538-.501.942-.501.696 0 1.215.5 1.215 1.238M275.955 166.829l.148-.26c.196.153.525.274.87.274.462 0 .652-.158.652-.4 0-.635-1.58-.134-1.58-1.098 0-.4.342-.696.964-.696.315 0 .658.088.862.227l-.144.265c-.213-.15-.468-.21-.718-.21-.44 0-.636.172-.636.404 0 .659 1.582.162 1.582 1.1 0 .422-.37.695-1.007.695-.403 0-.793-.13-.993-.301M280.76 164.667v2.44h-.316v-.445c-.172.297-.488.468-.877.468-.62 0-1.03-.348-1.03-1.048v-1.415h.33v1.382c0 .52.268.784.732.784.511 0 .831-.329.831-.886v-1.28h.33zM285.705 165.692v1.415h-.329v-1.382c0-.514-.26-.78-.7-.78-.5 0-.817.326-.817.882v1.28h-.33v-1.382c0-.514-.26-.78-.705-.78-.496 0-.816.326-.816.882v1.28h-.329v-2.44h.315v.446c.172-.292.487-.464.896-.464.403 0 .718.172.867.514.177-.316.524-.514.965-.514.593 0 .983.343.983 1.043M289.711 165.887c0-.57-.39-.951-.904-.951-.52 0-.91.38-.91.95 0 .572.39.952.91.952.514 0 .904-.38.904-.951zm.324-2.222v3.442h-.315v-.482c-.199.329-.538.505-.942.505-.696 0-1.215-.505-1.215-1.243 0-.737.52-1.238 1.215-1.238.39 0 .724.167.928.482v-1.466h.33zM292.854 165.887c0-.57-.385-.951-.904-.951-.52 0-.91.38-.91.95 0 .572.39.952.91.952.519 0 .904-.38.904-.951m-2.148 0c0-.724.529-1.238 1.244-1.238.714 0 1.238.514 1.238 1.238s-.524 1.243-1.238 1.243c-.715 0-1.244-.52-1.244-1.243M293.857 167.107L294.186 167.107 294.186 163.665 293.857 163.665zM297.005 165.887c0-.57-.386-.951-.905-.951-.52 0-.908.38-.908.95 0 .572.388.952.908.952s.905-.38.905-.951m-2.147 0c0-.724.528-1.238 1.242-1.238.715 0 1.24.514 1.24 1.238s-.525 1.243-1.24 1.243c-.714 0-1.242-.52-1.242-1.243M299.238 164.649v.32c-.028 0-.056-.005-.08-.005-.51 0-.82.325-.82.9v1.243h-.33v-2.44h.316v.477c.153-.323.464-.495.914-.495M300.743 166.829l.148-.26c.195.153.524.274.868.274.463 0 .654-.158.654-.4 0-.635-1.582-.134-1.582-1.098 0-.4.343-.696.965-.696.315 0 .658.088.862.227l-.144.265c-.212-.15-.468-.21-.718-.21-.442 0-.636.172-.636.404 0 .659 1.582.162 1.582 1.1 0 .422-.371.695-1.007.695-.403 0-.793-.13-.992-.301M303.347 167.107h.329v-2.44h-.329v2.44zm-.074-3.21c0-.125.106-.232.241-.232s.241.102.241.228c0 .134-.101.241-.241.241-.135 0-.241-.107-.241-.237zM305.878 166.959c-.13.116-.325.17-.515.17-.459 0-.714-.258-.714-.708v-1.475h-.436v-.28h.436v-.532h.33v.533h.742v.279h-.742v1.456c0 .288.148.446.421.446.135 0 .27-.042.362-.126l.116.237zM309.202 166.374v-.399h-.767c-.471 0-.625.186-.625.436 0 .283.228.46.616.46.372 0 .646-.177.776-.497m.329-.779v1.512h-.315v-.38c-.15.25-.437.403-.84.403-.552 0-.891-.287-.891-.71 0-.375.24-.69.941-.69h.776v-.149c0-.418-.236-.645-.692-.645-.315 0-.613.111-.811.288l-.149-.246c.245-.209.608-.33.993-.33.63 0 .988.316.988.947M314.449 165.692v1.415h-.33v-1.382c0-.514-.26-.78-.7-.78-.5 0-.816.326-.816.882v1.28h-.33v-1.382c0-.514-.26-.78-.704-.78-.497 0-.816.326-.816.882v1.28h-.33v-2.44h.315v.446c.172-.292.487-.464.896-.464.403 0 .718.172.867.514.177-.316.524-.514.965-.514.593 0 .983.343.983 1.043M315.432 165.743h1.73c-.042-.478-.39-.812-.868-.812-.472 0-.821.334-.862.812m2.041.246h-2.041c.037.51.427.85.96.85.297 0 .561-.108.747-.322l.186.214c-.219.26-.557.4-.942.4-.762 0-1.281-.52-1.281-1.244s.506-1.239 1.192-1.239c.687 0 1.183.506 1.183 1.24 0 .027-.004.064-.004.101M319.432 166.959c-.13.116-.324.17-.515.17-.46 0-.714-.258-.714-.708v-1.475h-.436v-.28h.436v-.532h.329v.533h.742v.279h-.742v1.456c0 .288.148.446.422.446.134 0 .269-.042.362-.126l.116.237zM320.358 166.875c0 .08-.02.14-.064.27l-.196.64h-.222l.158-.674c-.098-.027-.168-.115-.168-.236 0-.144.107-.25.246-.25.144 0 .246.111.246.25M322.026 165.887c0-.728.529-1.238 1.258-1.238.412 0 .76.162.955.482l-.246.167c-.166-.246-.426-.362-.71-.362-.532 0-.923.38-.923.95 0 .576.39.952.924.952.283 0 .543-.111.709-.357l.246.167c-.194.315-.543.482-.955.482-.73 0-1.258-.514-1.258-1.243M326.74 165.887c0-.57-.384-.951-.903-.951-.52 0-.91.38-.91.95 0 .572.39.952.91.952.519 0 .904-.38.904-.951m-2.148 0c0-.724.529-1.238 1.244-1.238.714 0 1.238.514 1.238 1.238s-.524 1.243-1.238 1.243c-.715 0-1.244-.52-1.244-1.243M329.99 165.692v1.415h-.33v-1.382c0-.514-.27-.78-.732-.78-.524 0-.853.326-.853.882v1.28h-.33v-2.44h.315v.45c.177-.296.506-.468.928-.468.594 0 1.002.343 1.002 1.043M330.543 166.829l.148-.26c.195.153.524.274.868.274.463 0 .654-.158.654-.4 0-.635-1.582-.134-1.582-1.098 0-.4.343-.696.965-.696.315 0 .658.088.862.227l-.144.265c-.212-.15-.468-.21-.718-.21-.442 0-.636.172-.636.404 0 .659 1.582.162 1.582 1.1 0 .422-.37.695-1.007.695-.403 0-.793-.13-.992-.301M333.23 165.743h1.73c-.041-.478-.39-.812-.867-.812-.472 0-.821.334-.862.812m2.04.246h-2.04c.037.51.427.85.96.85.297 0 .56-.108.747-.322l.186.214c-.22.26-.557.4-.942.4-.762 0-1.281-.52-1.281-1.244s.506-1.239 1.192-1.239c.687 0 1.183.506 1.183 1.24 0 .027-.004.064-.004.101M335.7 165.887c0-.728.529-1.238 1.258-1.238.412 0 .76.162.955.482l-.246.167c-.166-.246-.426-.362-.71-.362-.532 0-.923.38-.923.95 0 .576.39.952.924.952.283 0 .543-.111.709-.357l.246.167c-.194.315-.543.482-.955.482-.73 0-1.258-.514-1.258-1.243M339.868 166.959c-.13.116-.324.17-.515.17-.46 0-.714-.258-.714-.708v-1.475h-.436v-.28h.436v-.532h.329v.533h.742v.279h-.742v1.456c0 .288.148.446.422.446.134 0 .269-.042.362-.126l.116.237zM340.46 165.743h1.73c-.042-.478-.389-.812-.868-.812-.472 0-.82.334-.862.812m2.041.246h-2.04c.036.51.426.85.96.85.296 0 .56-.108.746-.322l.186.214c-.218.26-.557.4-.943.4-.76 0-1.279-.52-1.279-1.244s.505-1.239 1.191-1.239c.687 0 1.184.506 1.184 1.24 0 .027-.005.064-.005.101M344.46 166.959c-.13.116-.325.17-.515.17-.459 0-.714-.258-.714-.708v-1.475h-.436v-.28h.436v-.532h.33v.533h.742v.279h-.742v1.456c0 .288.148.446.421.446.135 0 .27-.042.362-.126l.116.237zM347.255 164.667v2.44h-.315v-.445c-.172.297-.488.468-.877.468-.62 0-1.03-.348-1.03-1.048v-1.415h.33v1.382c0 .52.268.784.732.784.511 0 .831-.329.831-.886v-1.28h.33zM348.258 165.743h1.73c-.042-.478-.39-.812-.868-.812-.472 0-.82.334-.862.812m2.041.246h-2.04c.036.51.426.85.96.85.296 0 .56-.108.746-.322l.186.214c-.219.26-.557.4-.942.4-.762 0-1.28-.52-1.28-1.244s.505-1.239 1.191-1.239c.687 0 1.183.506 1.183 1.24 0 .027-.004.064-.004.101M352.204 164.649v.32c-.028 0-.057-.005-.08-.005-.51 0-.82.325-.82.9v1.243h-.33v-2.44h.315v.477c.154-.323.464-.495.915-.495M244.976 171.935v-.4h-.766c-.473 0-.626.187-.626.437 0 .283.227.459.618.459.371 0 .644-.176.774-.496m.329-.78v1.513h-.315v-.38c-.149.25-.437.403-.84.403-.552 0-.891-.287-.891-.71 0-.375.241-.691.943-.691h.774v-.148c0-.418-.237-.645-.691-.645-.316 0-.613.11-.812.288l-.148-.246c.246-.21.607-.33.992-.33.631 0 .988.316.988.947M248.109 171.447c0-.57-.39-.95-.905-.95-.52 0-.908.38-.908.95 0 .571.388.951.908.951.515 0 .905-.38.905-.95zm.324-2.222v3.442h-.315v-.482c-.2.33-.538.505-.942.505-.695 0-1.214-.505-1.214-1.243 0-.737.519-1.238 1.214-1.238.39 0 .724.167.928.482v-1.466h.329zM249.348 172.668h.33v-2.44h-.33v2.44zm-.074-3.21c0-.126.107-.232.241-.232.135 0 .241.102.241.227 0 .134-.101.241-.241.241-.134 0-.241-.107-.241-.236zM252.739 171.447c0-.565-.395-.95-.91-.95-.52 0-.908.385-.908.95 0 .571.389.951.909.951.514 0 .909-.38.909-.95m.329 0c0 .741-.52 1.242-1.216 1.242-.388 0-.722-.167-.927-.482v1.36h-.33v-3.34h.316v.482c.199-.325.538-.5.94-.5.698 0 1.217.5 1.217 1.237M253.737 172.668h.33v-2.44h-.33v2.44zm-.075-3.21c0-.126.108-.232.242-.232s.241.102.241.227c0 .134-.102.241-.241.241-.134 0-.242-.107-.242-.236zM254.645 172.39l.148-.26c.195.152.524.273.868.273.463 0 .654-.158.654-.399 0-.636-1.582-.135-1.582-1.099 0-.399.343-.696.965-.696.315 0 .658.088.862.227l-.144.265c-.212-.149-.468-.209-.718-.209-.442 0-.636.171-.636.403 0 .66 1.582.162 1.582 1.1 0 .422-.371.695-1.007.695-.403 0-.793-.13-.992-.3M257.004 171.447c0-.728.528-1.238 1.257-1.238.413 0 .761.162.955.482l-.245.167c-.168-.246-.428-.362-.71-.362-.534 0-.923.381-.923.951 0 .575.39.951.923.951.282 0 .542-.11.71-.357l.245.167c-.194.315-.542.482-.955.482-.729 0-1.257-.514-1.257-1.243M259.858 172.668h.33v-2.44h-.33v2.44zm-.074-3.21c0-.126.107-.232.241-.232.135 0 .241.102.241.227 0 .134-.102.241-.241.241-.134 0-.241-.107-.241-.236zM263.35 171.253v1.415h-.329v-1.383c0-.514-.269-.779-.733-.779-.524 0-.854.325-.854.881v1.281h-.329v-2.44h.315v.45c.177-.297.506-.469.928-.469.594 0 1.002.343 1.002 1.044M266.19 171.387c0-.529-.39-.89-.928-.89s-.924.361-.924.89c0 .53.386.895.924.895s.928-.366.928-.895zm.32-1.16v2.143c0 .84-.413 1.221-1.22 1.221-.446 0-.881-.135-1.137-.376l.168-.25c.23.208.584.333.96.333.616 0 .899-.283.899-.886v-.31c-.204.31-.552.472-.951.472-.695 0-1.225-.486-1.225-1.187 0-.7.53-1.178 1.225-1.178.408 0 .762.167.965.487v-.469h.316zM268.728 171.304h1.729c-.041-.478-.388-.812-.867-.812-.472 0-.82.334-.862.812m2.04.246h-2.04c.037.51.427.849.96.849.297 0 .56-.107.747-.321l.186.214c-.218.26-.557.399-.943.399-.76 0-1.28-.52-1.28-1.243 0-.724.506-1.24 1.192-1.24.687 0 1.184.507 1.184 1.24 0 .028-.005.065-.005.102M271.443 172.668L271.772 172.668 271.772 169.226 271.443 169.226zM272.689 172.668h.329v-2.44h-.329v2.44zm-.074-3.21c0-.126.106-.232.241-.232s.241.102.241.227c0 .134-.102.241-.241.241-.135 0-.241-.107-.241-.236zM275.221 172.52c-.13.115-.324.17-.515.17-.46 0-.714-.259-.714-.709v-1.475h-.436v-.279h.436v-.533h.33v.533h.741v.28h-.742v1.455c0 .288.148.446.422.446.134 0 .27-.042.362-.126l.116.237zM276.146 172.436c0 .079-.02.139-.065.269l-.195.64h-.222l.157-.673c-.097-.027-.166-.115-.166-.236 0-.144.106-.25.245-.25.143 0 .246.11.246.25M277.721 172.39l.148-.26c.196.152.525.273.87.273.462 0 .652-.158.652-.399 0-.636-1.58-.135-1.58-1.099 0-.399.342-.696.964-.696.315 0 .658.088.862.227l-.144.265c-.213-.149-.468-.209-.718-.209-.44 0-.636.171-.636.403 0 .66 1.582.162 1.582 1.1 0 .422-.37.695-1.007.695-.403 0-.793-.13-.993-.3M280.41 171.304h1.728c-.04-.478-.387-.812-.866-.812-.472 0-.82.334-.863.812m2.041.246h-2.04c.036.51.426.849.96.849.296 0 .56-.107.746-.321l.187.214c-.219.26-.558.399-.943.399-.76 0-1.28-.52-1.28-1.243 0-.724.506-1.24 1.192-1.24.687 0 1.183.507 1.183 1.24 0 .028-.005.065-.005.102M285.027 171.447c0-.57-.39-.95-.905-.95-.52 0-.908.38-.908.95 0 .571.388.951.908.951.515 0 .905-.38.905-.95zm.324-2.222v3.442h-.315v-.482c-.2.33-.538.505-.942.505-.695 0-1.214-.505-1.214-1.243 0-.737.519-1.238 1.214-1.238.39 0 .724.167.928.482v-1.466h.329zM289.382 171.447c0-.57-.39-.95-.905-.95-.52 0-.908.38-.908.95 0 .571.388.951.908.951.515 0 .905-.38.905-.95zm.324-2.222v3.442h-.315v-.482c-.199.33-.538.505-.942.505-.695 0-1.214-.505-1.214-1.243 0-.737.52-1.238 1.214-1.238.39 0 .724.167.928.482v-1.466h.33zM290.621 172.668h.33v-2.44h-.33v2.44zm-.074-3.21c0-.126.108-.232.241-.232.135 0 .242.102.242.227 0 .134-.102.241-.242.241-.133 0-.241-.107-.241-.236zM293.381 171.935v-.4h-.766c-.472 0-.626.187-.626.437 0 .283.228.459.617.459.371 0 .645-.176.775-.496m.33-.78v1.513h-.316v-.38c-.149.25-.436.403-.84.403-.552 0-.89-.287-.89-.71 0-.375.24-.691.941-.691h.775v-.148c0-.418-.236-.645-.69-.645-.317 0-.614.11-.813.288l-.148-.246c.245-.21.607-.33.992-.33.631 0 .988.316.988.947M298.63 171.253v1.415h-.33v-1.383c0-.514-.26-.779-.7-.779-.5 0-.817.325-.817.881v1.281h-.33v-1.383c0-.514-.26-.779-.705-.779-.496 0-.816.325-.816.881v1.281h-.329v-2.44h.315v.445c.172-.292.487-.464.896-.464.403 0 .718.172.867.515.177-.316.524-.515.965-.515.593 0 .983.343.983 1.044M301.449 170.408L299.803 171.044 301.449 171.679 301.449 172.064 299.371 171.243 299.371 170.845 301.449 170.023zM303.159 168.762L303.562 168.762 302.031 173.132 301.628 173.132zM306.667 169.421L306.667 172.667 306.203 172.667 306.203 171.22 304.339 171.22 304.339 172.667 303.875 172.667 303.875 169.421 304.339 169.421 304.339 170.816 306.203 170.816 306.203 169.421zM308.38 169.421L308.38 172.667 307.92 172.667 307.92 169.825 307.188 169.825 307.188 169.421zM311.254 170.845L311.254 171.243 309.176 172.065 309.176 171.68 310.827 171.044 309.176 170.408 309.176 170.024zM245.393 181.53L243.747 182.165 245.393 182.801 245.393 183.186 243.315 182.365 243.315 181.966 245.393 181.145zM248.346 181.674c0-.464-.312-.73-.905-.73h-.788v1.459h.788c.593 0 .905-.265.905-.73m.463 0c0 .706-.51 1.133-1.354 1.133h-.802v.983h-.464v-3.247h1.266c.844 0 1.354.427 1.354 1.132M251.436 181.966L251.436 182.365 249.358 183.186 249.358 182.801 251.009 182.166 249.358 181.53 249.358 181.145zM255.379 181.53L253.733 182.165 255.379 182.801 255.379 183.186 253.301 182.365 253.301 181.966 255.379 181.145zM256.174 183.789L256.638 183.789 256.638 180.542 256.174 180.542zM260.622 183.789L260.616 181.423 259.442 183.394 259.228 183.394 258.057 181.437 258.057 183.789 257.611 183.789 257.611 180.542 257.99 180.542 259.346 182.824 260.682 180.542 261.062 180.542 261.067 183.789zM264.286 182.147h.445v1.266c-.325.274-.774.413-1.228.413-.998 0-1.731-.7-1.731-1.66s.733-1.66 1.74-1.66c.514 0 .95.171 1.248.5l-.288.287c-.27-.259-.575-.375-.942-.375-.751 0-1.294.524-1.294 1.248 0 .714.543 1.247 1.29 1.247.274 0 .529-.06.76-.208v-1.058zM266.563 183.418l.172-.362c.24.218.653.376 1.07.376.563 0 .803-.218.803-.5 0-.794-1.967-.293-1.967-1.499 0-.5.39-.928 1.244-.928.38 0 .775.102 1.043.288l-.152.371c-.283-.182-.604-.265-.891-.265-.552 0-.79.232-.79.515 0 .793 1.968.297 1.968 1.49 0 .495-.398.922-1.257.922-.497 0-.983-.167-1.243-.408M271.895 181.674c0-.464-.312-.73-.905-.73h-.788v1.463h.788c.593 0 .905-.27.905-.733zm.014 2.115l-.701-.997c-.065.005-.134.009-.204.009h-.802v.988h-.464v-3.247h1.266c.844 0 1.354.427 1.354 1.132 0 .5-.26.863-.714 1.025l.77 1.09h-.505zM272.842 182.166c0-.96.732-1.661 1.721-1.661.501 0 .937.172 1.234.506l-.302.292c-.25-.264-.556-.385-.914-.385-.732 0-1.275.529-1.275 1.248s.543 1.248 1.275 1.248c.358 0 .663-.125.914-.39l.302.292c-.297.334-.733.51-1.238.51-.985 0-1.717-.7-1.717-1.66M276.28 182.898h2.078v-.366h-2.078v.366zm0-1.099h2.078v-.366h-2.078v.366zM281.044 180.542h.39l-.033 1.252h-.329l-.028-1.252zm-.84 0h.39l-.032 1.252h-.33l-.028-1.252zM282.212 180.542L282.676 180.542 282.676 183.386 284.434 183.386 284.434 183.789 282.212 183.789zM286.745 182.56c0-.524-.353-.862-.825-.862-.474 0-.83.338-.83.862s.357.868.83.868c.472 0 .825-.344.825-.868m-2.106 0c0-.732.543-1.252 1.281-1.252.738 0 1.275.52 1.275 1.252 0 .733-.537 1.257-1.274 1.257-.738 0-1.281-.524-1.281-1.257M289.131 181.308v.43c-.037-.003-.069-.003-.102-.003-.478 0-.775.292-.775.83v1.224h-.445v-2.458h.426v.413c.16-.288.464-.436.896-.436M289.872 182.388h1.577c-.047-.413-.357-.705-.788-.705-.428 0-.743.288-.79.705m1.995.32h-1.994c.056.431.404.72.89.72.288 0 .53-.098.71-.298l.247.288c-.224.26-.563.4-.97.4-.794 0-1.323-.525-1.323-1.259 0-.728.524-1.252 1.235-1.252.71 0 1.214.51 1.214 1.267 0 .037-.003.092-.009.134M296.572 182.374v1.415h-.445v-1.364c0-.482-.232-.719-.636-.719-.445 0-.737.283-.737.816v1.267h-.446v-1.364c0-.482-.231-.719-.635-.719-.446 0-.738.283-.738.816v1.267h-.445v-2.458h.427v.366c.176-.25.478-.389.849-.389.375 0 .69.148.854.454.185-.279.528-.454.945-.454.599 0 1.007.342 1.007 1.066M298.634 183.789h.445v-2.458h-.445v2.458zm-.079-3.219c0-.163.131-.293.302-.293.172 0 .302.126.302.284 0 .167-.125.297-.302.297-.171 0-.302-.125-.302-.288zM302.024 182.56c0-.52-.357-.862-.83-.862-.47 0-.826.342-.826.862 0 .524.357.868.826.868.473 0 .83-.344.83-.868m.45 0c0 .756-.524 1.257-1.243 1.257-.348 0-.654-.134-.858-.4v1.272h-.446v-3.358h.427v.39c.199-.274.516-.413.877-.413.719 0 1.243.5 1.243 1.252M302.777 183.53l.186-.354c.209.15.543.255.862.255.413 0 .585-.125.585-.334 0-.55-1.554-.074-1.554-1.052 0-.44.395-.738 1.025-.738.32 0 .682.083.895.223l-.19.353c-.222-.145-.468-.196-.71-.196-.39 0-.58.144-.58.34 0 .58 1.559.106 1.559 1.062 0 .445-.408.728-1.062.728-.41 0-.812-.126-1.016-.288M307.7 181.33v2.459h-.422v-.371c-.181.255-.486.399-.834.399-.636 0-1.058-.348-1.058-1.071v-1.415h.445v1.364c0 .482.242.723.664.723.464 0 .76-.287.76-.816v-1.271h.446zM312.628 182.374v1.415h-.445v-1.364c0-.482-.232-.719-.636-.719-.445 0-.737.283-.737.816v1.267h-.446v-1.364c0-.482-.23-.719-.635-.719-.446 0-.738.283-.738.816v1.267h-.445v-2.458h.427v.366c.176-.25.478-.389.85-.389.374 0 .69.148.853.454.185-.279.528-.454.945-.454.6 0 1.007.342 1.007 1.066M314.154 180.542h.39l-.033 1.252h-.33l-.027-1.252zm-.84 0h.39l-.032 1.252h-.33l-.028-1.252zM317.222 181.966L317.222 182.365 315.144 183.186 315.144 182.801 316.795 182.166 315.144 181.53 315.144 181.145zM319.919 181.53L318.273 182.165 319.919 182.801 319.919 183.186 317.841 182.365 317.841 181.966 319.919 181.145zM321.629 179.883L322.032 179.883 320.501 184.253 320.098 184.253zM324.502 181.674c0-.464-.31-.73-.904-.73h-.788v1.459h.788c.593 0 .904-.265.904-.73m.465 0c0 .706-.51 1.133-1.356 1.133h-.8v.983h-.465v-3.247h1.265c.845 0 1.356.427 1.356 1.132M327.593 181.966L327.593 182.365 325.515 183.186 325.515 182.801 327.166 182.166 325.515 181.53 325.515 181.145zM245.393 192.651L243.747 193.287 245.393 193.923 245.393 194.308 243.315 193.487 243.315 193.089 245.393 192.267zM247.102 191.005L247.506 191.005 245.975 195.375 245.572 195.375zM250.143 193.997c0-.376-.277-.543-.793-.543h-1.066v1.081h1.066c.516 0 .793-.163.793-.538zm-1.86-1.958v1.04h.952c.472 0 .742-.177.742-.52s-.27-.52-.742-.52h-.951zm2.329 1.995c0 .557-.422.877-1.243.877h-1.55v-3.247h1.457c.747 0 1.164.315 1.164.84 0 .351-.181.597-.436.722.367.103.608.376.608.808zM254.05 193.287c0-.719-.538-1.248-1.257-1.248-.728 0-1.266.53-1.266 1.248 0 .72.538 1.248 1.266 1.248.72 0 1.257-.529 1.257-1.248m-2.987 0c0-.95.732-1.66 1.73-1.66.988 0 1.721.704 1.721 1.66s-.733 1.661-1.72 1.661c-.999 0-1.73-.71-1.73-1.66M256.56 194.507c.803 0 1.317-.491 1.317-1.22 0-.728-.514-1.22-1.316-1.22h-.877v2.44h.877zm-1.34-2.843h1.368c1.044 0 1.754.658 1.754 1.623s-.71 1.624-1.754 1.624h-1.368v-3.247zM260.152 193.788L260.152 194.911 259.692 194.911 259.692 193.779 258.403 191.663 258.899 191.663 259.938 193.375 260.982 191.663 261.441 191.663zM263.808 193.088L263.808 193.486 261.73 194.308 261.73 193.923 263.381 193.287 261.73 192.651 261.73 192.267z" transform="translate(41.249) translate(26 22.692)"/>
                <path fill="#1A2E35" d="M370.152 105.757c0 .144-32.093.261-71.673.261-39.594 0-71.681-.117-71.681-.26 0-.145 32.087-.26 71.68-.26 39.58 0 71.674.115 71.674.26M231.093 100.64c0 .508-.413.921-.922.921-.51 0-.922-.413-.922-.922 0-.509.412-.922.922-.922s.922.413.922.922M234.636 100.64c0 .508-.413.921-.922.921-.51 0-.922-.413-.922-.922 0-.509.412-.922.922-.922s.922.413.922.922M238.18 100.64c0 .508-.414.921-.923.921-.51 0-.922-.413-.922-.922 0-.509.412-.922.922-.922s.922.413.922.922" transform="translate(41.249) translate(26 22.692)"/>
                <path fill="#E1E1E1" d="M235.902 214.18c-.144 0-.261-24.33-.261-54.337 0-30.017.117-54.342.26-54.342.145 0 .262 24.325.262 54.342 0 30.006-.117 54.336-.261 54.336" transform="translate(41.249) translate(26 22.692)"/>
                <path fill="#F36" d="M35.152 42.412L94.404 42.412 94.404 0.175 35.152 0.175z" transform="translate(41.249) translate(26 22.692)"/>
                <text fill="#FFF" font-family="Barlow-Medium, Barlow" font-size="14" font-weight="400" transform="translate(41.249) translate(26 22.692)">
                    <tspan x="56" y="26.308">JS</tspan>
                </text>
                <path fill="#FFF" d="M94.868 6.441c0 .144-13.375.26-29.87.26-16.501 0-29.873-.115-29.873-.26 0-.143 13.372-.26 29.873-.26 16.495 0 29.87.117 29.87.26M39.987 3.359c0 .387-.357.701-.798.701-.44 0-.798-.314-.798-.701 0-.387.358-.701.798-.701.44 0 .798.314.798.701M42.894 3.359c0 .387-.357.701-.797.701-.44 0-.798-.314-.798-.701 0-.387.357-.701.798-.701.44 0 .797.314.797.701M45.803 3.359c0 .387-.357.701-.798.701-.44 0-.798-.314-.798-.701 0-.387.358-.701.798-.701.44 0 .798.314.798.701" transform="translate(41.249) translate(26 22.692)"/>
                <path fill="#F36" d="M357.33 199.882L410.894 199.882 410.894 161.699 357.33 161.699z" transform="translate(41.249) translate(26 22.692)"/>
                <text fill="#FFF" font-family="Barlow-Medium, Barlow" font-size="14" font-weight="400" transform="translate(41.249) translate(26 22.692)">
                    <tspan x="368" y="187">HTML</tspan>
                </text>
                <path fill="#FFF" d="M411.314 167.365c0 .093-12.091.168-27.003.168-14.917 0-27.005-.075-27.005-.168 0-.093 12.088-.168 27.005-.168 14.912 0 27.003.075 27.003.168M361.7 164.578c0 .35-.321.633-.72.633-.398 0-.721-.283-.721-.633 0-.35.323-.633.72-.633.4 0 .722.283.722.633M364.33 164.578c0 .35-.322.633-.721.633-.398 0-.721-.283-.721-.633 0-.35.323-.633.72-.633.4 0 .721.283.721.633M366.958 164.578c0 .35-.323.633-.72.633-.399 0-.722-.283-.722-.633 0-.35.323-.633.721-.633.398 0 .721.283.721.633" transform="translate(41.249) translate(26 22.692)"/>
                <path fill="#F36" d="M0.018 189.297L39.504 189.297 39.504 161.15 0.018 161.15z" transform="translate(41.249) translate(26 22.692)"/>
                <text fill="#FFF" font-family="Barlow-Medium, Barlow" font-size="14" font-weight="400" transform="translate(41.249) translate(26 22.692)">
                    <tspan x="11" y="181.308">C#</tspan>
                </text>
                <path fill="#FFF" d="M39.813 165.326c0 .07-8.913.125-19.905.125-10.996 0-19.908-.056-19.908-.125 0-.068 8.912-.124 19.908-.124 10.992 0 19.905.056 19.905.124M3.24 163.272c0 .258-.237.467-.531.467-.293 0-.531-.209-.531-.467s.238-.467.53-.467c.295 0 .533.21.533.467M5.178 163.272c0 .258-.238.467-.53.467-.295 0-.533-.209-.533-.467s.238-.467.532-.467c.293 0 .531.21.531.467M7.116 163.272c0 .258-.238.467-.532.467-.293 0-.53-.209-.53-.467s.237-.467.53-.467c.294 0 .532.21.532.467" transform="translate(41.249) translate(26 22.692)"/>
                <path fill="#FF4F5B" d="M241.994 52.682c0-4.312 3.276-7.502 7.673-7.502 2.091 0 3.972.676 5.262 2.049l-.677.698c-1.269-1.247-2.81-1.754-4.544-1.754-3.782 0-6.636 2.789-6.636 6.509 0 3.719 2.853 6.509 6.636 6.509 1.733 0 3.275-.53 4.544-1.775l.677.697c-1.29 1.374-3.17 2.07-5.262 2.07-4.397 0-7.673-3.19-7.673-7.501M256.957 58.176l.485-.803c1.015 1.056 2.896 1.86 4.882 1.86 2.96 0 4.27-1.289 4.27-2.896 0-4.438-9.236-1.775-9.236-7.227 0-2.093 1.607-3.93 5.242-3.93 1.627 0 3.317.506 4.46 1.33l-.403.867c-1.225-.846-2.726-1.247-4.057-1.247-2.874 0-4.164 1.331-4.164 2.96 0 4.437 9.235 1.816 9.235 7.184 0 2.092-1.669 3.91-5.325 3.91-2.2 0-4.312-.825-5.389-2.008M269.827 58.176l.485-.803c1.014 1.056 2.895 1.86 4.881 1.86 2.96 0 4.27-1.289 4.27-2.896 0-4.438-9.236-1.775-9.236-7.227 0-2.093 1.608-3.93 5.243-3.93 1.626 0 3.316.506 4.458 1.33l-.401.867c-1.226-.846-2.726-1.247-4.058-1.247-2.873 0-4.163 1.331-4.163 2.96 0 4.437 9.235 1.816 9.235 7.184 0 2.092-1.67 3.91-5.325 3.91-2.2 0-4.313-.825-5.39-2.008" transform="translate(41.249) translate(26 22.692)"/>
                <path fill="#FF4F5B" d="M293.133 71.914s-.015-.273-.022-.784l-.023-2.25-.053-8.56-.108-30.962.206.207-65.887.054h-.005l.261-.26c-.008 15.112-.015 29.502-.02 42.555l-.24-.24c19.33.05 35.77.09 47.4.118l13.594.065c1.57.012 2.784.022 3.627.03l.942.013c.213.005.323.01.328.014.005.005-.097.01-.3.014l-.914.014-3.58.03-13.54.064c-11.668.03-28.162.07-47.558.118h-.239v-.24c-.007-13.053-.014-27.443-.02-42.556v-.26h.264l65.887.054h.207v.206l-.109 31.09-.053 8.513-.023 2.212c-.007.497-.022.741-.022.741" transform="translate(41.249) translate(26 22.692)"/>
                <path fill="#FF4F5B" d="M293.133 35.672c0 .145-14.758.262-32.957.262-18.207 0-32.96-.117-32.96-.261 0-.145 14.753-.26 32.96-.26 18.2 0 32.957.116 32.957.26M232.114 32.567c0 .39-.36.706-.804.706-.444 0-.803-.316-.803-.706 0-.39.359-.706.803-.706.444 0 .804.316.804.706M235.043 32.567c0 .39-.359.706-.804.706-.444 0-.803-.316-.803-.706 0-.39.36-.706.803-.706.445 0 .804.316.804.706M237.973 32.567c0 .39-.359.706-.804.706-.443 0-.803-.316-.803-.706 0-.39.36-.706.803-.706.445 0 .804.316.804.706" transform="translate(41.249) translate(26 22.692)"/>
            </g>
            <g>
                <path fill="#375A64" d="M.825 132.344l26.125 88.184c1.16 3.916 4.757 6.601 8.84 6.601l105.997.292c5.626.016 10.11-4.699 9.812-10.317-.276-5.203-4.575-9.28-9.786-9.28h-40.535l-32.46-90.447H12c-7.792 0-13.39 7.496-11.176 14.967" transform="translate(41.249) translate(128 107.692)"/>
                <path fill="#1A2E35" d="M90.502 215.065c0 .207-10.808.374-24.136.374-13.334 0-24.14-.167-24.14-.374 0-.206 10.806-.373 24.14-.373 13.328 0 24.136.167 24.136.373M8.619 120.178c.196-.065 7.413 21.05 16.119 47.153 8.709 26.114 15.608 47.328 15.412 47.394-.196.065-7.412-21.044-16.12-47.157-8.706-26.105-15.606-47.325-15.411-47.39" transform="translate(41.249) translate(128 107.692)"/>
                <path fill="#375A64" d="M86.094 305.483L79.634 305.331 79.634 227.129 86.094 227.129z" transform="translate(41.249) translate(128 107.692)"/>
                <path fill="#375A64" d="M52.798 305.126L112.93 305.126 85.69 295.659 79.23 295.659z" transform="translate(41.249) translate(128 107.692)"/>
                <path fill="#F36" d="M37.59 97.157l9.949 49.708-1.776 37.251 66.879-11.123-2.625-32.62-.05-26.993 16.4 31.78 12.768-24.663-23.378-42.348-.002.005c-4.283-4.444-9.296-7.732-15.296-9.902-2.914-1.054-6.007-1.685-9.585-1.837-7.718 2.386-15.435 2.39-23.152.014-.94.118-2.245.242-3.888.436l-.301.036c-14.192 1.728-25.025 13.53-25.81 27.806l-.133 2.45z" transform="translate(41.249) translate(128 107.692)"/>
                <path fill="#F36" d="M63.834 66.865s-27.48.208-30.883 29.231l-.462 21.281 23.666-.205 7.679-50.307z" transform="translate(41.249) translate(128 107.692)"/>
                <path fill="#FAFAFA" d="M129.484 104.2c0 .206-21.624.373-48.291.373-26.677 0-48.295-.167-48.295-.374 0-.206 21.618-.373 48.295-.373 26.667 0 48.29.167 48.29.373M129.484 108.8c0 .207-21.624.374-48.291.374-26.677 0-48.295-.167-48.295-.373s21.618-.374 48.295-.374c26.667 0 48.29.168 48.29.374M127.936 100.387c0 .206-21.277.374-47.517.374-26.25 0-47.522-.168-47.522-.374s21.272-.374 47.522-.374c26.24 0 47.517.168 47.517.374" transform="translate(41.249) translate(128 107.692)"/>
                <path fill="#1A2E35" d="M109.609 145.16c-.206-.004-.114-11.766.205-26.268.319-14.506.745-26.26.95-26.254.207.004.116 11.764-.203 26.27-.32 14.503-.746 26.258-.952 26.253" transform="translate(41.249) translate(128 107.692)"/>
                <path fill="#FFD0B6" d="M100.214 126.085s13 .93 15.34 4.366c2.34 3.436 5.904 13.237 4.554 13.308-1.35.07-2.334-.737-2.334-.737l-3.563-6.314s.573 6.1-1.558 6.22c-2.129.122-12.684 2.233-12.684 2.233l.245-19.076z" transform="translate(41.249) translate(128 107.692)"/>
                <path fill="#F36" d="M32.497 111.713l-.048 33.51c.423 7.831 7.759 13.421 15.423 11.75l52.408-10.798-.112-21.489-45.22 8.677-.601-22.745-21.85 1.095z" transform="translate(41.249) translate(128 107.692)"/>
                <path fill="#1A2E35" d="M62.398 154.289c-.004-.02.232-.083.69-.192.514-.117 1.187-.267 2.033-.458l7.703-1.63 27.28-5.576-.268.327-.038-22.074.44.364c-2.951.568-6.057 1.165-9.213 1.77l-36.016 6.857-.391.074.014-.392.829-24.165c.119-2.861.214-5.13.28-6.748l.1-1.775c.028-.401.05-.607.067-.606.017 0 .027.209.032.612l-.004 1.779-.107 6.754-.562 24.16-.377-.317 35.994-6.965 9.215-1.765.44-.084v.447l-.037 22.074v.274l-.27.052c-11.195 2.176-20.628 4.009-27.331 5.31-3.278.615-5.886 1.102-7.74 1.449l-2.051.356c-.466.075-.71.106-.712.088M92.46 66.865c.024-.008.098.161.215.491.13.328.265.827.406 1.482.26 1.301.407 3.304-.246 5.64-.63 2.33-2.155 4.906-4.548 7.02-2.352 2.163-5.827 3.637-9.54 3.602-3.71.036-7.22-1.479-9.431-3.83-2.24-2.344-3.226-5.213-3.508-7.588-.26-2.409.168-4.365.66-5.607.25-.623.476-1.088.673-1.383.18-.3.285-.452.307-.439.076.04-.318.668-.705 1.918-.397 1.238-.726 3.14-.411 5.445.336 2.274 1.338 4.991 3.479 7.175 2.105 2.183 5.41 3.595 8.937 3.562 3.532.031 6.817-1.339 9.084-3.372 2.327-2.007 3.829-4.438 4.497-6.653.69-2.22.634-4.155.464-5.443-.172-1.299-.407-1.998-.333-2.02" transform="translate(41.249) translate(128 107.692)"/>
                <path fill="#FAFAFA" d="M94.99 147.952c-.106-.01-.066-1.272.012-3.307.077-2.034.175-4.841.195-7.943.017-3.103-.048-5.911-.102-7.946-.053-2.035-.08-3.298.028-3.307.099-.01.31 1.239.499 3.275.19 2.037.339 4.86.322 7.983-.02 3.12-.202 5.942-.416 7.975-.213 2.034-.44 3.28-.537 3.27M92.285 148.5c-.105-.006-.117-1.261-.093-3.282l.084-7.896-.007-7.896c-.004-2.023.02-3.277.125-3.282.102-.005.264 1.24.402 3.263.138 2.024.24 4.824.226 7.919-.016 3.094-.146 5.894-.303 7.914-.158 2.023-.334 3.267-.433 3.26" transform="translate(41.249) translate(128 107.692)"/>
                <path fill="#FF4F5B" d="M144.767 281.643l9.904 27.277 14.056 19.316c1.013 1.392.636 3.351-.822 4.267-.817.513-1.822.602-2.712.233-5.668-2.352-26.475-11.107-27.087-13.144-.71-2.358-14.142-31.694-14.142-31.694l20.803-6.255z" transform="translate(41.249) translate(128 107.692)"/>
                <g transform="translate(41.249) translate(128 107.692) translate(137 317)">
                    <mask id="prefix__c" fill="#fff">
                        <use xlink:href="#prefix__b"/>
                    </mask>
                    <path fill="#FFF" d="M30.905 15.504L.395.768l.447 1.145c.385.99 1.105 1.815 2.04 2.32 2.503 1.35 9.496 4.925 25.229 11.537.915.383 1.968.285 2.794-.266" mask="url(#prefix__c)"/>
                </g>
                <path fill="#FFF" d="M139.55 306.883c.86.205 1.48 1.144 1.311 2.011-.17.868-1.12 1.507-1.982 1.317-.863-.189-1.643-1.294-1.378-2.137.266-.842 1.421-1.532 2.214-1.14" transform="translate(41.249) translate(128 107.692)"/>
                <path fill="#1A2E35" d="M157.124 323.093c.182.016.24-1.639 1.552-3.026 1.27-1.427 2.913-1.627 2.882-1.808-.002-.075-.426-.152-1.094.005-.663.151-1.544.596-2.258 1.372-.71.777-1.078 1.692-1.172 2.366-.099.68.014 1.095.09 1.091M160.46 325.964c.174.067.7-1.149 1.942-2.095 1.222-.972 2.531-1.183 2.508-1.368.025-.169-1.5-.236-2.899.865-1.41 1.085-1.72 2.58-1.552 2.598M151.732 319.847c.177.08.976-1.797 2.779-3.437 1.78-1.667 3.713-2.313 3.649-2.496-.013-.16-2.168.246-4.08 2.03-1.93 1.761-2.508 3.878-2.348 3.903M148.028 311.807c.136.134 1.387-1.072 3.303-1.899 1.906-.854 3.639-.959 3.633-1.15.022-.162-1.84-.346-3.89.567-2.057.893-3.181 2.39-3.046 2.482M144.917 303.873c.145.124 1.296-1.362 3.386-2.067 2.074-.752 3.9-.31 3.936-.496.023-.074-.405-.297-1.169-.416-.758-.12-1.856-.081-2.977.31-1.12.395-2.003 1.048-2.522 1.615-.523.569-.717 1.01-.654 1.054M147.667 300.313c.035-.013-.046-.4-.36-1.037-.316-.632-.88-1.523-1.857-2.363-.488-.389-1.044-.916-1.937-.979-.446-.033-.978.254-1.158.736-.183.473-.11.956.046 1.388.698 1.706 2.817 2.793 4.844 2.288 2.022-.542 3.347-2.333 3.537-4.113.02-.449-.048-.965-.436-1.34-.385-.382-1.006-.35-1.368-.134-.756.433-1.083 1.093-1.42 1.62-.64 1.112-.912 2.124-1.029 2.82-.117.7-.089 1.093-.05 1.095.121.035.165-1.594 1.462-3.68.34-.496.717-1.104 1.274-1.382.271-.138.557-.12.746.068.188.178.264.54.235.898-.176 1.466-1.392 3.098-3.108 3.53-1.703.443-3.566-.516-4.139-1.883-.134-.33-.175-.7-.074-.967.1-.262.345-.419.634-.416.608.007 1.182.44 1.655.8 1.912 1.541 2.394 3.124 2.503 3.051" transform="translate(41.249) translate(128 107.692)"/>
                <path fill="#FF4F5B" d="M186.583 274.507l-.856 22.17s22.246 8.315 22.486 12.428l-43.043-.118-.083-34.596 21.496.116z" transform="translate(41.249) translate(128 107.692)"/>
                <path fill="#FFF" d="M172.422 294.775c-.833.226-1.41 1.161-1.22 2.003.191.843 1.136 1.438 1.974 1.227.837-.21 1.566-1.311 1.282-2.126-.284-.816-1.433-1.456-2.195-1.05M165.17 308.988l-.008-3.45 41.358 1.379s1.914.839 1.693 2.188l-43.043-.117z" transform="translate(41.249) translate(128 107.692)"/>
                <path fill="#1A2E35" d="M186.425 296.46c-.007.21-1.059.303-2.094.976-1.054.645-1.59 1.554-1.783 1.47-.193-.041.123-1.297 1.393-2.09 1.26-.803 2.531-.548 2.484-.356M190.935 298.339c.048.204-.863.56-1.58 1.445-.742.868-.925 1.827-1.134 1.819-.198.031-.34-1.2.57-2.286.904-1.094 2.14-1.178 2.144-.978M193.485 303.75c-.191.044-.48-1.007.062-2.156.535-1.155 1.527-1.606 1.616-1.43.118.173-.522.789-.953 1.739-.454.94-.516 1.826-.725 1.847M186.06 291.385c-.09.191-1.052-.1-2.24-.023-1.19.052-2.115.45-2.225.27-.121-.154.784-.93 2.185-1 1.399-.083 2.384.59 2.28.753" transform="translate(41.249) translate(128 107.692)"/>
                <path fill="#000" d="M186.409 278.898L186.262 282.849 165.107 282.599 165.09 279.039z" transform="translate(41.249) translate(128 107.692)"/>
                <path fill="#1A2E35" d="M186.15 286.91c.003.087-.828.215-2.155-.017-.66-.116-1.438-.334-2.253-.7-.407-.181-.824-.4-1.237-.66-.198-.127-.432-.256-.65-.508-.231-.22-.362-.777-.093-1.118.222-.33.612-.472.923-.478.317-.01.573.055.808.114.479.117.928.277 1.339.464.82.376 1.488.85 1.984 1.309.996.928 1.335 1.714 1.263 1.754-.095.069-.58-.59-1.594-1.356-.506-.381-1.151-.776-1.92-1.088-.384-.154-.8-.287-1.236-.386-.455-.12-.843-.125-.961.078-.042.077-.048.108.047.24.098.124.282.246.477.373.38.25.763.466 1.137.654.75.375 1.468.63 2.082.804 1.232.347 2.044.408 2.04.52" transform="translate(41.249) translate(128 107.692)"/>
                <path fill="#1A2E35" d="M185.876 287.21c-.075.033-.49-.721-.563-2.083-.035-.675.038-1.493.3-2.36.133-.431.315-.873.553-1.306.253-.425.563-.994 1.378-1.086.426-.014.778.318.898.604.142.293.17.543.22.792.077.502.067.995-.003 1.452-.137.916-.514 1.675-.927 2.222-.844 1.115-1.72 1.363-1.739 1.291-.07-.104.664-.508 1.311-1.578.318-.529.602-1.224.687-2.024.043-.4.038-.822-.037-1.245-.065-.459-.236-.827-.407-.783-.214-.002-.579.34-.756.706-.223.385-.399.779-.538 1.166-.272.777-.39 1.522-.423 2.15-.062 1.264.16 2.05.046 2.083" transform="translate(41.249) translate(128 107.692)"/>
                <path fill="#1A2E35" d="M165.13 168.237c-25.427 2.63-59.139 6.085-59.139 6.085l4.6 41.389s49.524-13.09 49.171-12.028c-.354 1.062 2.294 88.065 2.294 88.065h29.825l.56-98.53c.205-14.824-12.565-26.506-27.312-24.981" transform="translate(41.249) translate(128 107.692)"/>
                <path fill="#1A2E35" d="M45.146 184.934v12.835c0 8.736 9.951 18.002 18.687 18.002h6.756c5.324 0 13.664-3.876 17.962-7.017l2.583-1.887 31.054 96.21s35.536-6.372 35.536-7.493c0-1.12-24.066-78.799-35.174-114.853-4.535-14.72-20.307-23.28-34.878-18.283-.496.171-.993.354-1.49.553-15.92 6.368-41.036 21.933-41.036 21.933" transform="translate(41.249) translate(128 107.692)"/>
                <path fill="#375A64" d="M157.724 295.585c-.012.005-.065-.111-.157-.342-.105-.272-.234-.611-.393-1.03-.339-.906-.828-2.25-1.409-3.993-1.193-3.48-2.823-8.543-4.809-14.811-3.962-12.536-9.272-29.903-15.055-49.108l-8.108-27.094-3.516-11.828-1.597-5.358c-.513-1.722-.986-3.37-1.616-4.868-1.216-3.025-3.13-5.338-5.017-7.103-1.909-1.755-3.73-3.077-5.255-4.092-1.521-1.023-2.733-1.775-3.56-2.275-.38-.238-.687-.43-.935-.583-.208-.136-.311-.21-.305-.222.006-.011.123.042.343.155l.972.519c.854.459 2.092 1.173 3.646 2.163 1.555.982 3.414 2.278 5.377 4.028 1.94 1.757 3.943 4.115 5.22 7.206.66 1.528 1.156 3.193 1.682 4.904l1.637 5.348c1.124 3.7 2.323 7.653 3.584 11.809l8.164 27.075 14.844 49.168 4.58 14.876 1.276 4.035.321 1.054c.069.238.099.363.086.367M165.22 191.271c.184.128-1.507 2.667-2.923 6.114-1.44 3.438-2.044 6.427-2.264 6.388-.188-.018.096-3.139 1.575-6.674 1.457-3.543 3.466-5.949 3.611-5.828M170.917 195.271c.088.208-2.479 1.331-5.147 3.447-2.689 2.093-4.386 4.321-4.568 4.186-.163-.092 1.317-2.597 4.107-4.773 2.773-2.195 5.557-3.04 5.608-2.86M122.523 303.076c-.196.062-8.586-25.684-18.737-57.5-10.154-31.825-18.224-57.667-18.027-57.73.196-.063 8.584 25.678 18.739 57.504 10.15 31.815 18.22 57.664 18.025 57.726M84.411 152.988L186.064 153.966 205.019 100.387 131.081 100.887 113.921 149.068 84.411 149.509z" transform="translate(41.249) translate(128 107.692)"/>
                <path fill="#FFF" d="M161.48 131.792c-2.251-.317-3.818-2.4-3.5-4.651.318-2.252 2.4-3.82 4.652-3.501 2.25.317 3.819 2.4 3.5 4.652-.317 2.25-2.4 3.818-4.651 3.5" transform="translate(41.249) translate(128 107.692)"/>
                <path fill="#1A2E35" d="M76.116 7.961c.96-3.564 3.642-5.32 7.136-6.511 3.494-1.192 7.562-.531 10.5 1.704 1.965 1.496 3.503 3.669 5.835 4.48 3.841 1.335 8.341-1.54 12.024.183 2.178 1.02 3.446 3.68 2.865 6.015-.58 2.335-2.944 4.092-5.348 3.973 2.506.915 3.285 4.49 1.821 6.72-1.464 2.231-4.47 3.073-7.094 2.584-2.623-.49-4.909-2.081-6.894-3.864-1.984-1.783-3.763-3.801-5.883-5.421s-4.69-2.846-7.356-2.702c-3.606.194-6.702 2.914-8.309 6.149-1.608 3.234-1.979 6.929-2.18 10.535-.2 3.607-.264 7.273-1.333 10.724-.125.405-.316.858-.722.983-.585.179-1.083-.442-1.374-.981-3.283-6.089-5.354-12.828-6.057-19.709-.408-3.997-.302-7.782 1.895-11.145 2.198-3.363 7.75-5.841 10.474-3.717" transform="translate(41.249) translate(128 107.692)"/>
                <path fill="#FFD0B6" d="M69.14 24.698l-1.844 40.46c-.314 6.882.631 17.053 11.532 17.053 9.459-.713 12.254-9.552 12.54-15.973.136-3.046.256-5.586.29-5.898 0 0 10.344-.5 11.553-10.66.585-4.91.965-15.122 1.2-24.363.254-9.926-7.168-18.378-17.041-19.43l-.983-.104c-10.65-.508-17.032 8.254-17.246 18.915" transform="translate(41.249) translate(128 107.692)"/>
                <path fill="#FFB898" d="M91.691 60.195s-6.486-.162-12.863-5.181c0 0 2.356 7.656 12.606 7.82l.257-2.64z" transform="translate(41.249) translate(128 107.692)"/>
                <path fill="#1A2E35" d="M100.722 31.816c-.054.77-.751 1.359-1.557 1.317-.804-.044-1.413-.7-1.358-1.47.054-.77.751-1.36 1.555-1.319.806.043 1.415.701 1.36 1.471M101.694 30.077c-.2.17-1.214-.762-2.779-.924-1.559-.184-2.792.498-2.942.288-.074-.093.146-.416.684-.726.531-.31 1.407-.574 2.381-.466.973.11 1.754.555 2.186.972.441.42.568.78.47.856M85.33 30.714c-.053.77-.75 1.36-1.556 1.316-.803-.042-1.413-.698-1.358-1.469.055-.77.752-1.36 1.556-1.318.805.042 1.414.701 1.359 1.471M86.295 28.733c-.201.17-1.216-.762-2.78-.924-1.558-.184-2.792.498-2.941.288-.074-.093.144-.416.684-.726.53-.31 1.407-.573 2.38-.466.973.11 1.755.555 2.187.973.44.419.567.779.47.855M90.735 40.932c.002-.09.992-.154 2.588-.188.404 0 .79-.038.886-.303.125-.28.004-.727-.141-1.212l-.856-3.166c-1.18-4.503-1.987-8.188-1.806-8.234.182-.045 1.286 3.567 2.464 8.07.28 1.109.55 2.167.805 3.179.103.469.309 1.012.04 1.588-.138.287-.455.473-.718.515-.264.05-.49.03-.688.022-1.594-.084-2.577-.182-2.574-.271M86.018 41.523c.256.012.078 1.71 1.403 3.07 1.321 1.362 3.15 1.364 3.14 1.602.011.11-.439.288-1.206.227-.75-.053-1.819-.411-2.629-1.242-.808-.834-1.084-1.86-1.068-2.563.011-.715.245-1.115.36-1.093M87.35 22.648c-.2.41-1.739.041-3.597.067-1.858-.01-3.395.369-3.597-.038-.09-.194.211-.567.853-.915.636-.348 1.624-.637 2.738-.643 1.114-.003 2.103.28 2.743.622.644.343.948.712.86.907M101.6 25.49c-.312.327-1.35-.156-2.643-.311-1.288-.201-2.417-.017-2.63-.415-.092-.192.119-.53.634-.815.508-.284 1.327-.474 2.214-.352.887.123 1.624.527 2.035.938.419.414.53.796.39.956" transform="translate(41.249) translate(128 107.692)"/>
                <path fill="#FFD0B6" d="M69.17 32.32c-.166-.094-6.771-2.813-7.29 4.167-.517 6.98 6.597 6.06 6.624 5.86.027-.199.666-10.028.666-10.028" transform="translate(41.249) translate(128 107.692)"/>
                <path fill="#FF9A6C" d="M66.568 39.545c-.029-.025-.128.076-.34.155-.207.078-.557.115-.91-.049-.718-.325-1.252-1.542-1.192-2.802.03-.636.207-1.231.47-1.715.25-.495.607-.828.983-.865.376-.058.622.184.693.386.08.203.025.337.06.352.02.02.16-.105.124-.398-.018-.14-.088-.312-.242-.458-.158-.148-.398-.236-.659-.227-.54-.002-1.062.456-1.35.989-.319.53-.533 1.199-.567 1.913-.059 1.41.563 2.78 1.55 3.145.482.166.902.048 1.126-.101.23-.157.277-.31.254-.325" transform="translate(41.249) translate(128 107.692)"/>
                <path fill="#1A2E35" d="M106.79 23.433c-4.609.716-9.523-.954-12.74-4.33-2.253-2.362-3.84-5.582-6.84-6.867-2.02-.865-4.388-.66-6.413.192-2.024.853-3.745 2.301-5.259 3.894 1.416 5.38-.519 11.01-2.429 16.235-.21.578-.456 1.198-.98 1.52-.89.544-2.07-.08-2.708-.909-1.02-1.323-1.285-3.068-1.404-4.735-.27-3.798.045-7.67 1.268-11.276s3.385-6.938 6.4-9.263c3.768-2.905 8.742-4.09 13.465-3.514 4.723.576 9.172 2.846 12.644 6.1 1.611 1.508 3.055 3.28 3.748 5.374" transform="translate(41.249) translate(128 107.692)"/>
            </g>
            <g>
                <path fill="#F36" d="M39.259 48.471c3.565-1.839 7.763-2.078 11.72-1.424 2.127.352 4.343.987 5.79 2.585 1.447 1.597 1.72 4.407.06 5.78-.99.817-2.368.941-3.651.926-3.098-.036-6.536-.582-9.011 1.282-1.412 1.064-2.352 2.832-4.04 3.355-1.652.512-3.516-.463-4.392-1.953-.876-1.49-.905-3.355-.497-5.035 0 0 .43-3.662 4.02-5.516M31.092 32.705c2.18 3.113 6.417 2.083 8.38.183 1.965-1.901 2.795-4.655 3.55-7.282 1.728-6.001 3.469-12.297 2.185-18.407-.384-1.827-1.067-3.65-2.351-5.005S39.598.032 37.793.51c-2.136.563-3.464 2.656-4.423 4.646-2.821 5.85-4.315 12.336-4.337 18.83-.01 3.034.348 6.215 2.059 8.719M25.105 37.172c2.367-2.81 2.816-6.905 1.763-10.424-1.054-3.52-3.433-6.513-6.175-8.957-3.215-2.866-6.994-5.097-11.057-6.524-1.598-.563-3.285-1.005-4.972-.845-1.687.16-3.387 1.023-4.173 2.524-1.164 2.22-.048 4.912 1.158 7.109 2.126 3.869 4.557 7.57 7.263 11.058 2.176 2.806 4.67 5.575 7.987 6.843 3.317 1.268 6.764 1.118 8.522-1.181" transform="translate(41.249) translate(0 297.692)"/>
                <path fill="#1A2E35" d="M30.944 79.67c.04.002.107-.502.197-1.415l.376-3.86c.18-1.624.417-3.558.868-5.663.45-2.1 1.154-4.376 2.059-6.684.937-2.296 2.078-4.38 3.413-6.049 1.325-1.675 2.866-2.888 4.315-3.587 1.444-.713 2.739-1.002 3.634-1.131.903-.093 1.408-.164 1.409-.204 0-.04-.507-.047-1.434-.023-.92.061-2.267.294-3.79.986-1.526.678-3.161 1.909-4.551 3.618-1.401 1.703-2.585 3.835-3.538 6.17-.92 2.35-1.614 4.648-2.043 6.793-.43 2.144-.625 4.098-.753 5.737-.123 1.638-.17 2.965-.192 3.882-.02.919-.01 1.428.03 1.43" transform="translate(41.249) translate(0 297.692)"/>
                <path fill="#1A2E35" d="M31.21 76.699c.02-.001.033-.227.038-.656l-.005-1.877c-.005-1.63-.004-3.988.084-6.9.144-5.821.645-12.087 1.613-20.921.917-8.307 2.148-17.974 3.447-24.26.278-1.43.559-2.716.823-3.842.25-1.13.467-2.103.674-2.89l.439-1.825c.094-.42.134-.642.115-.647-.02-.006-.098.206-.228.615l-.545 1.799c-.243.78-.49 1.748-.773 2.872-.295 1.122-.604 2.405-.91 3.832-1.284 5.695-2.645 13.655-3.622 22.51-.971 8.854-1.407 16.914-1.446 22.752-.035 2.917.027 5.28.102 6.91l.114 1.877c.033.427.06.652.08.65" transform="translate(41.249) translate(0 297.692)"/>
                <path fill="#1A2E35" d="M31.249 61.153c.04-.002.033-.698-.014-1.961-.072-1.261-.245-3.082-.6-5.313-.377-2.226-.902-4.87-1.728-7.741-.358-1.312-1.2-4.458-3.237-9.16-2.685-6.368-6.332-11.575-9.505-14.8-.745-.856-1.574-1.473-2.237-2.08-.343-.29-.646-.578-.955-.807l-.868-.598c-1.044-.714-1.63-1.091-1.65-1.057-.094.127 2.338 1.559 5.41 4.828 3.06 3.26 6.606 8.432 9.269 14.748 1.485 3.424 2.52 6.48 3.255 9.074.849 2.845 1.413 5.46 1.839 7.664.405 2.208.639 4.012.78 5.26.117 1.25.2 1.944.24 1.943M16.222 88.577L17.78 109.919 45.198 109.919 46.756 88.577zM13.574 88.577L50.028 88.577 50.028 80.165 13.574 80.165z" transform="translate(41.249) translate(0 297.692)"/>
                <path fill="#375A64" d="M13.574 109.102L13.574 111.434 15.287 111.434 49.425 111.434 49.425 109.102zM16.966 115.538L15.287 111.434 48.119 111.434 46.16 115.538z" transform="translate(41.249) translate(0 297.692)"/>
                <path fill="#E1E1E1" d="M46.246 95.552c.006.005-.037.071-.128.195l-.41.544-1.597 2.044-.07.091-.069-.095-3.924-5.427h.225l-3.863 5.47-.12.171-.137-.16-4.58-5.452.263-.003-.252.316c-1.42 1.782-2.796 3.506-4.097 5.136l-.137.172-.126-.179-3.865-5.469.225.011-4.76 5.423-.085.097-.065-.109-1.49-2.504c-.156-.27-.282-.49-.382-.667-.085-.152-.125-.233-.118-.237.008-.005.062.068.16.211l.423.642 1.565 2.46-.148-.014 4.683-5.489.118-.139.107.15 3.9 5.444-.263-.008 4.088-5.144.252-.316.13-.164.134.161 4.57 5.462-.258.01c1.411-1.967 2.724-3.798 3.902-5.443l.115-.16.111.16c1.546 2.207 2.86 4.082 3.842 5.486l-.14-.004c.7-.839 1.256-1.507 1.662-1.992l.444-.515c.103-.115.16-.172.165-.166" transform="translate(41.249) translate(0 297.692)"/>
                <path fill="#375A64" d="M47.137 88.436c0 .094-6.87.171-15.343.171-8.475 0-15.344-.077-15.344-.17 0-.096 6.87-.172 15.344-.172 8.473 0 15.343.076 15.343.171" transform="translate(41.249) translate(0 297.692)"/>
                <path fill="#1A2E35" d="M48.522 111.664c0 .095-7.466.17-16.674.17-9.212 0-16.677-.075-16.677-.17 0-.094 7.465-.17 16.677-.17 9.208 0 16.674.076 16.674.17" transform="translate(41.249) translate(0 297.692)"/>
            </g>
            <path fill="#1A2E35" d="M372.648 163.651L353.602 243.315 358.929 243.315 377.692 163.651z" transform="translate(41.249)"/>
            <g>
                <path fill="#1A2E35" d="M302.334 42.427c-.345 1.46 8.625 44.883 8.625 44.883h-4.317l-6.775-34.41 2.467-10.473z" transform="translate(41.249) translate(63 173.692)"/>
                <path fill="#F36" d="M276.538 239.313L365.765 239.313 365.765 144.722 276.538 144.722z" transform="translate(41.249) translate(63 173.692)"/>
                <path fill="#1A2E35" d="M365.765 162.925L370.147 162.925 370.147 158.544 365.765 158.544zM365.765 176.836L370.147 176.836 370.147 172.455 365.765 172.455zM365.765 190.747L370.147 190.747 370.147 186.365 365.765 186.365zM365.765 204.657L370.147 204.657 370.147 200.275 365.765 200.275z" transform="translate(41.249) translate(63 173.692)"/>
                <path fill="#1A2E35" d="M370.307 187.645c-.005-.034.473-.144 1.348-.295.874-.143 2.149-.35 3.753-.355 1.586.001 3.578.272 5.422 1.427.909.577 1.763 1.392 2.319 2.451.558 1.054.792 2.308.693 3.554-.097 1.25-.508 2.436-1.139 3.431-.627.997-1.443 1.807-2.306 2.44-1.743 1.266-3.643 1.826-5.218 2.061-1.587.237-2.886.185-3.771.128-.887-.069-1.372-.159-1.369-.192.004-.039.495-.017 1.376-.01.88-.005 2.163-.01 3.704-.29 1.531-.274 3.345-.855 4.993-2.083 1.633-1.2 3.05-3.166 3.211-5.525.091-1.159-.122-2.313-.626-3.277-.5-.969-1.28-1.732-2.126-2.283-1.722-1.11-3.619-1.418-5.17-1.464-1.566-.043-2.84.106-3.719.188-.881.09-1.37.131-1.375.094" transform="translate(41.249) translate(63 173.692)"/>
                <path fill="#1A2E35" d="M369.216 173.819c-.007-.015.134-.106.418-.254.285-.144.717-.338 1.298-.524 1.15-.37 2.95-.713 5.125-.285.54.116 1.11.298 1.633.649.521.343.964.898 1.154 1.557.376 1.326-.056 2.84-1.002 3.989-.475.574-1.092 1.079-1.847 1.36-.739.288-1.67.293-2.417-.13-.734-.386-1.388-1.154-1.387-2.1-.003-.938.623-1.755 1.417-2.168.813-.418 1.733-.435 2.552-.268.831.168 1.593.555 2.226 1.062 1.268 1.016 2.063 2.489 2.225 3.974.175 1.5-.364 2.923-1.142 3.96-.78 1.057-1.77 1.806-2.743 2.318-1.977 1-3.778 1.182-4.972 1.297-.603.048-1.074.064-1.392.067-.319.002-.487-.007-.487-.025-.003-.041.665-.09 1.858-.244 1.177-.172 2.943-.416 4.818-1.42.921-.51 1.851-1.245 2.568-2.245.717-.99 1.187-2.295 1.015-3.653-.157-1.352-.903-2.71-2.064-3.63-.58-.46-1.268-.805-2.013-.953-.74-.15-1.544-.122-2.208.222-.654.337-1.15 1.012-1.14 1.705-.01.693.496 1.326 1.111 1.652.62.35 1.354.353 2.004.11.652-.235 1.213-.68 1.65-1.2.872-1.028 1.267-2.42.956-3.56-.313-1.171-1.449-1.752-2.454-1.967-2.076-.457-3.844-.184-4.988.12-1.156.312-1.75.629-1.772.584" transform="translate(41.249) translate(63 173.692)"/>
                <path fill="#1A2E35" d="M369.261 160.242c-.005-.024.334-.138.973-.18.635-.043 1.58.014 2.677.376 1.085.37 2.33 1.069 3.334 2.245 1.015 1.163 1.671 2.827 1.731 4.602.05 1.775-.504 3.476-1.445 4.699-.93 1.236-2.13 2.009-3.19 2.446-1.074.428-2.013.542-2.65.539-.64-.003-.985-.095-.982-.12-.012-.116 1.45.15 3.486-.757.992-.458 2.102-1.224 2.95-2.393.855-1.153 1.355-2.736 1.31-4.398-.056-1.662-.653-3.21-1.578-4.31-.917-1.114-2.07-1.81-3.09-2.207-2.087-.781-3.532-.426-3.526-.542" transform="translate(41.249) translate(63 173.692)"/>
                <path fill="#1A2E35" d="M303.033 94.465s.354.567.75 1.766c.399 1.196.827 3.01 1.185 5.373.369 2.361.68 5.268.99 8.645.32 3.375.596 7.23 1.137 11.452.139 1.056.308 2.132.524 3.221.224 1.082.483 2.2.964 3.221.51.973 1.349 1.875 2.188 2.702.863.827 1.83 1.578 2.886 2.226 2.107 1.296 4.578 2.19 7.203 2.452 2.61.27 5.41-.102 7.88-1.364 2.472-1.223 4.479-3.565 5.093-6.393.304-1.398.243-2.905-.3-4.25-.54-1.355-1.543-2.509-2.771-3.35-1.242-.82-2.708-1.34-4.22-1.406-1.501-.056-3.054.336-4.272 1.258-.605.454-1.126 1.031-1.447 1.707-.318.676-.428 1.443-.28 2.183.29 1.494 1.39 2.787 2.766 3.518 1.389.755 2.98 1.062 4.558 1.261 1.584.21 3.17.3 4.748.33 3.155.055 6.267-.199 9.313-.527 6.087-.68 11.96-1.658 17.636-1.719 5.648-.093 11.135.727 15.703 2.966 2.273 1.114 4.297 2.577 5.845 4.366 1.57 1.77 2.566 3.89 3.034 5.996.916 4.253-.066 8.295-1.733 11.253-1.692 2.988-3.964 4.99-5.931 6.33-1.99 1.343-3.72 2.071-4.9 2.5-1.187.423-1.836.554-1.836.554s.152-.065.457-.168c.307-.098.756-.262 1.343-.484 1.162-.459 2.867-1.213 4.82-2.569 1.933-1.354 4.153-3.355 5.792-6.305 1.613-2.916 2.546-6.89 1.629-11.03-.47-2.05-1.441-4.097-2.978-5.814-1.513-1.733-3.498-3.157-5.731-4.24-4.492-2.182-9.906-2.98-15.507-2.875-5.628.073-11.478 1.056-17.588 1.746-3.056.332-6.187.593-9.377.536-1.593-.028-3.2-.118-4.805-.33-1.598-.203-3.253-.512-4.742-1.32-1.482-.79-2.696-2.189-3.028-3.878-.168-.84-.042-1.736.322-2.503.367-.769.948-1.404 1.607-1.899 1.324-1 3-1.419 4.604-1.357 1.615.073 3.166.624 4.484 1.497 1.3.893 2.374 2.125 2.954 3.584.583 1.457.64 3.065.317 4.545-.651 2.987-2.782 5.447-5.36 6.714-2.574 1.307-5.46 1.676-8.146 1.392-2.698-.278-5.227-1.203-7.384-2.539-1.08-.669-2.067-1.442-2.948-2.293-.868-.873-1.686-1.737-2.26-2.827-.505-1.092-.756-2.222-.98-3.322-.213-1.102-.377-2.186-.51-3.248-.522-4.244-.77-8.097-1.063-11.474-.281-3.377-.564-6.283-.901-8.642-.326-2.36-.72-4.172-1.084-5.37-.18-.6-.341-1.05-.471-1.344-.126-.296-.18-.454-.18-.454" transform="translate(41.249) translate(63 173.692)"/>
                <path fill="#1A2E35" d="M360.69 235.357s-.008-.145-.013-.418l-.012-1.209-.027-4.689-.06-17.718-.116-62.884.228.228-80.653.032h-.008l.26-.26-.038 86.918-.222-.222 58.447.114c7.053.025 12.593.045 16.386.057l4.327.027c.982.007 1.5.024 1.5.024s-.484.017-1.451.025l-4.285.026-16.335.057-58.59.115h-.222v-.223c-.012-25.104-.024-54.964-.038-86.918v-.261h.269l80.653.033h.229v.228l-.116 63.03-.06 17.666-.027 4.645-.012 1.185c-.005.264-.014.392-.014.392" transform="translate(41.249) translate(63 173.692)"/>
                <path fill="#1A2E35" d="M337.974 159.13c0 .228-.186.415-.415.415-.229 0-.415-.186-.415-.415 0-.23.186-.416.415-.416.229 0 .415.186.415.416M340.253 159.13c0 .228-.186.415-.415.415-.23 0-.415-.186-.415-.415 0-.23.185-.416.415-.416.23 0 .415.186.415.416M342.533 159.13c0 .228-.187.415-.415.415-.23 0-.415-.186-.415-.415 0-.23.185-.416.415-.416.228 0 .415.186.415.416M344.81 159.13c0 .228-.185.415-.414.415-.23 0-.415-.186-.415-.415 0-.23.186-.416.415-.416.229 0 .415.186.415.416M347.09 159.13c0 .228-.186.415-.415.415-.23 0-.415-.186-.415-.415 0-.23.185-.416.415-.416.23 0 .415.186.415.416M349.37 159.13c0 .228-.188.415-.416.415-.23 0-.415-.186-.415-.415 0-.23.185-.416.416-.416.228 0 .415.186.415.416M351.648 159.13c0 .228-.186.415-.415.415-.23 0-.415-.186-.415-.415 0-.23.186-.416.415-.416.229 0 .415.186.415.416M350.597 160.66c0 .23-.186.416-.414.416-.23 0-.415-.186-.415-.415 0-.23.185-.415.415-.415.228 0 .414.186.414.415M348.266 160.66c0 .23-.186.416-.415.416-.23 0-.415-.186-.415-.415 0-.23.185-.415.415-.415.229 0 .415.186.415.415M345.934 160.66c0 .23-.186.416-.415.416-.229 0-.415-.186-.415-.415 0-.23.186-.415.415-.415.229 0 .415.186.415.415M343.602 160.66c0 .23-.186.416-.414.416-.23 0-.415-.186-.415-.415 0-.23.185-.415.415-.415.228 0 .414.186.414.415M341.27 160.66c0 .23-.186.416-.414.416-.23 0-.415-.186-.415-.415 0-.23.185-.415.415-.415.228 0 .415.186.415.415M338.939 160.66c0 .23-.186.416-.415.416-.23 0-.415-.186-.415-.415 0-.23.186-.415.415-.415.229 0 .415.186.415.415M337.974 162.394c0 .23-.186.415-.415.415-.229 0-.415-.186-.415-.415 0-.229.186-.415.415-.415.229 0 .415.186.415.415M340.253 162.394c0 .23-.186.415-.415.415-.23 0-.415-.186-.415-.415 0-.229.185-.415.415-.415.23 0 .415.186.415.415M342.533 162.394c0 .23-.187.415-.415.415-.23 0-.415-.186-.415-.415 0-.229.185-.415.415-.415.228 0 .415.186.415.415M344.81 162.394c0 .23-.185.415-.414.415-.23 0-.415-.186-.415-.415 0-.229.186-.415.415-.415.229 0 .415.186.415.415M347.09 162.394c0 .23-.186.415-.415.415-.23 0-.415-.186-.415-.415 0-.229.185-.415.415-.415.23 0 .415.186.415.415M349.37 162.394c0 .23-.188.415-.416.415-.23 0-.415-.186-.415-.415 0-.229.185-.415.416-.415.228 0 .415.186.415.415M351.648 162.394c0 .23-.186.415-.415.415-.23 0-.415-.186-.415-.415 0-.229.186-.415.415-.415.229 0 .415.186.415.415M350.597 163.925c0 .23-.186.415-.414.415-.23 0-.415-.186-.415-.415 0-.229.185-.415.415-.415.228 0 .414.186.414.415M348.266 163.925c0 .23-.186.415-.415.415-.23 0-.415-.186-.415-.415 0-.229.185-.415.415-.415.229 0 .415.186.415.415M345.934 163.925c0 .23-.186.415-.415.415-.229 0-.415-.186-.415-.415 0-.229.186-.415.415-.415.229 0 .415.186.415.415M343.602 163.925c0 .23-.186.415-.414.415-.23 0-.415-.186-.415-.415 0-.229.185-.415.415-.415.228 0 .414.186.414.415M341.27 163.925c0 .23-.186.415-.414.415-.23 0-.415-.186-.415-.415 0-.229.185-.415.415-.415.228 0 .415.186.415.415M338.939 163.925c0 .23-.186.415-.415.415-.23 0-.415-.186-.415-.415 0-.229.186-.415.415-.415.229 0 .415.186.415.415M337.974 165.659c0 .229-.186.415-.415.415-.229 0-.415-.186-.415-.415 0-.23.186-.415.415-.415.229 0 .415.186.415.415M340.253 165.659c0 .229-.186.415-.415.415-.23 0-.415-.186-.415-.415 0-.23.185-.415.415-.415.23 0 .415.186.415.415M342.533 165.659c0 .229-.187.415-.415.415-.23 0-.415-.186-.415-.415 0-.23.185-.415.415-.415.228 0 .415.186.415.415M344.81 165.659c0 .229-.185.415-.414.415-.23 0-.415-.186-.415-.415 0-.23.186-.415.415-.415.229 0 .415.186.415.415M347.09 165.659c0 .229-.186.415-.415.415-.23 0-.415-.186-.415-.415 0-.23.185-.415.415-.415.23 0 .415.186.415.415M349.37 165.659c0 .229-.188.415-.416.415-.23 0-.415-.186-.415-.415 0-.23.185-.415.416-.415.228 0 .415.186.415.415M351.648 165.659c0 .229-.186.415-.415.415-.23 0-.415-.186-.415-.415 0-.23.186-.415.415-.415.229 0 .415.186.415.415M350.597 167.19c0 .229-.186.415-.414.415-.23 0-.415-.186-.415-.415 0-.229.185-.415.415-.415.228 0 .414.186.414.415M348.266 167.19c0 .229-.186.415-.415.415-.23 0-.415-.186-.415-.415 0-.229.185-.415.415-.415.229 0 .415.186.415.415M345.934 167.19c0 .229-.186.415-.415.415-.229 0-.415-.186-.415-.415 0-.229.186-.415.415-.415.229 0 .415.186.415.415M343.602 167.19c0 .229-.186.415-.414.415-.23 0-.415-.186-.415-.415 0-.229.185-.415.415-.415.228 0 .414.186.414.415M341.27 167.19c0 .229-.186.415-.414.415-.23 0-.415-.186-.415-.415 0-.229.185-.415.415-.415.228 0 .415.186.415.415M338.939 167.19c0 .229-.186.415-.415.415-.23 0-.415-.186-.415-.415 0-.229.186-.415.415-.415.229 0 .415.186.415.415" transform="translate(41.249) translate(63 173.692)"/>
                <path fill="#E1E1E1" d="M306.437 65.69s.582-.039 1.625.282c1.03.314 2.525 1.053 3.94 2.577 1.429 1.51 2.619 3.811 3.485 6.6.864 2.79 1.657 6.027 2.195 9.663 1.113 7.275 1.275 16.057.637 25.751-.242 2.41-.76 4.977-2.24 7.143-.727 1.072-1.665 2.041-2.818 2.728-1.138.69-2.525 1.08-3.901.927-1.361-.139-2.714-.709-3.705-1.724-.492-.506-.881-1.129-1.095-1.815-.22-.696-.215-1.454-.03-2.153.377-1.386 1.382-2.634 2.792-3.144.7-.255 1.502-.247 2.21.006.708.26 1.312.745 1.763 1.33.919 1.18 1.186 2.741.97 4.146-.198 1.424-.767 2.728-1.44 3.934-1.367 2.413-3.371 4.402-5.695 5.741-4.668 2.736-10.5 2.577-14.806.207-2.172-1.17-3.973-2.827-5.4-4.654-1.433-1.829-2.5-3.84-3.278-5.868-1.55-4.076-1.998-8.147-2.19-11.804-.2-3.672.006-6.998-.358-9.874-.182-1.434-.478-2.755-.93-3.905-.44-1.155-1.043-2.124-1.671-2.919-1.272-1.597-2.706-2.405-3.711-2.745-1.017-.346-1.597-.345-1.591-.382 0 0 .58-.036 1.624.282 1.03.314 2.514 1.108 3.835 2.717.653.801 1.282 1.781 1.746 2.956.474 1.168.789 2.51.987 3.96.396 2.912.214 6.243.437 9.89.214 3.637.682 7.667 2.225 11.668.774 1.99 1.828 3.958 3.236 5.742 1.4 1.781 3.16 3.385 5.265 4.514 4.173 2.283 9.826 2.422 14.325-.225 2.243-1.298 4.18-3.226 5.5-5.556.65-1.165 1.193-2.425 1.376-3.749.198-1.314-.05-2.705-.87-3.759-.4-.519-.926-.937-1.528-1.159-.602-.21-1.257-.22-1.858-.003-1.21.428-2.137 1.558-2.463 2.786-.364 1.241.098 2.575.993 3.477.888.913 2.133 1.446 3.386 1.574 1.26.141 2.52-.21 3.593-.852 1.077-.64 1.968-1.553 2.663-2.575 1.415-2.056 1.93-4.535 2.174-6.91.66-9.638.539-18.413-.523-25.649-.513-3.622-1.276-6.85-2.11-9.632-.833-2.775-1.977-5.047-3.355-6.549-1.366-1.518-2.816-2.273-3.824-2.614-1.017-.35-1.6-.346-1.592-.383" transform="translate(41.249) translate(63 173.692)"/>
                <path fill="#E1E1E1" d="M265.367 86.486L298.589 86.486 298.589 80.157 265.367 80.157z" transform="translate(41.249) translate(63 173.692)"/>
                <path fill="#1A2E35" d="M15.465 238.865L58.797 238.865 58.797 145.593 15.465 145.593z" transform="translate(41.249) translate(63 173.692)"/>
                <path fill="#375A64" d="M55.07 229.042s-.01-.142-.015-.403l-.016-1.16-.031-4.462c-.016-3.9-.04-9.556-.068-16.663l-.118-57.533.248.248-36.25.013h-.004l.26-.261-.072 80.22-.188-.187 26.468.1 7.234.048 1.893.02c.429.006.659.02.659.02s-.204.013-.62.02c-.438.004-1.056.01-1.86.02l-7.191.047c-6.297.023-15.375.059-26.583.1h-.19v-.188c-.017-20.761-.043-49.06-.071-80.22v-.26h.266l36.249.013h.248l-.001.247c-.048 23.364-.09 43.442-.118 57.7l-.068 16.606-.031 4.412-.015 1.13c-.005.252-.015.373-.015.373" transform="translate(41.249) translate(63 173.692)"/>
                <path fill="#375A64" d="M52.831 155.61c-.014-.014-.029-.35-.049-.972l-.065-2.703.114.114c-5.607.087-17.626.147-31.523.147.114-.116-.262.26.258-.261v3.676l-.26-.26c8.818.006 16.653.06 22.322.113 2.8.03 5.073.057 6.71.076l1.832.036c.422.012.65.023.661.035.012.012-.192.023-.592.035l-1.775.035c-1.62.02-3.874.045-6.648.077-5.657.053-13.585.106-22.51.112h-.259v-.26-1.806c0-.307 0-.618-.002-.93V151.936l.262-.261h.001c13.897 0 25.916.06 31.523.147l.117.002-.003.112-.065 2.77c-.02.615-.034.92-.049.906M24.48 158.252c0 .144-.651.26-1.454.26-.802 0-1.453-.116-1.453-.26 0-.144.65-.261 1.453-.261s1.454.117 1.454.26M51.989 163.064c0 .144-6.71.261-14.985.261-8.278 0-14.986-.117-14.986-.26 0-.145 6.708-.262 14.986-.262 8.276 0 14.985.117 14.985.261M52.118 168.877c0 .144-6.594.261-14.727.261-8.135 0-14.728-.117-14.728-.26 0-.144 6.593-.26 14.728-.26 8.133 0 14.727.115 14.727.26" transform="translate(41.249) translate(63 173.692)"/>
                <path fill="#FF4F5B" d="M39.388 182.46c0 1.317-1.068 2.385-2.385 2.385-1.317 0-2.385-1.067-2.385-2.385 0-1.316 1.068-2.385 2.385-2.385 1.317 0 2.385 1.07 2.385 2.386" transform="translate(41.249) translate(63 173.692)"/>
                <path fill="#375A64" d="M30.283 182.351c0 .144-1.427.261-3.188.261-1.761 0-3.187-.117-3.187-.26 0-.145 1.426-.262 3.187-.262 1.76 0 3.188.117 3.188.261M49.64 181.737c0 .144-1.358.26-3.034.26-1.676 0-3.034-.116-3.034-.26 0-.145 1.358-.261 3.034-.261 1.676 0 3.034.116 3.034.26" transform="translate(41.249) translate(63 173.692)"/>
                <path fill="#1A2E35" d="M16.953 192.4s-.572-.027-1.623-.298c-1.043-.277-2.576-.826-4.29-1.986-1.713-1.143-3.59-2.917-5.171-5.393-1.591-2.468-2.87-5.595-3.773-9.162-.91-3.56-1.505-7.609-1.196-11.95.292-4.313 1.621-8.973 4.55-12.934 1.442-1.977 3.268-3.767 5.433-5.161 1.087-.687 2.253-1.275 3.487-1.732 1.241-.442 2.538-.743 3.859-.921 2.643-.367 5.346-.317 8.051-.475 2.69-.152 5.454-.584 7.914-1.824 2.456-1.203 4.39-3.41 4.913-6.037.595-2.59-.077-5.385-1.781-7.315-1.664-1.935-4.187-3.133-6.638-2.985-1.218.087-2.421.492-3.338 1.238-.921.733-1.476 1.876-1.397 3.017.165 2.303 2.272 4.22 4.46 4.309 2.23.152 4.318-1.037 5.718-2.569 1.41-1.58 2.218-3.531 2.766-5.428.541-1.912.872-3.806 1.154-5.609 1.016-7.254.673-13.222.529-17.306l-.238-4.717-.058-1.227c-.01-.277-.011-.419-.002-.42.009 0 .028.141.055.416l.109 1.224c.087 1.076.214 2.664.337 4.713.205 4.086.608 10.061-.368 17.369-.273 1.819-.592 3.722-1.131 5.667-.548 1.931-1.361 3.944-2.832 5.607-1.464 1.612-3.646 2.887-6.07 2.737-2.408-.111-4.702-2.144-4.908-4.74-.095-1.297.544-2.608 1.565-3.421 1.017-.829 2.309-1.258 3.614-1.356 2.647-.159 5.289 1.105 7.06 3.149 1.811 2.042 2.531 5.025 1.9 7.758-.299 1.366-.911 2.69-1.836 3.777-.9 1.105-2.078 1.967-3.347 2.613-2.563 1.291-5.395 1.724-8.12 1.877-2.733.157-5.42.106-8.011.464-1.295.172-2.555.464-3.758.889-1.197.442-2.332 1.011-3.391 1.677-2.109 1.352-3.897 3.095-5.314 5.027-2.876 3.868-4.198 8.427-4.506 12.682-.323 4.277.243 8.289 1.123 11.826.874 3.546 2.115 6.647 3.661 9.097 1.538 2.458 3.366 4.227 5.041 5.382 1.675 1.171 3.178 1.744 4.204 2.052.516.151.915.249 1.187.3.27.056.408.09.407.099M2.189 71.361L104.793 71.361 104.793.904 2.189.904z" transform="translate(41.249) translate(63 173.692)"/>
                <path fill="#1A2E35" d="M45.558 88.333L59.528 88.333 59.528 61.755 45.558 61.755z" transform="translate(41.249) translate(63 173.692)"/>
            </g>
            <path fill="#1A2E35" d="M75.401 261.002L75.401 270.568 128.337 270.568 128.337 413.023 133.208 413.023 133.208 270.568 354.305 271.659 354.305 413.023 359.081 413.023 359.081 271.394 393.201 271.667 393.201 260.178z" transform="translate(41.249)"/>
            <path fill="#1A2E35" d="M109.277 268.708L130.151 283.739 128.337 285.48 107.291 269.623zM378.754 270.111L354.534 287.358 356.349 289.099 380.74 271.026zM152.384 261.508L207.1 261.508 207.1 257.482 152.384 257.482z" transform="translate(41.249)"/>
        </g>
    </g>
</svg>
