<svg xmlns="http://www.w3.org/2000/svg" width="83" height="34" viewBox="0 0 83 34">
    <g fill="none" fill-rule="evenodd">
        <path fill="#231F20" fill-rule="nonzero" d="M44.48 26.192c1.184 0 2.232-.228 3.144-.684.912-.456 1.624-1.096 2.136-1.92.512-.824.768-1.78.768-2.868V9.488c0-.08-.028-.148-.084-.204-.056-.056-.124-.084-.204-.084h-2.784c-.08 0-.148.028-.204.084-.056.056-.084.124-.084.204V20.72c0 .768-.252 1.388-.756 1.86-.504.472-1.148.708-1.932.708-.816 0-1.46-.236-1.932-.708s-.708-1.092-.708-1.86v-1.512c0-.08-.028-.148-.084-.204-.056-.056-.124-.084-.204-.084h-2.808c-.08 0-.148.028-.204.084-.056.056-.084.124-.084.204v1.512c0 1.088.248 2.044.744 2.868.496.824 1.196 1.464 2.1 1.92.904.456 1.964.684 3.18.684zM55.952 26c.16 0 .264-.08.312-.24l.696-2.352c.032-.064.072-.096.12-.096h5.904c.048 0 .088.032.12.096l.72 2.352c.048.16.152.24.312.24h3.048c.176 0 .264-.072.264-.216 0-.048-.008-.088-.024-.12L62.24 9.44c-.048-.16-.152-.24-.312-.24H58.16c-.16 0-.264.08-.312.24l-5.184 16.224c-.032.112-.024.196.024.252.048.056.12.084.216.084h3.048zm6.192-5.304H57.92c-.08 0-.112-.048-.096-.144l2.112-7.128c.016-.048.04-.076.072-.084.032-.008.056.02.072.084l2.16 7.128c.032.096 0 .144-.096.144zm13.32 5.496c1.232 0 2.316-.236 3.252-.708.936-.472 1.66-1.156 2.172-2.052.512-.896.768-1.952.768-3.168v-3.168c0-.08-.028-.148-.084-.204-.056-.056-.124-.084-.204-.084h-5.856c-.08 0-.148.028-.204.084-.056.056-.084.124-.084.204v2.208c0 .08.028.148.084.204.056.056.124.084.204.084H78.2c.08 0 .12.04.12.12v1.08c0 .784-.248 1.396-.744 1.836-.496.44-1.16.66-1.992.66-.864 0-1.576-.268-2.136-.804s-.84-1.236-.84-2.1v-5.568c0-.864.26-1.564.78-2.1s1.212-.804 2.076-.804c.848 0 1.528.252 2.04.756s.768 1.124.768 1.86v.072c0 .08.028.148.084.204.056.056.124.084.204.084h2.808c.08 0 .148-.028.204-.084.056-.056.084-.124.084-.204v-.168c0-1.008-.26-1.924-.78-2.748-.52-.824-1.248-1.476-2.184-1.956-.936-.48-2.012-.72-3.228-.72-1.232 0-2.32.244-3.264.732s-1.676 1.18-2.196 2.076c-.52.896-.78 1.928-.78 3.096v5.376c0 1.168.26 2.196.78 3.084.52.888 1.252 1.58 2.196 2.076.944.496 2.032.744 3.264.744z"/>
        <rect width="32" height="34" fill="#F36" rx="3"/>
        <text fill="#FFF" font-family="AmericanTypewriter-Semibold, American Typewriter" font-size="23" font-weight="500">
            <tspan x="5" y="23">{}</tspan>
        </text>
    </g>
</svg>
