<?xml version="1.0" ?><!DOCTYPE svg  PUBLIC '-//W3C//DTD SVG 1.1//EN'  'http://www.w3.org/Graphics/SVG/1.1/DTD/svg11.dtd'><svg enable-background="new 0 0 512 512" id="Layer_1" version="1.1" viewBox="0 0 512 512" xml:space="preserve" xmlns="http://www.w3.org/2000/svg" xmlns:xlink="http://www.w3.org/1999/xlink"><g><circle cx="256" cy="256" fill="#25D366" r="256"/><g><path d="M256,143.8L256,143.8L256,143.8c-61.9,0-112.3,50.3-112.3,112.2c0,24.5,7.9,47.3,21.4,65.8l-14,41.7    l43.1-13.8c17.7,11.7,38.9,18.5,61.7,18.5c61.9,0,112.2-50.3,112.2-112.2C368.2,194.1,317.9,143.8,256,143.8z M321.3,302.2    c-2.7,7.7-13.5,14-22,15.8c-5.9,1.2-13.5,2.2-39.3-8.4c-33-13.7-54.2-47.2-55.9-49.4c-1.6-2.2-13.3-17.7-13.3-33.8    s8.2-23.9,11.5-27.3c2.7-2.8,7.2-4,11.5-4c1.4,0,2.6,0.1,3.8,0.1c3.3,0.1,4.9,0.3,7.1,5.5c2.7,6.5,9.3,22.6,10.1,24.3    c0.8,1.7,1.6,3.9,0.5,6.1c-1.1,2.2-2,3.2-3.6,5.1c-1.6,1.9-3.2,3.4-4.9,5.4c-1.5,1.8-3.2,3.7-1.3,7c1.9,3.2,8.5,14,18.2,22.6    c12.5,11.2,22.7,14.7,26.3,16.2c2.7,1.1,5.9,0.9,7.9-1.3c2.5-2.7,5.6-7.2,8.8-11.6c2.2-3.2,5.1-3.6,8-2.4c3,1.1,19.1,9,22.4,10.6    c3.3,1.6,5.5,2.4,6.3,3.8C324,288.1,324,294.6,321.3,302.2z" fill="#FFFFFF"/></g></g></svg>