<svg xmlns="http://www.w3.org/2000/svg" width="98" height="98" viewBox="0 0 98 98">
    <defs>
        <filter id="prefix__a" width="219.2%" height="219.2%" x="-59.6%" y="-59.6%" filterUnits="objectBoundingBox">
            <feOffset dy="7" in="SourceAlpha" result="shadowOffsetOuter1"/>
            <feGaussianBlur in="shadowOffsetOuter1" result="shadowBlurOuter1" stdDeviation="4.5"/>
            <feColorMatrix in="shadowBlurOuter1" result="shadowMatrixOuter1" values="0 0 0 0 0 0 0 0 0 0 0 0 0 0 0 0 0 0 0.14 0"/>
            <feMerge>
                <feMergeNode in="shadowMatrixOuter1"/>
                <feMergeNode in="SourceGraphic"/>
            </feMerge>
        </filter>
    </defs>
    <g fill="none" filter="url(#prefix__a)" transform="translate(23 23)">
        <rect width="52" height="52" fill="#1BD741" rx="26"/>
        <g fill="#FFF">
            <path d="M0 29.25l2.049-7.268C.73 19.747.038 17.203.038 14.59.038 6.545 6.59 0 14.644 0S29.25 6.545 29.25 14.59c0 8.046-6.552 14.59-14.606 14.59-2.51 0-4.967-.64-7.14-1.86L0 29.25zm7.887-4.584l.447.273c1.895 1.156 4.077 1.767 6.31 1.767 6.688 0 12.128-5.435 12.128-12.116 0-6.68-5.44-12.115-12.128-12.115S2.515 7.91 2.515 14.59c0 2.328.663 4.589 1.915 6.537l.301.469-1.18 4.185 4.336-1.115z" transform="translate(11.375 11.375)"/>
            <path d="M11.001 8.175l-.83-.048c-.261-.016-.517.078-.715.261-.402.375-1.046 1.1-1.244 2.043-.295 1.408.161 3.13 1.34 4.854 1.18 1.724 3.378 4.48 7.266 5.659 1.252.38 2.238.123 2.998-.398.602-.412 1.017-1.075 1.167-1.824l.132-.663c.043-.211-.057-.425-.24-.516l-2.808-1.386c-.182-.09-.398-.033-.52.137l-1.103 1.53c-.083.116-.225.162-.354.114-.755-.284-3.283-1.419-4.67-4.282-.06-.124-.045-.274.04-.38l1.053-1.306c.108-.133.135-.32.07-.482l-1.21-3.034c-.064-.161-.208-.27-.372-.279z" transform="translate(11.375 11.375)"/>
        </g>
    </g>
</svg>
